<?xml version="1.0" encoding="UTF-8" standalone="no"?>
<!DOCTYPE svg PUBLIC "-//W3C//DTD SVG 1.1//EN" "http://www.w3.org/Graphics/SVG/1.1/DTD/svg11.dtd">
<svg xmlns="http://www.w3.org/2000/svg" xmlns:xlink="http://www.w3.org/1999/xlink" version="1.1" width="600pt" height="400pt" viewBox="0 0 600 400">
<g enable-background="new">
<clipPath id="cp0">
<path transform="matrix(1,0,0,-1,0,400)" d="M 0 0 L 600 0 L 600 400 L 0 400 Z "/>
</clipPath>
<g clip-path="url(#cp0)">
<clipPath id="cp1">
<path transform="matrix(1,0,0,-1,0,400)" d="M 0 0 L 600 0 L 600 600 L 0 600 Z "/>
</clipPath>
<g clip-path="url(#cp1)">
<path transform="matrix(1,0,0,-1,0,400)" d="M 0 0 L 600 0 L 600 400 L 0 400 " fill="#ffffff" fill-rule="evenodd"/>
</g>
<clipPath id="cp2">
<path transform="matrix(1,0,0,-1,0,400)" d="M 0 0 L 600 0 L 600 600 L 0 600 Z "/>
</clipPath>
<g clip-path="url(#cp2)">
<path transform="matrix(1,0,0,-1,0,400)" d="M 55.41 44.21 L 588.19 44.21 L 588.19 388.19 L 55.41 388.19 " fill="#ffffff" fill-rule="evenodd"/>
</g>
<path transform="matrix(1,0,0,-1,0,400)" stroke-width="1" stroke-linecap="butt" stroke-linejoin="round" fill="none" stroke="#000000" d="M 55.41 44.21 L 588.19 44.21 "/>
<path transform="matrix(1,0,0,-1,0,400)" stroke-width="1" stroke-linecap="butt" stroke-linejoin="round" fill="none" stroke="#000000" d="M 55.41 388.19 L 588.19 388.19 "/>
<path transform="matrix(1,0,0,-1,0,400)" stroke-width="1" stroke-linecap="butt" stroke-linejoin="round" fill="none" stroke="#000000" d="M 133.32 44.21 L 133.32 48.33 "/>
<path transform="matrix(1,0,0,-1,0,400)" stroke-width="1" stroke-linecap="butt" stroke-linejoin="round" fill="none" stroke="#000000" d="M 238.03 44.21 L 238.03 48.33 "/>
<path transform="matrix(1,0,0,-1,0,400)" stroke-width="1" stroke-linecap="butt" stroke-linejoin="round" fill="none" stroke="#000000" d="M 342.74 44.21 L 342.74 48.33 "/>
<path transform="matrix(1,0,0,-1,0,400)" stroke-width="1" stroke-linecap="butt" stroke-linejoin="round" fill="none" stroke="#000000" d="M 447.45 44.21 L 447.45 48.33 "/>
<path transform="matrix(1,0,0,-1,0,400)" stroke-width="1" stroke-linecap="butt" stroke-linejoin="round" fill="none" stroke="#000000" d="M 552.17 44.21 L 552.17 48.33 "/>
<path transform="matrix(1,0,0,-1,0,400)" d="M 126.76 33.7 C 126.76 33.7 127.6 33.52 128.06 32.95 C 128.06 32.95 128.54 32.38 128.54 31.55 C 128.54 31.55 128.54 30.27 127.66 29.57 C 127.66 29.57 126.78 28.87 125.16 28.87 C 125.16 28.87 124.61 28.87 124.04 28.98 C 124.04 28.98 123.46 29.08 122.85 29.3 L 122.85 30.43 C 122.85 30.43 123.34 30.14 123.91 30 C 123.91 30 124.49 29.85 125.12 29.85 C 125.12 29.85 126.22 29.85 126.8 30.29 C 126.8 30.29 127.38 30.72 127.38 31.55 C 127.38 31.55 127.38 32.31 126.84 32.74 C 126.84 32.74 126.3 33.17 125.35 33.17 L 124.34 33.17 L 124.34 34.14 L 125.4 34.14 C 125.4 34.14 126.26 34.14 126.72 34.48 C 126.72 34.48 127.17 34.82 127.17 35.47 C 127.17 35.47 127.17 36.14 126.7 36.49 C 126.7 36.49 126.23 36.85 125.35 36.85 C 125.35 36.85 124.87 36.85 124.32 36.75 C 124.32 36.75 123.77 36.64 123.11 36.42 L 123.11 37.46 C 123.11 37.46 123.78 37.65 124.35 37.74 C 124.35 37.74 124.94 37.83 125.45 37.83 C 125.45 37.83 126.79 37.83 127.56 37.23 C 127.56 37.23 128.34 36.62 128.34 35.59 C 128.34 35.59 128.34 34.88 127.93 34.38 C 127.93 34.38 127.51 33.89 126.76 33.7 Z " fill-rule="evenodd"/>
<path transform="matrix(1,0,0,-1,0,400)" d="M 130.77 37.68 L 135.36 37.68 L 135.36 36.69 L 131.84 36.69 L 131.84 34.58 C 131.84 34.58 132.09 34.66 132.35 34.7 C 132.35 34.7 132.6 34.75 132.86 34.75 C 132.86 34.75 134.3 34.75 135.15 33.96 C 135.15 33.96 135.99 33.16 135.99 31.81 C 135.99 31.81 135.99 30.41 135.12 29.64 C 135.12 29.64 134.26 28.87 132.68 28.87 C 132.68 28.87 132.13 28.87 131.57 28.96 C 131.57 28.96 131 29.05 130.4 29.24 L 130.4 30.41 C 130.4 30.41 130.92 30.13 131.48 29.99 C 131.48 29.99 132.03 29.85 132.65 29.85 C 132.65 29.85 133.65 29.85 134.24 30.38 C 134.24 30.38 134.82 30.91 134.82 31.81 C 134.82 31.81 134.82 32.71 134.24 33.24 C 134.24 33.24 133.65 33.77 132.65 33.77 C 132.65 33.77 132.18 33.77 131.72 33.66 C 131.72 33.66 131.25 33.56 130.77 33.34 L 130.77 37.68 Z " fill-rule="evenodd"/>
<path transform="matrix(1,0,0,-1,0,400)" d="M 140.8 36.91 C 140.8 36.91 139.89 36.91 139.44 36.02 C 139.44 36.02 138.98 35.13 138.98 33.35 C 138.98 33.35 138.98 31.57 139.44 30.68 C 139.44 30.68 139.89 29.8 140.8 29.8 C 140.8 29.8 141.7 29.8 142.16 30.68 C 142.16 30.68 142.61 31.57 142.61 33.35 C 142.61 33.35 142.61 35.13 142.16 36.02 C 142.16 36.02 141.7 36.91 140.8 36.91 M 140.8 37.83 C 140.8 37.83 142.25 37.83 143.01 36.68 C 143.01 36.68 143.78 35.54 143.78 33.35 C 143.78 33.35 143.78 31.17 143.01 30.02 C 143.01 30.02 142.25 28.87 140.8 28.87 C 140.8 28.87 139.34 28.87 138.57 30.02 C 138.57 30.02 137.81 31.17 137.81 33.35 C 137.81 33.35 137.81 35.54 138.57 36.68 C 138.57 36.68 139.34 37.83 140.8 37.83 Z " fill-rule="evenodd"/>
<path transform="matrix(1,0,0,-1,0,400)" d="M 231.3 36.66 L 228.35 32.05 L 231.3 32.05 L 231.3 36.66 M 230.99 37.68 L 232.46 37.68 L 232.46 32.05 L 233.7 32.05 L 233.7 31.07 L 232.46 31.07 L 232.46 29.04 L 231.3 29.04 L 231.3 31.07 L 227.4 31.07 L 227.4 32.2 L 230.99 37.68 Z " fill-rule="evenodd"/>
<path transform="matrix(1,0,0,-1,0,400)" d="M 238.13 36.91 C 238.13 36.91 237.23 36.91 236.77 36.02 C 236.77 36.02 236.32 35.13 236.32 33.35 C 236.32 33.35 236.32 31.57 236.77 30.68 C 236.77 30.68 237.23 29.8 238.13 29.8 C 238.13 29.8 239.04 29.8 239.49 30.68 C 239.49 30.68 239.95 31.57 239.95 33.35 C 239.95 33.35 239.95 35.13 239.49 36.02 C 239.49 36.02 239.04 36.91 238.13 36.91 M 238.13 37.83 C 238.13 37.83 239.58 37.83 240.35 36.68 C 240.35 36.68 241.12 35.54 241.12 33.35 C 241.12 33.35 241.12 31.17 240.35 30.02 C 240.35 30.02 239.58 28.87 238.13 28.87 C 238.13 28.87 236.68 28.87 235.91 30.02 C 235.91 30.02 235.14 31.17 235.14 33.35 C 235.14 33.35 235.14 35.54 235.91 36.68 C 235.91 36.68 236.68 37.83 238.13 37.83 Z " fill-rule="evenodd"/>
<path transform="matrix(1,0,0,-1,0,400)" d="M 245.67 36.91 C 245.67 36.91 244.77 36.91 244.31 36.02 C 244.31 36.02 243.86 35.13 243.86 33.35 C 243.86 33.35 243.86 31.57 244.31 30.68 C 244.31 30.68 244.77 29.8 245.67 29.8 C 245.67 29.8 246.58 29.8 247.03 30.68 C 247.03 30.68 247.49 31.57 247.49 33.35 C 247.49 33.35 247.49 35.13 247.03 36.02 C 247.03 36.02 246.58 36.91 245.67 36.91 M 245.67 37.83 C 245.67 37.83 247.12 37.83 247.89 36.68 C 247.89 36.68 248.66 35.54 248.66 33.35 C 248.66 33.35 248.66 31.17 247.89 30.02 C 247.89 30.02 247.12 28.87 245.67 28.87 C 245.67 28.87 244.22 28.87 243.45 30.02 C 243.45 30.02 242.68 31.17 242.68 33.35 C 242.68 33.35 242.68 35.54 243.45 36.68 C 243.45 36.68 244.22 37.83 245.67 37.83 Z " fill-rule="evenodd"/>
<path transform="matrix(1,0,0,-1,0,400)" d="M 336.01 36.66 L 333.06 32.05 L 336.01 32.05 L 336.01 36.66 M 335.71 37.68 L 337.18 37.68 L 337.18 32.05 L 338.41 32.05 L 338.41 31.07 L 337.18 31.07 L 337.18 29.04 L 336.01 29.04 L 336.01 31.07 L 332.11 31.07 L 332.11 32.2 L 335.71 37.68 Z " fill-rule="evenodd"/>
<path transform="matrix(1,0,0,-1,0,400)" d="M 340.35 37.68 L 344.94 37.68 L 344.94 36.69 L 341.43 36.69 L 341.43 34.58 C 341.43 34.58 341.68 34.66 341.93 34.7 C 341.93 34.7 342.19 34.75 342.44 34.75 C 342.44 34.75 343.89 34.75 344.74 33.96 C 344.74 33.96 345.58 33.16 345.58 31.81 C 345.58 31.81 345.58 30.41 344.71 29.64 C 344.71 29.64 343.84 28.87 342.26 28.87 C 342.26 28.87 341.72 28.87 341.15 28.96 C 341.15 28.96 340.59 29.05 339.99 29.24 L 339.99 30.41 C 339.99 30.41 340.51 30.13 341.07 29.99 C 341.07 29.99 341.62 29.85 342.24 29.85 C 342.24 29.85 343.24 29.85 343.83 30.38 C 343.83 30.38 344.41 30.91 344.41 31.81 C 344.41 31.81 344.41 32.71 343.83 33.24 C 343.83 33.24 343.24 33.77 342.24 33.77 C 342.24 33.77 341.77 33.77 341.3 33.66 C 341.3 33.66 340.84 33.56 340.35 33.34 L 340.35 37.68 Z " fill-rule="evenodd"/>
<path transform="matrix(1,0,0,-1,0,400)" d="M 350.38 36.91 C 350.38 36.91 349.48 36.91 349.02 36.02 C 349.02 36.02 348.57 35.13 348.57 33.35 C 348.57 33.35 348.57 31.57 349.02 30.68 C 349.02 30.68 349.48 29.8 350.38 29.8 C 350.38 29.8 351.29 29.8 351.74 30.68 C 351.74 30.68 352.2 31.57 352.2 33.35 C 352.2 33.35 352.2 35.13 351.74 36.02 C 351.74 36.02 351.29 36.91 350.38 36.91 M 350.38 37.83 C 350.38 37.83 351.84 37.83 352.6 36.68 C 352.6 36.68 353.37 35.54 353.37 33.35 C 353.37 33.35 353.37 31.17 352.6 30.02 C 352.6 30.02 351.84 28.87 350.38 28.87 C 350.38 28.87 348.93 28.87 348.16 30.02 C 348.16 30.02 347.4 31.17 347.4 33.35 C 347.4 33.35 347.4 35.54 348.16 36.68 C 348.16 36.68 348.93 37.83 350.38 37.83 Z " fill-rule="evenodd"/>
<path transform="matrix(1,0,0,-1,0,400)" d="M 437.36 37.68 L 441.95 37.68 L 441.95 36.69 L 438.43 36.69 L 438.43 34.58 C 438.43 34.58 438.68 34.66 438.94 34.7 C 438.94 34.7 439.19 34.75 439.45 34.75 C 439.45 34.75 440.9 34.75 441.74 33.96 C 441.74 33.96 442.58 33.16 442.58 31.81 C 442.58 31.81 442.58 30.41 441.72 29.64 C 441.72 29.64 440.85 28.87 439.27 28.87 C 439.27 28.87 438.73 28.87 438.16 28.96 C 438.16 28.96 437.6 29.05 436.99 29.24 L 436.99 30.41 C 436.99 30.41 437.52 30.13 438.07 29.99 C 438.07 29.99 438.63 29.85 439.25 29.85 C 439.25 29.85 440.25 29.85 440.83 30.38 C 440.83 30.38 441.42 30.91 441.42 31.81 C 441.42 31.81 441.42 32.71 440.83 33.24 C 440.83 33.24 440.25 33.77 439.25 33.77 C 439.25 33.77 438.78 33.77 438.31 33.66 C 438.31 33.66 437.85 33.56 437.36 33.34 L 437.36 37.68 Z " fill-rule="evenodd"/>
<path transform="matrix(1,0,0,-1,0,400)" d="M 447.39 36.91 C 447.39 36.91 446.49 36.91 446.03 36.02 C 446.03 36.02 445.58 35.13 445.58 33.35 C 445.58 33.35 445.58 31.57 446.03 30.68 C 446.03 30.68 446.49 29.8 447.39 29.8 C 447.39 29.8 448.3 29.8 448.75 30.68 C 448.75 30.68 449.21 31.57 449.21 33.35 C 449.21 33.35 449.21 35.13 448.75 36.02 C 448.75 36.02 448.3 36.91 447.39 36.91 M 447.39 37.83 C 447.39 37.83 448.84 37.83 449.6 36.68 C 449.6 36.68 450.37 35.54 450.37 33.35 C 450.37 33.35 450.37 31.17 449.6 30.02 C 449.6 30.02 448.84 28.87 447.39 28.87 C 447.39 28.87 445.94 28.87 445.17 30.02 C 445.17 30.02 444.4 31.17 444.4 33.35 C 444.4 33.35 444.4 35.54 445.17 36.68 C 445.17 36.68 445.94 37.83 447.39 37.83 Z " fill-rule="evenodd"/>
<path transform="matrix(1,0,0,-1,0,400)" d="M 454.93 36.91 C 454.93 36.91 454.03 36.91 453.57 36.02 C 453.57 36.02 453.12 35.13 453.12 33.35 C 453.12 33.35 453.12 31.57 453.57 30.68 C 453.57 30.68 454.03 29.8 454.93 29.8 C 454.93 29.8 455.84 29.8 456.29 30.68 C 456.29 30.68 456.75 31.57 456.75 33.35 C 456.75 33.35 456.75 35.13 456.29 36.02 C 456.29 36.02 455.84 36.91 454.93 36.91 M 454.93 37.83 C 454.93 37.83 456.38 37.83 457.15 36.68 C 457.15 36.68 457.91 35.54 457.91 33.35 C 457.91 33.35 457.91 31.17 457.15 30.02 C 457.15 30.02 456.38 28.87 454.93 28.87 C 454.93 28.87 453.48 28.87 452.71 30.02 C 452.71 30.02 451.94 31.17 451.94 33.35 C 451.94 33.35 451.94 35.54 452.71 36.68 C 452.71 36.68 453.48 37.83 454.93 37.83 Z " fill-rule="evenodd"/>
<path transform="matrix(1,0,0,-1,0,400)" d="M 542.07 37.68 L 546.66 37.68 L 546.66 36.69 L 543.14 36.69 L 543.14 34.58 C 543.14 34.58 543.4 34.66 543.65 34.7 C 543.65 34.7 543.91 34.75 544.16 34.75 C 544.16 34.75 545.61 34.75 546.45 33.96 C 546.45 33.96 547.3 33.16 547.3 31.81 C 547.3 31.81 547.3 30.41 546.43 29.64 C 546.43 29.64 545.56 28.87 543.98 28.87 C 543.98 28.87 543.44 28.87 542.87 28.96 C 542.87 28.96 542.31 29.05 541.71 29.24 L 541.71 30.41 C 541.71 30.41 542.23 30.13 542.78 29.99 C 542.78 29.99 543.34 29.85 543.96 29.85 C 543.96 29.85 544.96 29.85 545.54 30.38 C 545.54 30.38 546.13 30.91 546.13 31.81 C 546.13 31.81 546.13 32.71 545.54 33.24 C 545.54 33.24 544.96 33.77 543.96 33.77 C 543.96 33.77 543.49 33.77 543.02 33.66 C 543.02 33.66 542.56 33.56 542.07 33.34 L 542.07 37.68 Z " fill-rule="evenodd"/>
<path transform="matrix(1,0,0,-1,0,400)" d="M 549.61 37.68 L 554.2 37.68 L 554.2 36.69 L 550.68 36.69 L 550.68 34.58 C 550.68 34.58 550.94 34.66 551.19 34.7 C 551.19 34.7 551.45 34.75 551.7 34.75 C 551.7 34.75 553.15 34.75 553.99 33.96 C 553.99 33.96 554.84 33.16 554.84 31.81 C 554.84 31.81 554.84 30.41 553.97 29.64 C 553.97 29.64 553.1 28.87 551.52 28.87 C 551.52 28.87 550.98 28.87 550.41 28.96 C 550.41 28.96 549.85 29.05 549.25 29.24 L 549.25 30.41 C 549.25 30.41 549.77 30.13 550.32 29.99 C 550.32 29.99 550.88 29.85 551.5 29.85 C 551.5 29.85 552.5 29.85 553.08 30.38 C 553.08 30.38 553.67 30.91 553.67 31.81 C 553.67 31.81 553.67 32.71 553.08 33.24 C 553.08 33.24 552.5 33.77 551.5 33.77 C 551.5 33.77 551.03 33.77 550.56 33.66 C 550.56 33.66 550.1 33.56 549.61 33.34 L 549.61 37.68 Z " fill-rule="evenodd"/>
<path transform="matrix(1,0,0,-1,0,400)" d="M 559.64 36.91 C 559.64 36.91 558.74 36.91 558.28 36.02 C 558.28 36.02 557.83 35.13 557.83 33.35 C 557.83 33.35 557.83 31.57 558.28 30.68 C 558.28 30.68 558.74 29.8 559.64 29.8 C 559.64 29.8 560.55 29.8 561 30.68 C 561 30.68 561.46 31.57 561.46 33.35 C 561.46 33.35 561.46 35.13 561 36.02 C 561 36.02 560.55 36.91 559.64 36.91 M 559.64 37.83 C 559.64 37.83 561.09 37.83 561.86 36.68 C 561.86 36.68 562.63 35.54 562.63 33.35 C 562.63 33.35 562.63 31.17 561.86 30.02 C 561.86 30.02 561.09 28.87 559.64 28.87 C 559.64 28.87 558.19 28.87 557.42 30.02 C 557.42 30.02 556.66 31.17 556.66 33.35 C 556.66 33.35 556.66 35.54 557.42 36.68 C 557.42 36.68 558.19 37.83 559.64 37.83 Z " fill-rule="evenodd"/>
<path transform="matrix(1,0,0,-1,0,400)" d="M 303.36 19.87 L 313.41 19.87 L 313.41 18.52 L 309.19 18.52 L 309.19 7.99 L 307.58 7.99 L 307.58 18.52 L 303.36 18.52 L 303.36 19.87 Z " fill-rule="evenodd"/>
<path transform="matrix(1,0,0,-1,0,400)" d="M 322.68 19.87 L 324.03 19.87 L 319.89 6.48 L 318.54 6.48 L 322.68 19.87 Z " fill-rule="evenodd"/>
<path transform="matrix(1,0,0,-1,0,400)" d="M 330.81 19.87 L 332.42 19.87 L 332.42 14.85 L 337.75 19.87 L 339.82 19.87 L 333.92 14.33 L 340.24 7.99 L 338.12 7.99 L 332.42 13.71 L 332.42 7.99 L 330.81 7.99 L 330.81 19.87 Z " fill-rule="evenodd"/>
<path transform="matrix(1,0,0,-1,0,400)" stroke-width="1" stroke-linecap="butt" stroke-linejoin="round" fill="none" stroke="#000000" d="M 55.41 44.21 L 55.41 388.19 "/>
<path transform="matrix(1,0,0,-1,0,400)" stroke-width="1" stroke-linecap="butt" stroke-linejoin="round" fill="none" stroke="#000000" d="M 588.19 44.21 L 588.19 388.19 "/>
<path transform="matrix(1,0,0,-1,0,400)" stroke-width="1" stroke-linecap="butt" stroke-linejoin="round" fill="none" stroke="#000000" d="M 55.41 158.63 L 61.8 158.63 "/>
<path transform="matrix(1,0,0,-1,0,400)" stroke-width="1" stroke-linecap="butt" stroke-linejoin="round" fill="none" stroke="#000000" d="M 55.41 284.46 L 61.8 284.46 "/>
<path transform="matrix(1,0,0,-1,0,400)" d="M 28.73 153.69 L 30.64 153.69 L 30.64 160.28 L 28.57 159.86 L 28.57 160.93 L 30.63 161.34 L 31.8 161.34 L 31.8 153.69 L 33.71 153.69 L 33.71 152.7 L 28.73 152.7 L 28.73 153.69 Z " fill-rule="evenodd"/>
<path transform="matrix(1,0,0,-1,0,400)" d="M 38.57 160.57 C 38.57 160.57 37.67 160.57 37.21 159.68 C 37.21 159.68 36.76 158.8 36.76 157.01 C 36.76 157.01 36.76 155.24 37.21 154.35 C 37.21 154.35 37.67 153.46 38.57 153.46 C 38.57 153.46 39.48 153.46 39.93 154.35 C 39.93 154.35 40.39 155.24 40.39 157.01 C 40.39 157.01 40.39 158.8 39.93 159.68 C 39.93 159.68 39.48 160.57 38.57 160.57 M 38.57 161.5 C 38.57 161.5 40.02 161.5 40.79 160.35 C 40.79 160.35 41.56 159.2 41.56 157.01 C 41.56 157.01 41.56 154.83 40.79 153.68 C 40.79 153.68 40.02 152.54 38.57 152.54 C 38.57 152.54 37.12 152.54 36.35 153.68 C 36.35 153.68 35.58 154.83 35.58 157.01 C 35.58 157.01 35.58 159.2 36.35 160.35 C 36.35 160.35 37.12 161.5 38.57 161.5 Z " fill-rule="evenodd"/>
<path transform="matrix(1,0,0,-1,0,400)" d="M 43.98 165.95 C 43.98 165.95 43.25 165.95 42.88 165.23 C 42.88 165.23 42.51 164.51 42.51 163.06 C 42.51 163.06 42.51 161.62 42.88 160.89 C 42.88 160.89 43.25 160.17 43.98 160.17 C 43.98 160.17 44.72 160.17 45.09 160.89 C 45.09 160.89 45.46 161.62 45.46 163.06 C 45.46 163.06 45.46 164.51 45.09 165.23 C 45.09 165.23 44.72 165.95 43.98 165.95 M 43.98 166.7 C 43.98 166.7 45.16 166.7 45.78 165.77 C 45.78 165.77 46.41 164.84 46.41 163.06 C 46.41 163.06 46.41 161.29 45.78 160.35 C 45.78 160.35 45.16 159.42 43.98 159.42 C 43.98 159.42 42.8 159.42 42.18 160.35 C 42.18 160.35 41.56 161.29 41.56 163.06 C 41.56 163.06 41.56 164.84 42.18 165.77 C 42.18 165.77 42.8 166.7 43.98 166.7 Z " fill-rule="evenodd"/>
<path transform="matrix(1,0,0,-1,0,400)" d="M 29.13 279.51 L 31.04 279.51 L 31.04 286.1 L 28.96 285.69 L 28.96 286.75 L 31.03 287.17 L 32.19 287.17 L 32.19 279.51 L 34.1 279.51 L 34.1 278.53 L 29.13 278.53 L 29.13 279.51 Z " fill-rule="evenodd"/>
<path transform="matrix(1,0,0,-1,0,400)" d="M 38.97 286.4 C 38.97 286.4 38.06 286.4 37.61 285.51 C 37.61 285.51 37.15 284.62 37.15 282.84 C 37.15 282.84 37.15 281.06 37.61 280.17 C 37.61 280.17 38.06 279.29 38.97 279.29 C 38.97 279.29 39.87 279.29 40.33 280.17 C 40.33 280.17 40.78 281.06 40.78 282.84 C 40.78 282.84 40.78 284.62 40.33 285.51 C 40.33 285.51 39.87 286.4 38.97 286.4 M 38.97 287.33 C 38.97 287.33 40.42 287.33 41.18 286.17 C 41.18 286.17 41.95 285.03 41.95 282.84 C 41.95 282.84 41.95 280.66 41.18 279.51 C 41.18 279.51 40.42 278.36 38.97 278.36 C 38.97 278.36 37.51 278.36 36.74 279.51 C 36.74 279.51 35.98 280.66 35.98 282.84 C 35.98 282.84 35.98 285.03 36.74 286.17 C 36.74 286.17 37.51 287.33 38.97 287.33 Z " fill-rule="evenodd"/>
<path transform="matrix(1,0,0,-1,0,400)" d="M 43.09 286.18 L 46.41 286.18 L 46.41 285.38 L 41.95 285.38 L 41.95 286.18 C 41.95 286.18 42.49 286.74 43.42 287.68 C 43.42 287.68 44.36 288.63 44.6 288.9 C 44.6 288.9 45.06 289.41 45.23 289.76 C 45.23 289.76 45.42 290.12 45.42 290.46 C 45.42 290.46 45.42 291.02 45.02 291.38 C 45.02 291.38 44.63 291.73 44 291.73 C 44 291.73 43.56 291.73 43.06 291.57 C 43.06 291.57 42.56 291.42 42 291.1 L 42 292.06 C 42 292.06 42.57 292.29 43.07 292.41 C 43.07 292.41 43.57 292.53 43.98 292.53 C 43.98 292.53 45.07 292.53 45.72 291.98 C 45.72 291.98 46.37 291.44 46.37 290.53 C 46.37 290.53 46.37 290.09 46.21 289.7 C 46.21 289.7 46.05 289.32 45.62 288.79 C 45.62 288.79 45.5 288.65 44.87 288 C 44.87 288 44.24 287.35 43.09 286.18 Z " fill-rule="evenodd"/>
<path transform="matrix(1,0,0,-1,0,400)" d="M 5.44 189.93 L 9.91 189.93 L 9.91 191.96 C 9.91 191.96 9.91 193.08 9.33 193.69 C 9.33 193.69 8.74 194.3 7.67 194.3 C 7.67 194.3 6.6 194.3 6.02 193.69 C 6.02 193.69 5.44 193.08 5.44 191.96 L 5.44 189.93 M 4.12 188.33 L 4.12 191.96 C 4.12 191.96 4.12 193.95 5.03 194.97 C 5.03 194.97 5.93 196 7.67 196 C 7.67 196 9.43 196 10.33 194.97 C 10.33 194.97 11.23 193.95 11.23 191.96 L 11.23 189.93 L 16 189.93 L 16 188.33 L 4.12 188.33 Z " fill-rule="evenodd"/>
<path transform="matrix(1,0,0,-1,0,400)" d="M 4.12 205.87 L 4.12 207.23 L 17.51 203.09 L 17.51 201.73 L 4.12 205.87 Z " fill-rule="evenodd"/>
<path transform="matrix(1,0,0,-1,0,400)" d="M 4.12 214 L 4.12 216.4 L 12.21 219.43 L 4.12 222.48 L 4.12 224.87 L 16 224.87 L 16 223.31 L 5.57 223.31 L 13.72 220.24 L 13.72 218.63 L 5.57 215.56 L 16 215.56 L 16 214 L 4.12 214 Z " fill-rule="evenodd"/>
<path transform="matrix(1,0,0,-1,0,400)" d="M 5.44 229.67 L 9.91 229.67 L 9.91 231.69 C 9.91 231.69 9.91 232.82 9.33 233.43 C 9.33 233.43 8.74 234.04 7.67 234.04 C 7.67 234.04 6.6 234.04 6.02 233.43 C 6.02 233.43 5.44 232.82 5.44 231.69 L 5.44 229.67 M 4.12 228.07 L 4.12 231.69 C 4.12 231.69 4.12 233.69 5.03 234.71 C 5.03 234.71 5.93 235.74 7.67 235.74 C 7.67 235.74 9.43 235.74 10.33 234.71 C 10.33 234.71 11.23 233.69 11.23 231.69 L 11.23 229.67 L 16 229.67 L 16 228.07 L 4.12 228.07 Z " fill-rule="evenodd"/>
<path transform="matrix(1,0,0,-1,0,400)" d="M 11.52 241.15 C 11.52 241.15 11.52 239.37 11.93 238.69 C 11.93 238.69 12.33 238 13.31 238 C 13.31 238 14.09 238 14.55 238.51 C 14.55 238.51 15.01 239.03 15.01 239.91 C 15.01 239.91 15.01 241.13 14.15 241.86 C 14.15 241.86 13.28 242.6 11.85 242.6 L 11.52 242.6 L 11.52 241.15 M 10.92 244.07 L 16 244.07 L 16 242.6 L 14.65 242.6 C 14.65 242.6 15.46 242.1 15.85 241.35 C 15.85 241.35 16.23 240.61 16.23 239.52 C 16.23 239.52 16.23 238.15 15.47 237.34 C 15.47 237.34 14.7 236.54 13.41 236.54 C 13.41 236.54 11.9 236.54 11.14 237.54 C 11.14 237.54 10.38 238.55 10.38 240.55 L 10.38 242.6 L 10.23 242.6 C 10.23 242.6 9.22 242.6 8.67 241.93 C 8.67 241.93 8.12 241.27 8.12 240.07 C 8.12 240.07 8.12 239.31 8.3 238.58 C 8.3 238.58 8.48 237.86 8.85 237.19 L 7.49 237.19 C 7.49 237.19 7.18 238 7.03 238.75 C 7.03 238.75 6.87 239.51 6.87 240.22 C 6.87 240.22 6.87 242.16 7.88 243.11 C 7.88 243.11 8.88 244.07 10.92 244.07 Z " fill-rule="evenodd"/>
<path transform="matrix(1,0,0,-1,0,400)" stroke-width="2" stroke-linecap="butt" stroke-linejoin="round" fill="none" stroke="#000000" d="M 55.41 65.96 L 56.54 66.65 L 58.87 68.06 L 61.2 69.46 L 63.53 70.84 L 65.86 72.22 L 68.2 73.59 L 70.53 74.94 L 72.86 76.29 L 75.19 77.63 L 77.52 78.95 L 79.85 80.27 L 82.18 81.58 L 84.52 82.88 L 86.85 84.16 L 89.18 85.44 L 91.51 86.72 L 93.84 87.98 L 96.17 89.23 L 98.5 90.47 L 100.83 91.71 L 103.17 92.93 L 105.5 94.15 L 107.83 95.36 L 110.16 96.56 L 112.49 97.75 L 114.82 98.94 L 117.15 100.11 L 119.48 101.28 L 121.82 102.44 L 124.15 103.59 L 126.48 104.73 L 128.81 105.87 L 131.14 107 L 133.47 108.12 L 135.8 109.23 L 138.14 110.33 L 140.47 111.43 L 142.8 112.52 L 145.13 113.6 L 147.46 114.68 L 149.79 115.75 L 152.12 116.81 L 154.45 117.86 L 156.79 118.91 L 159.12 119.95 L 161.45 120.98 L 163.78 122.01 L 166.11 123.03 L 168.44 124.04 L 170.77 125.05 L 173.11 126.05 L 175.44 127.04 L 177.77 128.02 L 180.1 129 L 182.43 129.98 L 184.76 130.95 L 187.09 131.91 L 189.42 132.86 L 191.76 133.81 L 194.09 134.75 L 196.42 135.69 L 198.75 136.62 L 201.08 137.54 L 203.41 138.46 L 205.74 139.38 L 208.07 140.28 L 210.41 141.18 L 212.74 142.08 L 215.07 142.97 L 217.4 143.85 L 219.73 144.73 L 222.06 145.61 L 224.39 146.48 L 226.73 147.34 L 229.06 148.2 L 231.39 149.05 L 233.72 149.89 L 236.05 150.74 L 238.38 151.57 L 240.71 152.4 L 243.04 153.23 L 245.38 154.05 L 247.71 154.87 L 250.04 155.68 L 252.37 156.48 L 254.7 157.29 L 257.03 158.08 L 259.36 158.87 L 261.7 159.66 L 264.03 160.44 L 266.36 161.22 L 268.69 161.99 L 271.02 162.76 L 273.35 163.53 L 275.68 164.28 L 278.01 165.04 L 280.35 165.79 L 282.68 166.54 L 285.01 167.28 L 287.34 168.01 L 289.67 168.75 L 292 169.48 L 294.33 170.2 L 296.66 170.92 L 299 171.64 L 301.33 172.35 L 303.66 173.06 L 305.99 173.76 L 308.32 174.46 L 310.65 175.15 L 312.98 175.85 L 315.32 176.53 L 317.65 177.22 L 319.98 177.9 L 322.31 178.57 L 324.64 179.25 L 326.97 179.91 L 329.3 180.58 L 331.63 181.24 L 333.97 181.9 L 336.3 182.55 L 338.63 183.2 L 340.96 183.85 L 343.29 184.49 L 345.62 185.13 L 347.95 185.76 L 350.29 186.4 L 352.62 187.02 L 354.95 187.65 L 357.28 188.27 L 359.61 188.89 L 361.94 189.51 L 364.27 190.12 L 366.6 190.73 L 368.94 191.33 L 371.27 191.93 L 373.6 192.53 L 375.93 193.13 L 378.26 193.72 L 380.59 194.31 L 382.92 194.89 L 385.25 195.48 L 387.59 196.05 L 389.92 196.63 L 392.25 197.2 L 394.58 197.77 L 396.91 198.34 L 399.24 198.91 L 401.57 199.47 L 403.91 200.03 L 406.24 200.58 L 408.57 201.13 L 410.9 201.68 L 413.23 202.23 L 415.56 202.77 L 417.89 203.32 L 420.22 203.85 L 422.56 204.39 L 424.89 204.92 L 427.22 205.45 L 429.55 205.98 L 431.88 206.5 L 434.21 207.03 L 436.54 207.54 L 438.88 208.06 L 441.21 208.58 L 443.54 209.09 L 445.87 209.59 L 448.2 210.1 L 450.53 210.6 L 452.86 211.11 L 455.19 211.6 L 457.53 212.1 L 459.86 212.59 L 462.19 213.08 L 464.52 213.57 L 466.85 214.06 L 469.18 214.54 L 471.51 215.02 L 473.84 215.5 L 476.18 215.98 L 478.51 216.45 L 480.84 216.92 L 483.17 217.39 L 485.5 217.86 L 487.83 218.32 L 490.16 218.78 L 492.5 219.24 L 494.83 219.7 L 497.16 220.16 L 499.49 220.61 L 501.82 221.06 L 504.15 221.51 L 506.48 221.96 L 508.81 222.4 L 511.15 222.84 L 513.48 223.28 "/>
<path transform="matrix(1,0,0,-1,0,400)" stroke-width="2" stroke-linecap="butt" stroke-linejoin="round" fill="none" stroke="#000000" d="M 55.41 57.03 L 57.46 58.1 L 60.1 59.46 L 62.74 60.81 L 65.38 62.15 L 68.01 63.47 L 70.65 64.78 L 73.29 66.08 L 75.93 67.36 L 78.57 68.64 L 81.21 69.9 L 83.84 71.16 L 86.48 72.4 L 89.12 73.63 L 91.76 74.84 L 94.4 76.05 L 97.04 77.25 L 99.68 78.44 L 102.31 79.61 L 104.95 80.78 L 107.59 81.93 L 110.23 83.08 L 112.87 84.22 L 115.51 85.34 L 118.14 86.46 L 120.78 87.57 L 123.42 88.66 L 126.06 89.75 L 128.7 90.83 L 131.34 91.9 L 133.97 92.96 L 136.61 94.02 L 139.25 95.06 L 141.89 96.1 L 144.53 97.12 L 147.17 98.14 L 149.8 99.15 L 152.44 100.15 L 155.08 101.15 L 157.72 102.13 L 160.36 103.11 L 163 104.08 L 165.64 105.05 L 168.27 106 L 170.91 106.95 L 173.55 107.89 L 176.19 108.82 L 178.83 109.75 L 181.47 110.67 L 184.1 111.58 L 186.74 112.49 L 189.38 113.38 L 192.02 114.28 L 194.66 115.16 L 197.3 116.04 L 199.93 116.91 L 202.57 117.78 L 205.21 118.63 L 207.85 119.49 L 210.49 120.33 L 213.13 121.17 L 215.76 122.01 L 218.4 122.84 L 221.04 123.66 L 223.68 124.47 L 226.32 125.29 L 228.96 126.09 L 231.6 126.89 L 234.23 127.68 L 236.87 128.47 L 239.51 129.25 L 242.15 130.03 L 244.79 130.8 L 247.43 131.57 L 250.06 132.33 L 252.7 133.09 L 255.34 133.84 L 257.98 134.58 L 260.62 135.33 L 263.26 136.06 L 265.89 136.79 L 268.53 137.52 L 271.17 138.24 L 273.81 138.96 L 276.45 139.67 L 279.09 140.38 L 281.73 141.08 L 284.36 141.78 L 287 142.48 L 289.64 143.16 L 292.28 143.85 L 294.92 144.53 L 297.56 145.21 L 300.19 145.88 L 302.83 146.55 L 305.47 147.21 L 308.11 147.88 L 310.75 148.53 L 313.39 149.18 L 316.02 149.83 L 318.66 150.48 L 321.3 151.12 L 323.94 151.75 L 326.58 152.39 L 329.22 153.02 L 331.85 153.64 L 334.49 154.27 L 337.13 154.88 L 339.77 155.5 L 342.41 156.11 L 345.05 156.72 L 347.69 157.32 L 350.32 157.92 L 352.96 158.52 L 355.6 159.12 L 358.24 159.71 L 360.88 160.29 L 363.52 160.88 L 366.15 161.46 L 368.79 162.04 L 371.43 162.61 L 374.07 163.18 L 376.71 163.75 L 379.35 164.32 L 381.98 164.88 L 384.62 165.44 L 387.26 166 L 389.9 166.55 L 392.54 167.1 L 395.18 167.65 L 397.82 168.2 L 400.45 168.74 L 403.09 169.28 L 405.73 169.81 L 408.37 170.35 L 411.01 170.88 L 413.65 171.41 L 416.28 171.94 L 418.92 172.46 L 421.56 172.98 L 424.2 173.5 L 426.84 174.01 L 429.48 174.53 L 432.11 175.04 L 434.75 175.55 L 437.39 176.05 L 440.03 176.56 L 442.67 177.06 L 445.31 177.56 L 447.94 178.06 L 450.58 178.55 L 453.22 179.04 L 455.86 179.53 L 458.5 180.02 L 461.14 180.51 L 463.78 180.99 L 466.41 181.47 L 469.05 181.95 L 471.69 182.43 L 474.33 182.9 L 476.97 183.38 L 479.61 183.85 L 482.24 184.32 L 484.88 184.78 L 487.52 185.25 L 490.16 185.71 L 492.8 186.17 L 495.44 186.63 L 498.07 187.09 L 500.71 187.55 L 503.35 188 L 505.99 188.45 L 508.63 188.91 L 511.27 189.35 L 513.9 189.8 L 516.54 190.25 L 519.18 190.69 L 521.82 191.13 L 524.46 191.57 L 527.1 192.01 L 529.74 192.45 L 532.37 192.89 L 535.01 193.32 L 537.65 193.75 L 540.29 194.18 L 542.93 194.61 L 545.57 195.04 L 548.2 195.47 L 550.84 195.9 L 553.48 196.32 L 556.12 196.74 L 558.76 197.17 L 561.4 197.59 L 564.03 198.01 L 566.67 198.42 L 569.31 198.84 L 571.95 199.26 L 574.59 199.67 "/>
<path transform="matrix(1,0,0,-1,0,400)" stroke-width="2" stroke-linecap="butt" stroke-linejoin="round" fill="none" stroke="#0000ff" d="M 55.41 78.73 L 55.45 78.76 L 55.55 78.81 L 55.64 78.86 L 55.74 78.91 L 55.83 78.97 L 55.93 79.02 L 56.02 79.07 L 56.12 79.13 L 56.21 79.18 L 56.31 79.23 L 56.4 79.28 L 56.5 79.34 L 56.59 79.39 L 56.69 79.44 L 56.78 79.49 L 56.88 79.55 L 56.97 79.6 L 57.07 79.65 L 57.16 79.7 L 57.26 79.76 L 57.35 79.81 L 57.45 79.86 L 57.55 79.91 L 57.64 79.97 L 57.74 80.02 L 57.83 80.07 L 57.93 80.12 L 58.02 80.18 L 58.12 80.23 L 58.21 80.28 L 58.31 80.33 L 58.4 80.39 L 58.5 80.44 L 58.59 80.49 L 58.69 80.54 L 58.78 80.6 L 58.88 80.65 L 58.97 80.7 L 59.07 80.75 L 59.16 80.8 L 59.26 80.86 L 59.35 80.91 L 59.45 80.96 L 59.55 81.01 L 59.64 81.06 L 59.74 81.12 L 59.83 81.17 L 59.93 81.22 L 60.02 81.27 L 60.12 81.32 L 60.21 81.38 L 60.31 81.43 L 60.4 81.48 L 60.5 81.53 L 60.59 81.58 L 60.69 81.64 L 60.78 81.69 L 60.88 81.74 L 60.97 81.79 L 61.07 81.84 L 61.16 81.9 L 61.26 81.95 L 61.35 82 L 61.45 82.05 L 61.54 82.1 L 61.64 82.15 L 61.74 82.21 L 61.83 82.26 L 61.93 82.31 L 62.02 82.36 L 62.12 82.41 L 62.21 82.46 L 62.31 82.52 L 62.4 82.57 L 62.5 82.62 L 62.59 82.67 L 62.69 82.72 L 62.78 82.77 L 62.88 82.82 L 62.97 82.88 L 63.07 82.93 L 63.16 82.98 L 63.26 83.03 L 63.35 83.08 L 63.45 83.13 L 63.54 83.18 L 63.64 83.24 L 63.74 83.29 L 63.83 83.34 L 63.93 83.39 L 64.02 83.44 L 64.12 83.49 L 64.21 83.54 L 64.31 83.59 L 64.4 83.65 L 64.5 83.7 L 64.59 83.75 L 64.69 83.8 L 64.78 83.85 L 64.88 83.9 L 64.97 83.95 L 65.07 84 L 65.16 84.05 L 65.26 84.11 L 65.35 84.16 L 65.45 84.21 L 65.54 84.26 L 65.64 84.31 L 65.74 84.36 L 65.83 84.41 L 65.93 84.46 L 66.02 84.51 L 66.12 84.56 L 66.21 84.61 L 66.31 84.67 L 66.4 84.72 L 66.5 84.77 L 66.59 84.82 L 66.69 84.87 L 66.78 84.92 L 66.88 84.97 L 66.97 85.02 L 67.07 85.07 L 67.16 85.12 L 67.26 85.17 L 67.35 85.22 L 67.45 85.27 L 67.54 85.32 L 67.64 85.38 L 67.74 85.43 L 67.83 85.48 L 67.93 85.53 L 68.02 85.58 L 68.12 85.63 L 68.21 85.68 L 68.31 85.73 L 68.4 85.78 L 68.5 85.83 "/>
<path transform="matrix(1,0,0,-1,0,400)" stroke-width="2" stroke-linecap="butt" stroke-linejoin="round" fill="none" stroke="#ff0000" d="M 574.59 199.67 L 573.66 199.92 L 572.73 200.17 L 571.8 200.41 L 570.86 200.65 L 569.93 200.88 L 568.98 201.11 L 568.04 201.34 L 567.09 201.57 L 566.14 201.79 L 565.19 202.01 L 564.24 202.23 L 563.28 202.44 L 562.32 202.65 L 561.36 202.86 L 560.39 203.06 L 559.43 203.26 L 558.46 203.46 L 557.49 203.65 L 556.51 203.85 L 555.54 204.03 L 554.57 204.22 L 553.59 204.4 L 552.61 204.58 L 551.63 204.76 L 550.65 204.93 L 549.67 205.1 L 548.68 205.27 L 547.7 205.44 L 546.72 205.6 L 545.73 205.76 L 544.75 205.92 L 543.76 206.07 L 542.78 206.22 L 541.79 206.37 L 540.81 206.52 L 539.82 206.66 L 538.84 206.8 L 537.85 206.94 L 536.87 207.07 L 535.89 207.21 L 534.9 207.34 L 533.92 207.46 L 532.95 207.59 L 531.97 207.71 L 530.99 207.83 L 530.02 207.95 L 529.05 208.07 L 528.08 208.18 L 527.11 208.29 L 526.14 208.4 L 525.18 208.51 L 524.22 208.61 L 523.27 208.71 L 522.31 208.81 L 521.36 208.91 L 520.42 209.01 L 519.48 209.1 L 518.54 209.19 L 517.6 209.28 L 516.67 209.37 L 515.74 209.45 L 514.82 209.54 L 513.91 209.62 L 512.99 209.7 L 512.09 209.78 L 511.19 209.86 L 510.29 209.93 L 509.4 210.01 L 508.51 210.08 L 507.63 210.15 L 506.76 210.22 L 505.89 210.29 L 505.03 210.35 L 504.18 210.42 L 503.33 210.48 L 502.49 210.54 L 501.66 210.61 L 500.83 210.67 L 500.01 210.73 L 499.2 210.78 L 498.4 210.84 L 497.6 210.9 L 496.82 210.95 L 496.04 211.01 L 495.27 211.06 L 494.51 211.11 L 493.75 211.16 L 493.01 211.22 L 492.27 211.27 L 491.55 211.32 L 490.83 211.37 L 490.12 211.42 L 489.43 211.47 L 488.74 211.51 L 488.06 211.56 L 487.4 211.61 L 486.74 211.66 L 486.1 211.71 L 485.47 211.75 L 484.84 211.8 L 484.23 211.85 L 483.63 211.9 L 483.04 211.94 L 482.47 211.99 L 481.9 212.04 L 481.35 212.09 L 480.81 212.13 L 480.29 212.18 L 479.77 212.23 L 479.27 212.28 L 478.79 212.33 L 478.31 212.38 L 477.85 212.43 L 477.41 212.49 L 476.98 212.54 L 476.56 212.59 L 476.16 212.65 L 475.77 212.7 L 475.4 212.76 L 475.04 212.81 L 474.7 212.87 L 474.37 212.93 L 474.06 212.99 L 473.77 213.05 L 473.49 213.11 L 473.23 213.17 L 472.99 213.24 L 472.77 213.3 L 472.56 213.37 L 472.37 213.44 L 472.19 213.51 L 472.04 213.58 L 471.9 213.65 L 471.78 213.73 L 471.68 213.8 L 471.6 213.88 L 471.54 213.96 L 471.5 214.04 L 471.47 214.12 L 471.47 214.21 L 471.49 214.29 L 471.53 214.38 L 471.58 214.47 L 471.66 214.56 L 471.76 214.66 L 471.88 214.75 L 472.02 214.85 L 472.19 214.95 L 472.37 215.05 L 472.58 215.16 L 472.81 215.27 L 473.06 215.37 L 473.33 215.49 L 473.63 215.6 L 473.95 215.72 L 474.29 215.83 L 474.65 215.95 L 475.04 216.08 L 475.46 216.2 L 475.89 216.33 L 476.35 216.46 L 476.84 216.59 L 477.35 216.73 L 477.88 216.87 L 478.44 217.01 L 479.02 217.15 L 479.63 217.29 L 480.26 217.44 L 480.92 217.59 L 481.61 217.74 L 482.32 217.9 L 483.05 218.06 L 483.81 218.22 L 484.6 218.38 L 485.42 218.55 L 486.26 218.72 L 487.13 218.89 L 488.03 219.06 L 488.95 219.24 L 489.9 219.42 L 490.88 219.6 L 491.89 219.78 L 492.92 219.97 L 493.98 220.16 L 495.08 220.35 L 496.2 220.54 L 497.35 220.74 L 498.52 220.94 L 499.73 221.14 L 500.97 221.34 L 502.24 221.55 L 503.53 221.76 L 504.86 221.97 L 506.22 222.18 L 507.61 222.4 L 509.03 222.62 L 510.48 222.84 L 511.96 223.06 L 513.48 223.28 "/>
<path transform="matrix(1,0,0,-1,0,400)" stroke-width="2" stroke-linecap="butt" stroke-linejoin="round" fill="none" stroke="#800080" d="M 69.17 86.18 L 71.28 87.3 L 73.39 88.4 L 75.5 89.5 L 77.61 90.59 L 79.72 91.67 L 81.83 92.75 L 83.95 93.81 L 86.06 94.88 L 88.17 95.93 L 90.28 96.98 L 92.39 98.02 L 94.5 99.05 L 96.61 100.08 L 98.73 101.1 L 100.84 102.11 L 102.95 103.12 L 105.06 104.12 L 107.17 105.11 L 109.28 106.1 L 111.39 107.08 L 113.51 108.05 L 115.62 109.02 L 117.73 109.99 L 119.84 110.94 L 121.95 111.89 L 124.06 112.84 L 126.17 113.78 L 128.29 114.71 L 130.4 115.64 L 132.51 116.56 L 134.62 117.47 L 136.73 118.38 L 138.84 119.29 L 140.95 120.19 L 143.07 121.08 L 145.18 121.97 L 147.29 122.85 L 149.4 123.73 L 151.51 124.6 L 153.62 125.47 L 155.73 126.33 L 157.85 127.19 L 159.96 128.04 L 162.07 128.89 L 164.18 129.73 L 166.29 130.57 L 168.4 131.4 L 170.51 132.23 L 172.63 133.05 L 174.74 133.87 L 176.85 134.68 L 178.96 135.49 L 181.07 136.3 L 183.18 137.1 L 185.29 137.89 L 187.41 138.68 L 189.52 139.47 L 191.63 140.25 L 193.74 141.03 L 195.85 141.8 L 197.96 142.57 L 200.07 143.33 L 202.19 144.09 L 204.3 144.85 L 206.41 145.6 L 208.52 146.35 L 210.63 147.09 L 212.74 147.83 L 214.85 148.57 L 216.97 149.3 L 219.08 150.03 L 221.19 150.75 L 223.3 151.47 L 225.41 152.19 L 227.52 152.9 L 229.63 153.61 L 231.75 154.31 L 233.86 155.01 L 235.97 155.71 L 238.08 156.41 L 240.19 157.1 L 242.3 157.78 L 244.41 158.47 L 246.53 159.15 L 248.64 159.82 L 250.75 160.49 L 252.86 161.16 L 254.97 161.83 L 257.08 162.49 L 259.19 163.15 L 261.31 163.81 L 263.42 164.46 L 265.53 165.11 L 267.64 165.75 L 269.75 166.4 L 271.86 167.04 L 273.97 167.67 L 276.09 168.3 L 278.2 168.93 L 280.31 169.56 L 282.42 170.19 L 284.53 170.81 L 286.64 171.42 L 288.75 172.04 L 290.87 172.65 L 292.98 173.26 L 295.09 173.86 L 297.2 174.47 L 299.31 175.07 L 301.42 175.66 L 303.53 176.26 L 305.65 176.85 L 307.76 177.44 L 309.87 178.02 L 311.98 178.61 L 314.09 179.19 L 316.2 179.76 L 318.31 180.34 L 320.43 180.91 L 322.54 181.48 L 324.65 182.05 L 326.76 182.61 L 328.87 183.17 L 330.98 183.73 L 333.09 184.29 L 335.21 184.84 L 337.32 185.39 L 339.43 185.94 L 341.54 186.49 L 343.65 187.03 L 345.76 187.57 L 347.87 188.11 L 349.99 188.65 L 352.1 189.18 L 354.21 189.71 L 356.32 190.24 L 358.43 190.77 L 360.54 191.29 L 362.65 191.81 L 364.77 192.33 L 366.88 192.85 L 368.99 193.37 L 371.1 193.88 L 373.21 194.39 L 375.32 194.9 L 377.43 195.4 L 379.55 195.91 L 381.66 196.41 L 383.77 196.91 L 385.88 197.4 L 387.99 197.9 L 390.1 198.39 L 392.21 198.88 L 394.33 199.37 L 396.44 199.86 L 398.55 200.34 L 400.66 200.82 L 402.77 201.3 L 404.88 201.78 L 406.99 202.26 L 409.11 202.73 L 411.22 203.2 L 413.33 203.67 L 415.44 204.14 L 417.55 204.6 L 419.66 205.07 L 421.77 205.53 L 423.89 205.99 L 426 206.45 L 428.11 206.9 L 430.22 207.36 L 432.33 207.81 L 434.44 208.26 L 436.55 208.71 L 438.67 209.15 L 440.78 209.6 L 442.89 210.04 L 445 210.48 L 447.11 210.92 L 449.22 211.35 L 451.33 211.79 L 453.45 212.22 L 455.56 212.65 L 457.67 213.08 L 459.78 213.51 L 461.89 213.94 L 464 214.36 L 466.11 214.78 L 468.23 215.2 L 470.34 215.62 L 472.45 216.04 L 474.56 216.45 L 476.67 216.87 L 478.78 217.28 L 480.89 217.69 L 483.01 218.1 L 485.12 218.5 L 487.23 218.91 L 489.34 219.31 "/>
<path transform="matrix(1,0,0,-1,0,400)" stroke-width="2" stroke-linecap="butt" stroke-linejoin="round" fill="none" stroke="#008000" d="M 69.17 86.18 L 71.85 195.11 L 74.54 214.3 L 77.23 225.8 L 79.92 234.13 L 82.61 240.7 L 85.3 246.16 L 87.99 250.86 L 90.68 254.98 L 93.37 258.68 L 96.05 262.04 L 98.74 265.11 L 101.43 267.96 L 104.12 270.61 L 106.81 273.09 L 109.5 275.43 L 112.19 277.64 L 114.88 279.75 L 117.56 281.75 L 120.25 283.66 L 122.94 285.49 L 125.63 287.25 L 128.32 288.94 L 131.01 290.56 L 133.7 292.14 L 136.39 293.65 L 139.08 295.12 L 141.76 296.54 L 144.45 297.92 L 147.14 299.26 L 149.83 300.56 L 152.52 301.83 L 155.21 303.06 L 157.9 304.26 L 160.59 305.42 L 163.27 306.56 L 165.96 307.67 L 168.65 308.76 L 171.34 309.82 L 174.03 310.85 L 176.72 311.86 L 179.41 312.85 L 182.1 313.82 L 184.78 314.77 L 187.47 315.7 L 190.16 316.61 L 192.85 317.5 L 195.54 318.37 L 198.23 319.23 L 200.92 320.07 L 203.61 320.89 L 206.3 321.7 L 208.98 322.49 L 211.67 323.27 L 214.36 324.04 L 217.05 324.79 L 219.74 325.53 L 222.43 326.26 L 225.12 326.98 L 227.81 327.68 L 230.49 328.37 L 233.18 329.05 L 235.87 329.72 L 238.56 330.38 L 241.25 331.03 L 243.94 331.67 L 246.63 332.3 L 249.32 332.92 L 252 333.53 L 254.69 334.13 L 257.38 334.73 L 260.07 335.31 L 262.76 335.89 L 265.45 336.46 L 268.14 337.02 L 270.83 337.57 L 273.52 338.12 L 276.2 338.66 L 278.89 339.19 L 281.58 339.72 L 284.27 340.24 L 286.96 340.75 L 289.65 341.26 L 292.34 341.76 L 295.03 342.25 L 297.71 342.74 L 300.4 343.23 L 303.09 343.7 L 305.78 344.17 L 308.47 344.64 L 311.16 345.1 L 313.85 345.56 L 316.54 346.01 L 319.23 346.46 L 321.91 346.9 L 324.6 347.34 L 327.29 347.77 L 329.98 348.2 L 332.67 348.62 L 335.36 349.04 L 338.05 349.46 L 340.74 349.87 L 343.42 350.28 L 346.11 350.68 L 348.8 351.08 L 351.49 351.47 L 354.18 351.87 L 356.87 352.25 L 359.56 352.64 L 362.25 353.02 L 364.93 353.4 L 367.62 353.77 L 370.31 354.15 L 373 354.51 L 375.69 354.88 L 378.38 355.24 L 381.07 355.6 L 383.76 355.96 L 386.45 356.31 L 389.13 356.66 L 391.82 357.01 L 394.51 357.35 L 397.2 357.7 L 399.89 358.04 L 402.58 358.37 L 405.27 358.71 L 407.96 359.04 L 410.64 359.37 L 413.33 359.69 L 416.02 360.02 L 418.71 360.34 L 421.4 360.66 L 424.09 360.98 L 426.78 361.29 L 429.47 361.61 L 432.16 361.92 L 434.84 362.22 L 437.53 362.53 L 440.22 362.84 L 442.91 363.14 L 445.6 363.44 L 448.29 363.74 L 450.98 364.03 L 453.67 364.33 L 456.35 364.62 L 459.04 364.91 L 461.73 365.2 L 464.42 365.49 L 467.11 365.77 L 469.8 366.06 L 472.49 366.34 L 475.18 366.62 L 477.86 366.9 L 480.55 367.17 L 483.24 367.45 L 485.93 367.72 L 488.62 368 L 491.31 368.27 L 494 368.54 L 496.69 368.8 L 499.38 369.07 L 502.06 369.33 L 504.75 369.6 L 507.44 369.86 L 510.13 370.12 L 512.82 370.38 L 515.51 370.63 L 518.2 370.89 L 520.89 371.14 L 523.57 371.4 L 526.26 371.65 L 528.95 371.9 L 531.64 372.15 L 534.33 372.4 L 537.02 372.65 L 539.71 372.89 L 542.4 373.14 L 545.09 373.38 L 547.77 373.62 L 550.46 373.86 L 553.15 374.1 L 555.84 374.34 L 558.53 374.58 L 561.22 374.81 L 563.91 375.05 L 566.6 375.28 L 569.28 375.52 L 571.97 375.75 L 574.66 375.98 L 577.35 376.21 L 580.04 376.44 L 582.73 376.67 L 585.42 376.89 L 588.11 377.12 L 588.19 377.13 "/>
<path transform="matrix(1,0,0,-1,0,400)" d="M 65.17 90.18 L 65.17 82.18 L 73.17 82.18 L 73.17 90.18 L 65.17 90.18 Z " fill="#ffffff" fill-rule="evenodd"/>
<path transform="matrix(1,0,0,-1,0,400)" stroke-width=".8" stroke-linecap="butt" stroke-linejoin="round" fill="none" stroke="#000000" d="M 65.17 90.18 L 65.17 82.18 L 73.17 82.18 L 73.17 90.18 L 65.17 90.18 Z "/>
<path transform="matrix(1,0,0,-1,0,400)" d="M 513.48 227.28 L 509.48 219.28 L 517.48 219.28 L 513.48 227.28 Z " fill="#ffffff" fill-rule="evenodd"/>
<path transform="matrix(1,0,0,-1,0,400)" stroke-width=".8" stroke-linecap="butt" stroke-linejoin="round" fill="none" stroke="#000000" d="M 513.48 227.28 L 509.48 219.28 L 517.48 219.28 L 513.48 227.28 Z "/>
<path transform="matrix(1,0,0,-1,0,400)" d="M 574.59 203.67 L 570.59 195.67 L 578.59 195.67 L 574.59 203.67 Z " fill="#ffffff" fill-rule="evenodd"/>
<path transform="matrix(1,0,0,-1,0,400)" stroke-width=".8" stroke-linecap="butt" stroke-linejoin="round" fill="none" stroke="#000000" d="M 574.59 203.67 L 570.59 195.67 L 578.59 195.67 L 574.59 203.67 Z "/>
<clipPath id="cp3">
<path transform="matrix(1,0,0,-1,0,400)" d="M 0 0 L 600 0 L 600 600 L 0 600 Z "/>
</clipPath>
<g clip-path="url(#cp3)">
<path transform="matrix(1,0,0,-1,0,400)" d="M 442.12 55.67 L 570.43 55.67 L 570.43 159.35 L 442.12 159.35 " fill="#ffffff" fill-rule="evenodd"/>
</g>
<path transform="matrix(1,0,0,-1,0,400)" stroke-width="1" stroke-linecap="butt" stroke-linejoin="round" fill="none" stroke="#000000" d="M 442.12 55.67 L 570.43 55.67 L 570.43 159.35 L 442.12 159.35 L 442.12 55.67 "/>
<path transform="matrix(1,0,0,-1,0,400)" stroke-width="1" stroke-linecap="butt" stroke-linejoin="round" fill="none" stroke="#000000" d="M 448.04 146.39 L 483.56 146.39 "/>
<path transform="matrix(1,0,0,-1,0,400)" d="M 495.04 150.43 L 495.04 149.29 C 495.04 149.29 494.37 149.61 493.78 149.76 C 493.78 149.76 493.19 149.92 492.64 149.92 C 492.64 149.92 491.69 149.92 491.17 149.55 C 491.17 149.55 490.65 149.18 490.65 148.49 C 490.65 148.49 490.65 147.92 490.99 147.63 C 490.99 147.63 491.34 147.34 492.3 147.16 L 493.01 147.01 C 493.01 147.01 494.31 146.76 494.93 146.13 C 494.93 146.13 495.56 145.51 495.56 144.46 C 495.56 144.46 495.56 143.2 494.71 142.55 C 494.71 142.55 493.87 141.9 492.25 141.9 C 492.25 141.9 491.63 141.9 490.94 142.04 C 490.94 142.04 490.25 142.18 489.51 142.45 L 489.51 143.66 C 489.51 143.66 490.22 143.26 490.91 143.05 C 490.91 143.05 491.59 142.85 492.25 142.85 C 492.25 142.85 493.25 142.85 493.79 143.25 C 493.79 143.25 494.34 143.64 494.34 144.37 C 494.34 144.37 494.34 145.01 493.94 145.36 C 493.94 145.36 493.56 145.72 492.66 145.9 L 491.95 146.04 C 491.95 146.04 490.64 146.3 490.06 146.86 C 490.06 146.86 489.48 147.41 489.48 148.4 C 489.48 148.4 489.48 149.55 490.28 150.21 C 490.28 150.21 491.09 150.87 492.51 150.87 C 492.51 150.87 493.12 150.87 493.75 150.76 C 493.75 150.76 494.38 150.65 495.04 150.43 Z " fill-rule="evenodd"/>
<path transform="matrix(1,0,0,-1,0,400)" d="M 500.28 145.33 C 500.28 145.33 498.99 145.33 498.49 145.03 C 498.49 145.03 497.99 144.74 497.99 144.03 C 497.99 144.03 497.99 143.46 498.36 143.12 C 498.36 143.12 498.74 142.79 499.38 142.79 C 499.38 142.79 500.27 142.79 500.8 143.42 C 500.8 143.42 501.34 144.05 501.34 145.09 L 501.34 145.33 L 500.28 145.33 M 502.4 145.77 L 502.4 142.07 L 501.34 142.07 L 501.34 143.05 C 501.34 143.05 500.97 142.46 500.43 142.18 C 500.43 142.18 499.89 141.9 499.1 141.9 C 499.1 141.9 498.1 141.9 497.51 142.46 C 497.51 142.46 496.93 143.02 496.93 143.96 C 496.93 143.96 496.93 145.05 497.66 145.61 C 497.66 145.61 498.39 146.16 499.85 146.16 L 501.34 146.16 L 501.34 146.27 C 501.34 146.27 501.34 147 500.85 147.4 C 500.85 147.4 500.37 147.81 499.5 147.81 C 499.5 147.81 498.94 147.81 498.42 147.67 C 498.42 147.67 497.89 147.54 497.4 147.27 L 497.4 148.26 C 497.4 148.26 497.99 148.48 498.54 148.59 C 498.54 148.59 499.09 148.71 499.61 148.71 C 499.61 148.71 501.02 148.71 501.71 147.98 C 501.71 147.98 502.4 147.25 502.4 145.77 Z " fill-rule="evenodd"/>
<path transform="matrix(1,0,0,-1,0,400)" d="M 505.65 150.39 L 505.65 148.55 L 507.84 148.55 L 507.84 147.73 L 505.65 147.73 L 505.65 144.21 C 505.65 144.21 505.65 143.41 505.86 143.19 C 505.86 143.19 506.08 142.96 506.75 142.96 L 507.84 142.96 L 507.84 142.07 L 506.75 142.07 C 506.75 142.07 505.52 142.07 505.05 142.53 C 505.05 142.53 504.58 142.99 504.58 144.21 L 504.58 147.73 L 503.8 147.73 L 503.8 148.55 L 504.58 148.55 L 504.58 150.39 L 505.65 150.39 Z " fill-rule="evenodd"/>
<path transform="matrix(1,0,0,-1,0,400)" d="M 509.13 144.63 L 509.13 148.55 L 510.2 148.55 L 510.2 144.67 C 510.2 144.67 510.2 143.75 510.56 143.29 C 510.56 143.29 510.92 142.83 511.63 142.83 C 511.63 142.83 512.5 142.83 512.99 143.38 C 512.99 143.38 513.5 143.93 513.5 144.88 L 513.5 148.55 L 514.56 148.55 L 514.56 142.07 L 513.5 142.07 L 513.5 143.07 C 513.5 143.07 513.11 142.48 512.59 142.19 C 512.59 142.19 512.09 141.9 511.41 141.9 C 511.41 141.9 510.29 141.9 509.71 142.6 C 509.71 142.6 509.13 143.29 509.13 144.63 M 511.81 148.71 L 511.81 148.71 Z " fill-rule="evenodd"/>
<path transform="matrix(1,0,0,-1,0,400)" d="M 520.51 147.56 C 520.51 147.56 520.33 147.66 520.12 147.71 C 520.12 147.71 519.91 147.76 519.66 147.76 C 519.66 147.76 518.75 147.76 518.27 147.17 C 518.27 147.17 517.79 146.59 517.79 145.49 L 517.79 142.07 L 516.72 142.07 L 516.72 148.55 L 517.79 148.55 L 517.79 147.55 C 517.79 147.55 518.12 148.14 518.66 148.42 C 518.66 148.42 519.2 148.71 519.97 148.71 C 519.97 148.71 520.08 148.71 520.21 148.69 C 520.21 148.69 520.34 148.68 520.51 148.65 L 520.51 147.56 Z " fill-rule="evenodd"/>
<path transform="matrix(1,0,0,-1,0,400)" d="M 524.57 145.33 C 524.57 145.33 523.28 145.33 522.79 145.03 C 522.79 145.03 522.29 144.74 522.29 144.03 C 522.29 144.03 522.29 143.46 522.66 143.12 C 522.66 143.12 523.03 142.79 523.68 142.79 C 523.68 142.79 524.56 142.79 525.09 143.42 C 525.09 143.42 525.63 144.05 525.63 145.09 L 525.63 145.33 L 524.57 145.33 M 526.7 145.77 L 526.7 142.07 L 525.63 142.07 L 525.63 143.05 C 525.63 143.05 525.27 142.46 524.72 142.18 C 524.72 142.18 524.18 141.9 523.39 141.9 C 523.39 141.9 522.4 141.9 521.81 142.46 C 521.81 142.46 521.22 143.02 521.22 143.96 C 521.22 143.96 521.22 145.05 521.95 145.61 C 521.95 145.61 522.69 146.16 524.14 146.16 L 525.63 146.16 L 525.63 146.27 C 525.63 146.27 525.63 147 525.15 147.4 C 525.15 147.4 524.67 147.81 523.79 147.81 C 523.79 147.81 523.24 147.81 522.71 147.67 C 522.71 147.67 522.18 147.54 521.7 147.27 L 521.7 148.26 C 521.7 148.26 522.28 148.48 522.83 148.59 C 522.83 148.59 523.38 148.71 523.9 148.71 C 523.9 148.71 525.31 148.71 526 147.98 C 526 147.98 526.7 147.25 526.7 145.77 Z " fill-rule="evenodd"/>
<path transform="matrix(1,0,0,-1,0,400)" d="M 529.94 150.39 L 529.94 148.55 L 532.14 148.55 L 532.14 147.73 L 529.94 147.73 L 529.94 144.21 C 529.94 144.21 529.94 143.41 530.16 143.19 C 530.16 143.19 530.38 142.96 531.04 142.96 L 532.14 142.96 L 532.14 142.07 L 531.04 142.07 C 531.04 142.07 529.81 142.07 529.34 142.53 C 529.34 142.53 528.87 142.99 528.87 144.21 L 528.87 147.73 L 528.09 147.73 L 528.09 148.55 L 528.87 148.55 L 528.87 150.39 L 529.94 150.39 Z " fill-rule="evenodd"/>
<path transform="matrix(1,0,0,-1,0,400)" d="M 533.54 148.55 L 534.6 148.55 L 534.6 142.07 L 533.54 142.07 L 533.54 148.55 M 533.54 151.08 L 534.6 151.08 L 534.6 149.73 L 533.54 149.73 L 533.54 151.08 Z " fill-rule="evenodd"/>
<path transform="matrix(1,0,0,-1,0,400)" d="M 539.34 147.81 C 539.34 147.81 538.49 147.81 537.99 147.13 C 537.99 147.13 537.49 146.47 537.49 145.31 C 537.49 145.31 537.49 144.14 537.98 143.47 C 537.98 143.47 538.48 142.81 539.34 142.81 C 539.34 142.81 540.19 142.81 540.69 143.48 C 540.69 143.48 541.19 144.15 541.19 145.31 C 541.19 145.31 541.19 146.46 540.69 147.13 C 540.69 147.13 540.19 147.81 539.34 147.81 M 539.34 148.71 C 539.34 148.71 540.73 148.71 541.52 147.81 C 541.52 147.81 542.32 146.9 542.32 145.31 C 542.32 145.31 542.32 143.71 541.52 142.81 C 541.52 142.81 540.73 141.9 539.34 141.9 C 539.34 141.9 537.95 141.9 537.16 142.81 C 537.16 142.81 536.37 143.71 536.37 145.31 C 536.37 145.31 536.37 146.9 537.16 147.81 C 537.16 147.81 537.95 148.71 539.34 148.71 Z " fill-rule="evenodd"/>
<path transform="matrix(1,0,0,-1,0,400)" d="M 549.47 145.98 L 549.47 142.07 L 548.4 142.07 L 548.4 145.95 C 548.4 145.95 548.4 146.87 548.05 147.33 C 548.05 147.33 547.69 147.78 546.97 147.78 C 546.97 147.78 546.11 147.78 545.61 147.23 C 545.61 147.23 545.11 146.68 545.11 145.73 L 545.11 142.07 L 544.04 142.07 L 544.04 148.55 L 545.11 148.55 L 545.11 147.55 C 545.11 147.55 545.49 148.13 546.01 148.42 C 546.01 148.42 546.53 148.71 547.21 148.71 C 547.21 148.71 548.32 148.71 548.9 148.01 C 548.9 148.01 549.47 147.33 549.47 145.98 Z " fill-rule="evenodd"/>
<path transform="matrix(1,0,0,-1,0,400)" stroke-width="1" stroke-linecap="butt" stroke-linejoin="round" fill="none" stroke="#0000ff" d="M 448.04 133.43 L 483.56 133.43 "/>
<path transform="matrix(1,0,0,-1,0,400)" d="M 492.77 129.11 L 489.48 137.75 L 490.7 137.75 L 493.43 130.48 L 496.18 137.75 L 497.39 137.75 L 494.1 129.11 L 492.77 129.11 Z " fill-rule="evenodd"/>
<path transform="matrix(1,0,0,-1,0,400)" d="M 498.65 137.75 L 499.82 137.75 L 499.82 130.09 L 504.03 130.09 L 504.03 129.11 L 498.65 129.11 L 498.65 137.75 Z " fill-rule="evenodd"/>
<path transform="matrix(1,0,0,-1,0,400)" d="M 505.26 137.75 L 506.43 137.75 L 506.43 130.09 L 510.63 130.09 L 510.63 129.11 L 505.26 129.11 L 505.26 137.75 Z " fill-rule="evenodd"/>
<path transform="matrix(1,0,0,-1,0,400)" d="M 511.86 137.75 L 517.32 137.75 L 517.32 136.77 L 513.03 136.77 L 513.03 134.21 L 517.14 134.21 L 517.14 133.23 L 513.03 133.23 L 513.03 130.09 L 517.43 130.09 L 517.43 129.11 L 511.86 129.11 L 511.86 137.75 Z " fill-rule="evenodd"/>
<path transform="matrix(1,0,0,-1,0,400)" stroke-width="1" stroke-linecap="butt" stroke-linejoin="round" fill="none" stroke="#ff0000" d="M 448.04 120.47 L 483.56 120.47 "/>
<path transform="matrix(1,0,0,-1,0,400)" d="M 494.6 122.38 L 494.6 121.39 C 494.6 121.39 494.15 121.64 493.69 121.76 C 493.69 121.76 493.24 121.89 492.78 121.89 C 492.78 121.89 491.74 121.89 491.17 121.23 C 491.17 121.23 490.6 120.57 490.6 119.39 C 490.6 119.39 490.6 118.2 491.17 117.54 C 491.17 117.54 491.74 116.89 492.78 116.89 C 492.78 116.89 493.24 116.89 493.69 117.01 C 493.69 117.01 494.15 117.13 494.6 117.38 L 494.6 116.4 C 494.6 116.4 494.16 116.19 493.68 116.09 C 493.68 116.09 493.2 115.98 492.66 115.98 C 492.66 115.98 491.2 115.98 490.34 116.9 C 490.34 116.9 489.48 117.82 489.48 119.39 C 489.48 119.39 489.48 120.97 490.34 121.88 C 490.34 121.88 491.22 122.79 492.73 122.79 C 492.73 122.79 493.23 122.79 493.69 122.68 C 493.69 122.68 494.16 122.59 494.6 122.38 Z " fill-rule="evenodd"/>
<path transform="matrix(1,0,0,-1,0,400)" d="M 500.21 121.64 C 500.21 121.64 500.03 121.74 499.82 121.79 C 499.82 121.79 499.61 121.84 499.35 121.84 C 499.35 121.84 498.45 121.84 497.97 121.25 C 497.97 121.25 497.49 120.67 497.49 119.57 L 497.49 116.15 L 496.41 116.15 L 496.41 122.63 L 497.49 122.63 L 497.49 121.63 C 497.49 121.63 497.82 122.22 498.36 122.5 C 498.36 122.5 498.9 122.79 499.67 122.79 C 499.67 122.79 499.78 122.79 499.91 122.77 C 499.91 122.77 500.04 122.76 500.21 122.73 L 500.21 121.64 Z " fill-rule="evenodd"/>
<path transform="matrix(1,0,0,-1,0,400)" d="M 501.33 122.63 L 502.39 122.63 L 502.39 116.15 L 501.33 116.15 L 501.33 122.63 M 501.33 125.16 L 502.39 125.16 L 502.39 123.81 L 501.33 123.81 L 501.33 125.16 Z " fill-rule="evenodd"/>
<path transform="matrix(1,0,0,-1,0,400)" d="M 505.67 124.47 L 505.67 122.63 L 507.87 122.63 L 507.87 121.81 L 505.67 121.81 L 505.67 118.29 C 505.67 118.29 505.67 117.49 505.89 117.27 C 505.89 117.27 506.11 117.04 506.77 117.04 L 507.87 117.04 L 507.87 116.15 L 506.77 116.15 C 506.77 116.15 505.54 116.15 505.07 116.61 C 505.07 116.61 504.6 117.07 504.6 118.29 L 504.6 121.81 L 503.82 121.81 L 503.82 122.63 L 504.6 122.63 L 504.6 124.47 L 505.67 124.47 Z " fill-rule="evenodd"/>
<path transform="matrix(1,0,0,-1,0,400)" d="M 509.27 122.63 L 510.33 122.63 L 510.33 116.15 L 509.27 116.15 L 509.27 122.63 M 509.27 125.16 L 510.33 125.16 L 510.33 123.81 L 509.27 123.81 L 509.27 125.16 Z " fill-rule="evenodd"/>
<path transform="matrix(1,0,0,-1,0,400)" d="M 517.22 122.38 L 517.22 121.39 C 517.22 121.39 516.77 121.64 516.32 121.76 C 516.32 121.76 515.86 121.89 515.4 121.89 C 515.4 121.89 514.37 121.89 513.79 121.23 C 513.79 121.23 513.22 120.57 513.22 119.39 C 513.22 119.39 513.22 118.2 513.79 117.54 C 513.79 117.54 514.37 116.89 515.4 116.89 C 515.4 116.89 515.86 116.89 516.32 117.01 C 516.32 117.01 516.77 117.13 517.22 117.38 L 517.22 116.4 C 517.22 116.4 516.78 116.19 516.3 116.09 C 516.3 116.09 515.82 115.98 515.29 115.98 C 515.29 115.98 513.82 115.98 512.96 116.9 C 512.96 116.9 512.1 117.82 512.1 119.39 C 512.1 119.39 512.1 120.97 512.97 121.88 C 512.97 121.88 513.84 122.79 515.36 122.79 C 515.36 122.79 515.85 122.79 516.32 122.68 C 516.32 122.68 516.78 122.59 517.22 122.38 Z " fill-rule="evenodd"/>
<path transform="matrix(1,0,0,-1,0,400)" d="M 522.02 119.41 C 522.02 119.41 520.73 119.41 520.23 119.11 C 520.23 119.11 519.74 118.82 519.74 118.11 C 519.74 118.11 519.74 117.54 520.11 117.2 C 520.11 117.2 520.48 116.87 521.13 116.87 C 521.13 116.87 522.01 116.87 522.54 117.5 C 522.54 117.5 523.08 118.13 523.08 119.17 L 523.08 119.41 L 522.02 119.41 M 524.15 119.85 L 524.15 116.15 L 523.08 116.15 L 523.08 117.13 C 523.08 117.13 522.72 116.54 522.17 116.26 C 522.17 116.26 521.63 115.98 520.84 115.98 C 520.84 115.98 519.85 115.98 519.26 116.54 C 519.26 116.54 518.67 117.1 518.67 118.04 C 518.67 118.04 518.67 119.13 519.4 119.69 C 519.4 119.69 520.14 120.24 521.59 120.24 L 523.08 120.24 L 523.08 120.35 C 523.08 120.35 523.08 121.08 522.59 121.48 C 522.59 121.48 522.11 121.89 521.24 121.89 C 521.24 121.89 520.69 121.89 520.16 121.75 C 520.16 121.75 519.63 121.62 519.15 121.35 L 519.15 122.34 C 519.15 122.34 519.73 122.56 520.28 122.67 C 520.28 122.67 520.83 122.79 521.35 122.79 C 521.35 122.79 522.76 122.79 523.45 122.06 C 523.45 122.06 524.15 121.33 524.15 119.85 Z " fill-rule="evenodd"/>
<path transform="matrix(1,0,0,-1,0,400)" d="M 526.34 125.16 L 527.4 125.16 L 527.4 116.15 L 526.34 116.15 L 526.34 125.16 Z " fill-rule="evenodd"/>
<path transform="matrix(1,0,0,-1,0,400)" stroke-width="1" stroke-linecap="butt" stroke-linejoin="round" fill="none" stroke="#800080" d="M 448.04 107.51 L 483.56 107.51 "/>
<path transform="matrix(1,0,0,-1,0,400)" d="M 492.83 106.45 C 492.83 106.45 491.54 106.45 491.04 106.15 C 491.04 106.15 490.54 105.86 490.54 105.15 C 490.54 105.15 490.54 104.58 490.91 104.24 C 490.91 104.24 491.29 103.91 491.93 103.91 C 491.93 103.91 492.81 103.91 493.35 104.54 C 493.35 104.54 493.89 105.17 493.89 106.21 L 493.89 106.45 L 492.83 106.45 M 494.95 106.89 L 494.95 103.19 L 493.89 103.19 L 493.89 104.17 C 493.89 104.17 493.52 103.58 492.98 103.3 C 492.98 103.3 492.43 103.02 491.65 103.02 C 491.65 103.02 490.65 103.02 490.06 103.58 C 490.06 103.58 489.48 104.14 489.48 105.08 C 489.48 105.08 489.48 106.17 490.21 106.73 C 490.21 106.73 490.94 107.28 492.39 107.28 L 493.89 107.28 L 493.89 107.39 C 493.89 107.39 493.89 108.12 493.4 108.52 C 493.4 108.52 492.92 108.93 492.05 108.93 C 492.05 108.93 491.49 108.93 490.96 108.79 C 490.96 108.79 490.44 108.66 489.95 108.39 L 489.95 109.38 C 489.95 109.38 490.53 109.6 491.08 109.71 C 491.08 109.71 491.63 109.83 492.16 109.83 C 492.16 109.83 493.56 109.83 494.26 109.1 C 494.26 109.1 494.95 108.37 494.95 106.89 Z " fill-rule="evenodd"/>
<path transform="matrix(1,0,0,-1,0,400)" d="M 496.68 109.67 L 501.74 109.67 L 501.74 108.7 L 497.73 104.04 L 501.74 104.04 L 501.74 103.19 L 496.54 103.19 L 496.54 104.16 L 500.54 108.82 L 496.68 108.82 L 496.68 109.67 Z " fill-rule="evenodd"/>
<path transform="matrix(1,0,0,-1,0,400)" d="M 508.91 106.7 L 508.91 106.18 L 504.01 106.18 C 504.01 106.18 504.08 105.08 504.67 104.5 C 504.67 104.5 505.27 103.93 506.33 103.93 C 506.33 103.93 506.94 103.93 507.51 104.08 C 507.51 104.08 508.09 104.23 508.66 104.53 L 508.66 103.52 C 508.66 103.52 508.09 103.28 507.49 103.15 C 507.49 103.15 506.88 103.02 506.26 103.02 C 506.26 103.02 504.71 103.02 503.8 103.93 C 503.8 103.93 502.9 104.83 502.9 106.37 C 502.9 106.37 502.9 107.96 503.76 108.89 C 503.76 108.89 504.62 109.83 506.08 109.83 C 506.08 109.83 507.39 109.83 508.14 108.98 C 508.14 108.98 508.91 108.14 508.91 106.7 M 507.84 107.01 C 507.84 107.01 507.83 107.88 507.35 108.41 C 507.35 108.41 506.88 108.93 506.09 108.93 C 506.09 108.93 505.2 108.93 504.66 108.42 C 504.66 108.42 504.13 107.92 504.05 107 L 507.84 107.01 Z " fill-rule="evenodd"/>
<path transform="matrix(1,0,0,-1,0,400)" d="M 513.17 108.93 C 513.17 108.93 512.31 108.93 511.81 108.25 C 511.81 108.25 511.32 107.59 511.32 106.43 C 511.32 106.43 511.32 105.26 511.81 104.59 C 511.81 104.59 512.31 103.93 513.17 103.93 C 513.17 103.93 514.02 103.93 514.52 104.6 C 514.52 104.6 515.01 105.27 515.01 106.43 C 515.01 106.43 515.01 107.58 514.52 108.25 C 514.52 108.25 514.02 108.93 513.17 108.93 M 513.17 109.83 C 513.17 109.83 514.56 109.83 515.35 108.93 C 515.35 108.93 516.14 108.02 516.14 106.43 C 516.14 106.43 516.14 104.83 515.35 103.93 C 515.35 103.93 514.56 103.02 513.17 103.02 C 513.17 103.02 511.77 103.02 510.98 103.93 C 510.98 103.93 510.19 104.83 510.19 106.43 C 510.19 106.43 510.19 108.02 510.98 108.93 C 510.98 108.93 511.77 109.83 513.17 109.83 Z " fill-rule="evenodd"/>
<path transform="matrix(1,0,0,-1,0,400)" d="M 518.96 111.51 L 518.96 109.67 L 521.15 109.67 L 521.15 108.85 L 518.96 108.85 L 518.96 105.33 C 518.96 105.33 518.96 104.53 519.17 104.31 C 519.17 104.31 519.39 104.08 520.06 104.08 L 521.15 104.08 L 521.15 103.19 L 520.06 103.19 C 520.06 103.19 518.83 103.19 518.36 103.65 C 518.36 103.65 517.89 104.11 517.89 105.33 L 517.89 108.85 L 517.11 108.85 L 517.11 109.67 L 517.89 109.67 L 517.89 111.51 L 518.96 111.51 Z " fill-rule="evenodd"/>
<path transform="matrix(1,0,0,-1,0,400)" d="M 526.31 108.68 C 526.31 108.68 526.13 108.78 525.92 108.83 C 525.92 108.83 525.71 108.88 525.45 108.88 C 525.45 108.88 524.55 108.88 524.06 108.29 C 524.06 108.29 523.58 107.71 523.58 106.61 L 523.58 103.19 L 522.51 103.19 L 522.51 109.67 L 523.58 109.67 L 523.58 108.67 C 523.58 108.67 523.92 109.26 524.46 109.54 C 524.46 109.54 525 109.83 525.77 109.83 C 525.77 109.83 525.88 109.83 526.01 109.81 C 526.01 109.81 526.14 109.8 526.3 109.77 L 526.31 108.68 Z " fill-rule="evenodd"/>
<path transform="matrix(1,0,0,-1,0,400)" d="M 529.68 108.93 C 529.68 108.93 528.82 108.93 528.32 108.25 C 528.32 108.25 527.83 107.59 527.83 106.43 C 527.83 106.43 527.83 105.26 528.32 104.59 C 528.32 104.59 528.82 103.93 529.68 103.93 C 529.68 103.93 530.53 103.93 531.03 104.6 C 531.03 104.6 531.52 105.27 531.52 106.43 C 531.52 106.43 531.52 107.58 531.03 108.25 C 531.03 108.25 530.53 108.93 529.68 108.93 M 529.68 109.83 C 529.68 109.83 531.07 109.83 531.86 108.93 C 531.86 108.93 532.65 108.02 532.65 106.43 C 532.65 106.43 532.65 104.83 531.86 103.93 C 531.86 103.93 531.07 103.02 529.68 103.02 C 529.68 103.02 528.28 103.02 527.49 103.93 C 527.49 103.93 526.7 104.83 526.7 106.43 C 526.7 106.43 526.7 108.02 527.49 108.93 C 527.49 108.93 528.28 109.83 529.68 109.83 Z " fill-rule="evenodd"/>
<path transform="matrix(1,0,0,-1,0,400)" d="M 535.45 104.16 L 535.45 100.73 L 534.38 100.73 L 534.38 109.67 L 535.45 109.67 L 535.45 108.69 C 535.45 108.69 535.78 109.27 536.29 109.55 C 536.29 109.55 536.81 109.83 537.52 109.83 C 537.52 109.83 538.7 109.83 539.44 108.89 C 539.44 108.89 540.18 107.95 540.18 106.43 C 540.18 106.43 540.18 104.9 539.44 103.96 C 539.44 103.96 538.7 103.02 537.52 103.02 C 537.52 103.02 536.81 103.02 536.29 103.3 C 536.29 103.3 535.78 103.58 535.45 104.16 M 539.07 106.43 C 539.07 106.43 539.07 107.6 538.58 108.27 C 538.58 108.27 538.1 108.94 537.26 108.94 C 537.26 108.94 536.41 108.94 535.93 108.27 C 535.93 108.27 535.45 107.6 535.45 106.43 C 535.45 106.43 535.45 105.25 535.93 104.58 C 535.93 104.58 536.41 103.91 537.26 103.91 C 537.26 103.91 538.1 103.91 538.58 104.58 C 538.58 104.58 539.07 105.25 539.07 106.43 Z " fill-rule="evenodd"/>
<path transform="matrix(1,0,0,-1,0,400)" d="M 547.48 106.7 L 547.48 106.18 L 542.59 106.18 C 542.59 106.18 542.66 105.08 543.25 104.5 C 543.25 104.5 543.84 103.93 544.9 103.93 C 544.9 103.93 545.52 103.93 546.09 104.08 C 546.09 104.08 546.67 104.23 547.24 104.53 L 547.24 103.52 C 547.24 103.52 546.66 103.28 546.06 103.15 C 546.06 103.15 545.46 103.02 544.84 103.02 C 544.84 103.02 543.29 103.02 542.38 103.93 C 542.38 103.93 541.48 104.83 541.48 106.37 C 541.48 106.37 541.48 107.96 542.33 108.89 C 542.33 108.89 543.2 109.83 544.65 109.83 C 544.65 109.83 545.96 109.83 546.72 108.98 C 546.72 108.98 547.48 108.14 547.48 106.7 M 546.42 107.01 C 546.42 107.01 546.41 107.88 545.93 108.41 C 545.93 108.41 545.45 108.93 544.67 108.93 C 544.67 108.93 543.78 108.93 543.24 108.42 C 543.24 108.42 542.7 107.92 542.62 107 L 546.42 107.01 Z " fill-rule="evenodd"/>
<path transform="matrix(1,0,0,-1,0,400)" stroke-width="1" stroke-linecap="butt" stroke-linejoin="round" fill="none" stroke="#008000" d="M 448.04 94.55 L 483.56 94.55 "/>
<path transform="matrix(1,0,0,-1,0,400)" d="M 489.48 98.87 L 490.65 98.87 L 490.65 93.62 C 490.65 93.62 490.65 92.23 491.15 91.62 C 491.15 91.62 491.66 91.01 492.79 91.01 C 492.79 91.01 493.91 91.01 494.41 91.62 C 494.41 91.62 494.92 92.23 494.92 93.62 L 494.92 98.87 L 496.09 98.87 L 496.09 93.48 C 496.09 93.48 496.09 91.79 495.25 90.93 C 495.25 90.93 494.42 90.06 492.79 90.06 C 492.79 90.06 491.15 90.06 490.31 90.93 C 490.31 90.93 489.48 91.79 489.48 93.48 L 489.48 98.87 Z " fill-rule="evenodd"/>
<path transform="matrix(1,0,0,-1,0,400)" d="M 504.75 98.21 L 504.75 96.97 C 504.75 96.97 504.16 97.52 503.49 97.79 C 503.49 97.79 502.83 98.07 502.07 98.07 C 502.07 98.07 500.59 98.07 499.81 97.16 C 499.81 97.16 499.02 96.26 499.02 94.54 C 499.02 94.54 499.02 92.84 499.81 91.93 C 499.81 91.93 500.59 91.02 502.07 91.02 C 502.07 91.02 502.83 91.02 503.49 91.3 C 503.49 91.3 504.16 91.57 504.75 92.12 L 504.75 90.9 C 504.75 90.9 504.14 90.48 503.45 90.27 C 503.45 90.27 502.77 90.06 502 90.06 C 502 90.06 500.04 90.06 498.91 91.26 C 498.91 91.26 497.79 92.46 497.79 94.54 C 497.79 94.54 497.79 96.63 498.91 97.82 C 498.91 97.82 500.04 99.03 502 99.03 C 502 99.03 502.78 99.03 503.46 98.82 C 503.46 98.82 504.15 98.62 504.75 98.21 Z " fill-rule="evenodd"/>
<path transform="matrix(1,0,0,-1,0,400)" d="M 511.74 98.59 L 511.74 97.45 C 511.74 97.45 511.07 97.77 510.48 97.92 C 510.48 97.92 509.89 98.08 509.34 98.08 C 509.34 98.08 508.39 98.08 507.87 97.71 C 507.87 97.71 507.35 97.34 507.35 96.65 C 507.35 96.65 507.35 96.08 507.69 95.79 C 507.69 95.79 508.04 95.5 509 95.32 L 509.71 95.17 C 509.71 95.17 511.02 94.92 511.63 94.29 C 511.63 94.29 512.26 93.67 512.26 92.62 C 512.26 92.62 512.26 91.36 511.41 90.71 C 511.41 90.71 510.58 90.06 508.95 90.06 C 508.95 90.06 508.34 90.06 507.64 90.2 C 507.64 90.2 506.95 90.34 506.21 90.61 L 506.21 91.82 C 506.21 91.82 506.92 91.42 507.61 91.21 C 507.61 91.21 508.29 91.01 508.95 91.01 C 508.95 91.01 509.95 91.01 510.49 91.41 C 510.49 91.41 511.04 91.8 511.04 92.53 C 511.04 92.53 511.04 93.17 510.64 93.52 C 510.64 93.52 510.26 93.88 509.37 94.06 L 508.65 94.2 C 508.65 94.2 507.35 94.46 506.76 95.02 C 506.76 95.02 506.18 95.57 506.18 96.56 C 506.18 96.56 506.18 97.71 506.98 98.37 C 506.98 98.37 507.79 99.03 509.21 99.03 C 509.21 99.03 509.82 99.03 510.45 98.92 C 510.45 98.92 511.08 98.81 511.74 98.59 Z " fill-rule="evenodd"/>
<path transform="matrix(1,0,0,-1,0,400)" d="M 512.88 98.87 L 520.19 98.87 L 520.19 97.89 L 517.13 97.89 L 517.13 90.23 L 515.95 90.23 L 515.95 97.89 L 512.88 97.89 L 512.88 98.87 Z " fill-rule="evenodd"/>
<path transform="matrix(1,0,0,-1,0,400)" d="M 459.4 87.99 L 459.4 75.19 L 472.2 75.19 L 472.2 87.99 L 459.4 87.99 Z " fill="#ffffff" fill-rule="evenodd"/>
<path transform="matrix(1,0,0,-1,0,400)" stroke-width="1.28" stroke-linecap="butt" stroke-linejoin="round" fill="none" stroke="#000000" d="M 459.4 87.99 L 459.4 75.19 L 472.2 75.19 L 472.2 87.99 L 459.4 87.99 Z "/>
<path transform="matrix(1,0,0,-1,0,400)" d="M 489.48 85.91 L 490.65 85.91 L 490.65 80.66 C 490.65 80.66 490.65 79.27 491.15 78.66 C 491.15 78.66 491.66 78.05 492.79 78.05 C 492.79 78.05 493.91 78.05 494.41 78.66 C 494.41 78.66 494.92 79.27 494.92 80.66 L 494.92 85.91 L 496.09 85.91 L 496.09 80.52 C 496.09 80.52 496.09 78.83 495.25 77.97 C 495.25 77.97 494.42 77.1 492.79 77.1 C 492.79 77.1 491.15 77.1 490.31 77.97 C 490.31 77.97 489.48 78.83 489.48 80.52 L 489.48 85.91 Z " fill-rule="evenodd"/>
<path transform="matrix(1,0,0,-1,0,400)" d="M 504.75 85.25 L 504.75 84.01 C 504.75 84.01 504.16 84.56 503.49 84.83 C 503.49 84.83 502.83 85.11 502.07 85.11 C 502.07 85.11 500.59 85.11 499.81 84.2 C 499.81 84.2 499.02 83.3 499.02 81.58 C 499.02 81.58 499.02 79.88 499.81 78.97 C 499.81 78.97 500.59 78.06 502.07 78.06 C 502.07 78.06 502.83 78.06 503.49 78.34 C 503.49 78.34 504.16 78.61 504.75 79.16 L 504.75 77.94 C 504.75 77.94 504.14 77.52 503.45 77.31 C 503.45 77.31 502.77 77.1 502 77.1 C 502 77.1 500.04 77.1 498.91 78.3 C 498.91 78.3 497.79 79.5 497.79 81.58 C 497.79 81.58 497.79 83.67 498.91 84.86 C 498.91 84.86 500.04 86.07 502 86.07 C 502 86.07 502.78 86.07 503.46 85.86 C 503.46 85.86 504.15 85.66 504.75 85.25 Z " fill-rule="evenodd"/>
<path transform="matrix(1,0,0,-1,0,400)" d="M 506.56 85.91 L 512.02 85.91 L 512.02 84.93 L 507.73 84.93 L 507.73 82.37 L 511.84 82.37 L 511.84 81.39 L 507.73 81.39 L 507.73 78.25 L 512.13 78.25 L 512.13 77.27 L 506.56 77.27 L 506.56 85.91 Z " fill-rule="evenodd"/>
<path transform="matrix(1,0,0,-1,0,400)" d="M 515.22 84.95 L 515.22 81.7 L 516.69 81.7 C 516.69 81.7 517.5 81.7 517.95 82.13 C 517.95 82.13 518.39 82.55 518.39 83.33 C 518.39 83.33 518.39 84.11 517.95 84.53 C 517.95 84.53 517.5 84.95 516.69 84.95 L 515.22 84.95 M 514.05 85.91 L 516.69 85.91 C 516.69 85.91 518.14 85.91 518.88 85.25 C 518.88 85.25 519.63 84.6 519.63 83.33 C 519.63 83.33 519.63 82.05 518.88 81.4 C 518.88 81.4 518.14 80.74 516.69 80.74 L 515.22 80.74 L 515.22 77.27 L 514.05 77.27 L 514.05 85.91 Z " fill-rule="evenodd"/>
<path transform="matrix(1,0,0,-1,0,400)" d="M 465.8 75.03 L 459.4 62.23 L 472.2 62.23 L 465.8 75.03 Z " fill="#ffffff" fill-rule="evenodd"/>
<path transform="matrix(1,0,0,-1,0,400)" stroke-width="1.28" stroke-linecap="butt" stroke-linejoin="round" fill="none" stroke="#000000" d="M 465.8 75.03 L 459.4 62.23 L 472.2 62.23 L 465.8 75.03 Z "/>
<path transform="matrix(1,0,0,-1,0,400)" d="M 494.6 70.54 L 494.6 69.55 C 494.6 69.55 494.15 69.8 493.69 69.92 C 493.69 69.92 493.24 70.05 492.78 70.05 C 492.78 70.05 491.74 70.05 491.17 69.39 C 491.17 69.39 490.6 68.73 490.6 67.55 C 490.6 67.55 490.6 66.36 491.17 65.7 C 491.17 65.7 491.74 65.05 492.78 65.05 C 492.78 65.05 493.24 65.05 493.69 65.17 C 493.69 65.17 494.15 65.29 494.6 65.54 L 494.6 64.56 C 494.6 64.56 494.16 64.35 493.68 64.25 C 493.68 64.25 493.2 64.14 492.66 64.14 C 492.66 64.14 491.2 64.14 490.34 65.06 C 490.34 65.06 489.48 65.98 489.48 67.55 C 489.48 67.55 489.48 69.13 490.34 70.04 C 490.34 70.04 491.22 70.95 492.73 70.95 C 492.73 70.95 493.23 70.95 493.69 70.84 C 493.69 70.84 494.16 70.75 494.6 70.54 Z " fill-rule="evenodd"/>
<path transform="matrix(1,0,0,-1,0,400)" d="M 500.21 69.8 C 500.21 69.8 500.03 69.9 499.82 69.95 C 499.82 69.95 499.61 70 499.35 70 C 499.35 70 498.45 70 497.97 69.41 C 497.97 69.41 497.49 68.83 497.49 67.73 L 497.49 64.31 L 496.41 64.31 L 496.41 70.79 L 497.49 70.79 L 497.49 69.79 C 497.49 69.79 497.82 70.38 498.36 70.66 C 498.36 70.66 498.9 70.95 499.67 70.95 C 499.67 70.95 499.78 70.95 499.91 70.93 C 499.91 70.93 500.04 70.92 500.21 70.89 L 500.21 69.8 Z " fill-rule="evenodd"/>
<path transform="matrix(1,0,0,-1,0,400)" d="M 501.33 70.79 L 502.39 70.79 L 502.39 64.31 L 501.33 64.31 L 501.33 70.79 M 501.33 73.32 L 502.39 73.32 L 502.39 71.97 L 501.33 71.97 L 501.33 73.32 Z " fill-rule="evenodd"/>
<path transform="matrix(1,0,0,-1,0,400)" d="M 505.67 72.63 L 505.67 70.79 L 507.87 70.79 L 507.87 69.97 L 505.67 69.97 L 505.67 66.45 C 505.67 66.45 505.67 65.65 505.89 65.43 C 505.89 65.43 506.11 65.2 506.77 65.2 L 507.87 65.2 L 507.87 64.31 L 506.77 64.31 C 506.77 64.31 505.54 64.31 505.07 64.77 C 505.07 64.77 504.6 65.23 504.6 66.45 L 504.6 69.97 L 503.82 69.97 L 503.82 70.79 L 504.6 70.79 L 504.6 72.63 L 505.67 72.63 Z " fill-rule="evenodd"/>
<path transform="matrix(1,0,0,-1,0,400)" d="M 509.27 70.79 L 510.33 70.79 L 510.33 64.31 L 509.27 64.31 L 509.27 70.79 M 509.27 73.32 L 510.33 73.32 L 510.33 71.97 L 509.27 71.97 L 509.27 73.32 Z " fill-rule="evenodd"/>
<path transform="matrix(1,0,0,-1,0,400)" d="M 517.22 70.54 L 517.22 69.55 C 517.22 69.55 516.77 69.8 516.32 69.92 C 516.32 69.92 515.86 70.05 515.4 70.05 C 515.4 70.05 514.37 70.05 513.79 69.39 C 513.79 69.39 513.22 68.73 513.22 67.55 C 513.22 67.55 513.22 66.36 513.79 65.7 C 513.79 65.7 514.37 65.05 515.4 65.05 C 515.4 65.05 515.86 65.05 516.32 65.17 C 516.32 65.17 516.77 65.29 517.22 65.54 L 517.22 64.56 C 517.22 64.56 516.78 64.35 516.3 64.25 C 516.3 64.25 515.82 64.14 515.29 64.14 C 515.29 64.14 513.82 64.14 512.96 65.06 C 512.96 65.06 512.1 65.98 512.1 67.55 C 512.1 67.55 512.1 69.13 512.97 70.04 C 512.97 70.04 513.84 70.95 515.36 70.95 C 515.36 70.95 515.85 70.95 516.32 70.84 C 516.32 70.84 516.78 70.75 517.22 70.54 Z " fill-rule="evenodd"/>
<path transform="matrix(1,0,0,-1,0,400)" d="M 522.02 67.57 C 522.02 67.57 520.73 67.57 520.23 67.27 C 520.23 67.27 519.74 66.98 519.74 66.27 C 519.74 66.27 519.74 65.7 520.11 65.36 C 520.11 65.36 520.48 65.03 521.13 65.03 C 521.13 65.03 522.01 65.03 522.54 65.66 C 522.54 65.66 523.08 66.29 523.08 67.33 L 523.08 67.57 L 522.02 67.57 M 524.15 68.01 L 524.15 64.31 L 523.08 64.31 L 523.08 65.29 C 523.08 65.29 522.72 64.7 522.17 64.42 C 522.17 64.42 521.63 64.14 520.84 64.14 C 520.84 64.14 519.85 64.14 519.26 64.7 C 519.26 64.7 518.67 65.26 518.67 66.2 C 518.67 66.2 518.67 67.29 519.4 67.85 C 519.4 67.85 520.14 68.4 521.59 68.4 L 523.08 68.4 L 523.08 68.51 C 523.08 68.51 523.08 69.24 522.59 69.64 C 522.59 69.64 522.11 70.05 521.24 70.05 C 521.24 70.05 520.69 70.05 520.16 69.91 C 520.16 69.91 519.63 69.78 519.15 69.51 L 519.15 70.5 C 519.15 70.5 519.73 70.72 520.28 70.83 C 520.28 70.83 520.83 70.95 521.35 70.95 C 521.35 70.95 522.76 70.95 523.45 70.22 C 523.45 70.22 524.15 69.49 524.15 68.01 Z " fill-rule="evenodd"/>
<path transform="matrix(1,0,0,-1,0,400)" d="M 526.34 73.32 L 527.4 73.32 L 527.4 64.31 L 526.34 64.31 L 526.34 73.32 Z " fill-rule="evenodd"/>
<path transform="matrix(1,0,0,-1,0,400)" d="M 534.43 65.28 L 534.43 61.85 L 533.36 61.85 L 533.36 70.79 L 534.43 70.79 L 534.43 69.81 C 534.43 69.81 534.77 70.39 535.27 70.67 C 535.27 70.67 535.79 70.95 536.5 70.95 C 536.5 70.95 537.68 70.95 538.42 70.01 C 538.42 70.01 539.16 69.07 539.16 67.55 C 539.16 67.55 539.16 66.02 538.42 65.08 C 538.42 65.08 537.68 64.14 536.5 64.14 C 536.5 64.14 535.79 64.14 535.27 64.42 C 535.27 64.42 534.77 64.7 534.43 65.28 M 538.05 67.55 C 538.05 67.55 538.05 68.72 537.57 69.39 C 537.57 69.39 537.09 70.06 536.24 70.06 C 536.24 70.06 535.4 70.06 534.91 69.39 C 534.91 69.39 534.43 68.72 534.43 67.55 C 534.43 67.55 534.43 66.37 534.91 65.7 C 534.91 65.7 535.4 65.03 536.24 65.03 C 536.24 65.03 537.09 65.03 537.57 65.7 C 537.57 65.7 538.05 66.37 538.05 67.55 Z " fill-rule="evenodd"/>
<path transform="matrix(1,0,0,-1,0,400)" d="M 540.81 66.87 L 540.81 70.79 L 541.88 70.79 L 541.88 66.91 C 541.88 66.91 541.88 65.99 542.24 65.53 C 542.24 65.53 542.59 65.07 543.31 65.07 C 543.31 65.07 544.17 65.07 544.67 65.62 C 544.67 65.62 545.18 66.17 545.18 67.12 L 545.18 70.79 L 546.24 70.79 L 546.24 64.31 L 545.18 64.31 L 545.18 65.31 C 545.18 65.31 544.79 64.72 544.27 64.43 C 544.27 64.43 543.76 64.14 543.09 64.14 C 543.09 64.14 541.97 64.14 541.39 64.84 C 541.39 64.84 540.81 65.53 540.81 66.87 M 543.49 70.95 L 543.49 70.95 Z " fill-rule="evenodd"/>
<path transform="matrix(1,0,0,-1,0,400)" d="M 552.19 69.8 C 552.19 69.8 552.01 69.9 551.8 69.95 C 551.8 69.95 551.59 70 551.33 70 C 551.33 70 550.43 70 549.94 69.41 C 549.94 69.41 549.46 68.83 549.46 67.73 L 549.46 64.31 L 548.39 64.31 L 548.39 70.79 L 549.46 70.79 L 549.46 69.79 C 549.46 69.79 549.8 70.38 550.34 70.66 C 550.34 70.66 550.88 70.95 551.65 70.95 C 551.65 70.95 551.76 70.95 551.89 70.93 C 551.89 70.93 552.02 70.92 552.18 70.89 L 552.19 69.8 Z " fill-rule="evenodd"/>
<path transform="matrix(1,0,0,-1,0,400)" d="M 558.59 67.82 L 558.59 67.3 L 553.69 67.3 C 553.69 67.3 553.76 66.2 554.35 65.62 C 554.35 65.62 554.95 65.05 556.01 65.05 C 556.01 65.05 556.62 65.05 557.2 65.2 C 557.2 65.2 557.77 65.35 558.34 65.65 L 558.34 64.64 C 558.34 64.64 557.77 64.4 557.17 64.27 C 557.17 64.27 556.56 64.14 555.95 64.14 C 555.95 64.14 554.39 64.14 553.49 65.05 C 553.49 65.05 552.58 65.95 552.58 67.49 C 552.58 67.49 552.58 69.08 553.44 70.01 C 553.44 70.01 554.3 70.95 555.76 70.95 C 555.76 70.95 557.07 70.95 557.83 70.1 C 557.83 70.1 558.59 69.26 558.59 67.82 M 557.53 68.13 C 557.53 68.13 557.51 69 557.03 69.53 C 557.03 69.53 556.56 70.05 555.77 70.05 C 555.77 70.05 554.88 70.05 554.34 69.54 C 554.34 69.54 553.81 69.04 553.73 68.12 L 557.53 68.13 Z " fill-rule="evenodd"/>
</g>
</g>
</svg>
