<?xml version="1.0" encoding="UTF-8" standalone="no"?>
<!DOCTYPE svg PUBLIC "-//W3C//DTD SVG 1.1//EN" "http://www.w3.org/Graphics/SVG/1.1/DTD/svg11.dtd">
<svg xmlns="http://www.w3.org/2000/svg" xmlns:xlink="http://www.w3.org/1999/xlink" version="1.1" width="600pt" height="400pt" viewBox="0 0 600 400">
<g enable-background="new">
<clipPath id="cp0">
<path transform="matrix(1,0,0,-1,0,400)" d="M 0 0 L 600 0 L 600 400 L 0 400 Z "/>
</clipPath>
<g clip-path="url(#cp0)">
<clipPath id="cp1">
<path transform="matrix(1,0,0,-1,0,400)" d="M 0 0 L 600 0 L 600 600 L 0 600 Z "/>
</clipPath>
<g clip-path="url(#cp1)">
<path transform="matrix(1,0,0,-1,0,400)" d="M 0 0 L 600 0 L 600 400 L 0 400 " fill="#ffffff" fill-rule="evenodd"/>
</g>
<clipPath id="cp2">
<path transform="matrix(1,0,0,-1,0,400)" d="M 0 0 L 600 0 L 600 600 L 0 600 Z "/>
</clipPath>
<g clip-path="url(#cp2)">
<path transform="matrix(1,0,0,-1,0,400)" d="M 75.82 56.09 L 588.19 56.09 L 588.19 388.19 L 75.82 388.19 " fill="#ffffff" fill-rule="evenodd"/>
</g>
<path transform="matrix(1,0,0,-1,0,400)" stroke-width="1" stroke-linecap="butt" stroke-miterlimit="10" stroke-linejoin="miter" fill="none" stroke="#000000" d="M 75.82 56.09 L 588.19 56.09 "/>
<path transform="matrix(1,0,0,-1,0,400)" stroke-width="1" stroke-linecap="butt" stroke-miterlimit="10" stroke-linejoin="miter" fill="none" stroke="#000000" d="M 75.82 388.19 L 588.19 388.19 "/>
<path transform="matrix(1,0,0,-1,0,400)" stroke-width="1" stroke-linecap="butt" stroke-miterlimit="10" stroke-linejoin="miter" fill="none" stroke="#000000" d="M 90.32 56.09 L 90.32 60.07 "/>
<path transform="matrix(1,0,0,-1,0,400)" stroke-width="1" stroke-linecap="butt" stroke-miterlimit="10" stroke-linejoin="miter" fill="none" stroke="#000000" d="M 251.44 56.09 L 251.44 60.07 "/>
<path transform="matrix(1,0,0,-1,0,400)" stroke-width="1" stroke-linecap="butt" stroke-miterlimit="10" stroke-linejoin="miter" fill="none" stroke="#000000" d="M 412.56 56.09 L 412.56 60.07 "/>
<path transform="matrix(1,0,0,-1,0,400)" stroke-width="1" stroke-linecap="butt" stroke-miterlimit="10" stroke-linejoin="miter" fill="none" stroke="#000000" d="M 573.69 56.09 L 573.69 60.07 "/>
<path transform="matrix(1,0,0,-1,0,400)" d="M 80.36 41.29 C 80.36 41.29 81.83 40.98 82.65 39.99 C 82.65 39.99 83.48 38.99 83.48 37.54 C 83.48 37.54 83.48 35.3 81.94 34.07 C 81.94 34.07 80.4 32.85 77.56 32.85 C 77.56 32.85 76.61 32.85 75.6 33.04 C 75.6 33.04 74.6 33.22 73.52 33.6 L 73.52 35.57 C 73.52 35.57 74.37 35.08 75.39 34.82 C 75.39 34.82 76.4 34.57 77.5 34.57 C 77.5 34.57 79.43 34.57 80.43 35.33 C 80.43 35.33 81.44 36.09 81.44 37.54 C 81.44 37.54 81.44 38.87 80.5 39.62 C 80.5 39.62 79.57 40.38 77.9 40.38 L 76.14 40.38 L 76.14 42.06 L 77.98 42.06 C 77.98 42.06 79.49 42.06 80.29 42.66 C 80.29 42.66 81.09 43.27 81.09 44.4 C 81.09 44.4 81.09 45.57 80.26 46.18 C 80.26 46.18 79.44 46.81 77.9 46.81 C 77.9 46.81 77.06 46.81 76.1 46.63 C 76.1 46.63 75.13 46.45 73.98 46.06 L 73.98 47.89 C 73.98 47.89 75.14 48.21 76.16 48.37 C 76.16 48.37 77.18 48.53 78.08 48.53 C 78.08 48.53 80.41 48.53 81.77 47.47 C 81.77 47.47 83.12 46.42 83.12 44.62 C 83.12 44.62 83.12 43.36 82.4 42.49 C 82.4 42.49 81.69 41.63 80.36 41.29 Z " fill-rule="evenodd"/>
<path transform="matrix(1,0,0,-1,0,400)" d="M 90.07 46.91 C 90.07 46.91 88.49 46.91 87.69 45.35 C 87.69 45.35 86.9 43.81 86.9 40.69 C 86.9 40.69 86.9 37.58 87.69 36.02 C 87.69 36.02 88.49 34.47 90.07 34.47 C 90.07 34.47 91.66 34.47 92.45 36.02 C 92.45 36.02 93.25 37.58 93.25 40.69 C 93.25 40.69 93.25 43.81 92.45 45.35 C 92.45 45.35 91.66 46.91 90.07 46.91 M 90.07 48.53 C 90.07 48.53 92.61 48.53 93.95 46.52 C 93.95 46.52 95.3 44.51 95.3 40.69 C 95.3 40.69 95.3 36.87 93.95 34.85 C 93.95 34.85 92.61 32.85 90.07 32.85 C 90.07 32.85 87.53 32.85 86.18 34.85 C 86.18 34.85 84.85 36.87 84.85 40.69 C 84.85 40.69 84.85 44.51 86.18 46.52 C 86.18 46.52 87.53 48.53 90.07 48.53 Z " fill-rule="evenodd"/>
<path transform="matrix(1,0,0,-1,0,400)" d="M 101.89 46.91 C 101.89 46.91 100.31 46.91 99.51 45.35 C 99.51 45.35 98.72 43.81 98.72 40.69 C 98.72 40.69 98.72 37.58 99.51 36.02 C 99.51 36.02 100.31 34.47 101.89 34.47 C 101.89 34.47 103.48 34.47 104.27 36.02 C 104.27 36.02 105.07 37.58 105.07 40.69 C 105.07 40.69 105.07 43.81 104.27 45.35 C 104.27 45.35 103.48 46.91 101.89 46.91 M 101.89 48.53 C 101.89 48.53 104.43 48.53 105.77 46.52 C 105.77 46.52 107.12 44.51 107.12 40.69 C 107.12 40.69 107.12 36.87 105.77 34.85 C 105.77 34.85 104.43 32.85 101.89 32.85 C 101.89 32.85 99.35 32.85 98 34.85 C 98 34.85 96.66 36.87 96.66 40.69 C 96.66 40.69 96.66 44.51 98 46.52 C 98 46.52 99.35 48.53 101.89 48.53 Z " fill-rule="evenodd"/>
<path transform="matrix(1,0,0,-1,0,400)" d="M 241.7 41.29 C 241.7 41.29 243.17 40.98 243.99 39.99 C 243.99 39.99 244.82 38.99 244.82 37.54 C 244.82 37.54 244.82 35.3 243.28 34.07 C 243.28 34.07 241.74 32.85 238.9 32.85 C 238.9 32.85 237.95 32.85 236.94 33.04 C 236.94 33.04 235.94 33.22 234.86 33.6 L 234.86 35.57 C 234.86 35.57 235.71 35.08 236.73 34.82 C 236.73 34.82 237.74 34.57 238.84 34.57 C 238.84 34.57 240.77 34.57 241.77 35.33 C 241.77 35.33 242.78 36.09 242.78 37.54 C 242.78 37.54 242.78 38.87 241.84 39.62 C 241.84 39.62 240.91 40.38 239.24 40.38 L 237.48 40.38 L 237.48 42.06 L 239.32 42.06 C 239.32 42.06 240.83 42.06 241.63 42.66 C 241.63 42.66 242.43 43.27 242.43 44.4 C 242.43 44.4 242.43 45.57 241.6 46.18 C 241.6 46.18 240.78 46.81 239.24 46.81 C 239.24 46.81 238.4 46.81 237.44 46.63 C 237.44 46.63 236.47 46.45 235.32 46.06 L 235.32 47.89 C 235.32 47.89 236.48 48.21 237.5 48.37 C 237.5 48.37 238.52 48.53 239.42 48.53 C 239.42 48.53 241.75 48.53 243.11 47.47 C 243.11 47.47 244.46 46.42 244.46 44.62 C 244.46 44.62 244.46 43.36 243.75 42.49 C 243.75 42.49 243.03 41.63 241.7 41.29 Z " fill-rule="evenodd"/>
<path transform="matrix(1,0,0,-1,0,400)" d="M 247.06 48.26 L 255.09 48.26 L 255.09 46.54 L 248.93 46.54 L 248.93 42.83 C 248.93 42.83 249.38 42.98 249.82 43.06 C 249.82 43.06 250.27 43.14 250.71 43.14 C 250.71 43.14 253.24 43.14 254.72 41.75 C 254.72 41.75 256.2 40.36 256.2 37.99 C 256.2 37.99 256.2 35.55 254.68 34.19 C 254.68 34.19 253.16 32.85 250.4 32.85 C 250.4 32.85 249.45 32.85 248.45 33.01 C 248.45 33.01 247.47 33.17 246.42 33.5 L 246.42 35.55 C 246.42 35.55 247.33 35.06 248.3 34.81 C 248.3 34.81 249.27 34.57 250.36 34.57 C 250.36 34.57 252.11 34.57 253.13 35.49 C 253.13 35.49 254.16 36.41 254.16 37.99 C 254.16 37.99 254.16 39.57 253.13 40.49 C 253.13 40.49 252.11 41.42 250.36 41.42 C 250.36 41.42 249.54 41.42 248.72 41.23 C 248.72 41.23 247.91 41.05 247.06 40.67 L 247.06 48.26 Z " fill-rule="evenodd"/>
<path transform="matrix(1,0,0,-1,0,400)" d="M 262.79 46.91 C 262.79 46.91 261.21 46.91 260.41 45.35 C 260.41 45.35 259.62 43.81 259.62 40.69 C 259.62 40.69 259.62 37.58 260.41 36.02 C 260.41 36.02 261.21 34.47 262.79 34.47 C 262.79 34.47 264.38 34.47 265.17 36.02 C 265.17 36.02 265.97 37.58 265.97 40.69 C 265.97 40.69 265.97 43.81 265.17 45.35 C 265.17 45.35 264.38 46.91 262.79 46.91 M 262.79 48.53 C 262.79 48.53 265.34 48.53 266.67 46.52 C 266.67 46.52 268.02 44.51 268.02 40.69 C 268.02 40.69 268.02 36.87 266.67 34.85 C 266.67 34.85 265.34 32.85 262.79 32.85 C 262.79 32.85 260.25 32.85 258.91 34.85 C 258.91 34.85 257.57 36.87 257.57 40.69 C 257.57 40.69 257.57 44.51 258.91 46.52 C 258.91 46.52 260.25 48.53 262.79 48.53 Z " fill-rule="evenodd"/>
<path transform="matrix(1,0,0,-1,0,400)" d="M 402.06 46.48 L 396.9 38.41 L 402.06 38.41 L 402.06 46.48 M 401.53 48.26 L 404.1 48.26 L 404.1 38.41 L 406.26 38.41 L 406.26 36.71 L 404.1 36.71 L 404.1 33.14 L 402.06 33.14 L 402.06 36.71 L 395.24 36.71 L 395.24 38.68 L 401.53 48.26 Z " fill-rule="evenodd"/>
<path transform="matrix(1,0,0,-1,0,400)" d="M 412.85 46.91 C 412.85 46.91 411.27 46.91 410.47 45.35 C 410.47 45.35 409.68 43.81 409.68 40.69 C 409.68 40.69 409.68 37.58 410.47 36.02 C 410.47 36.02 411.27 34.47 412.85 34.47 C 412.85 34.47 414.44 34.47 415.23 36.02 C 415.23 36.02 416.03 37.58 416.03 40.69 C 416.03 40.69 416.03 43.81 415.23 45.35 C 415.23 45.35 414.44 46.91 412.85 46.91 M 412.85 48.53 C 412.85 48.53 415.39 48.53 416.73 46.52 C 416.73 46.52 418.07 44.51 418.07 40.69 C 418.07 40.69 418.07 36.87 416.73 34.85 C 416.73 34.85 415.39 32.85 412.85 32.85 C 412.85 32.85 410.31 32.85 408.96 34.85 C 408.96 34.85 407.62 36.87 407.62 40.69 C 407.62 40.69 407.62 44.51 408.96 46.52 C 408.96 46.52 410.31 48.53 412.85 48.53 Z " fill-rule="evenodd"/>
<path transform="matrix(1,0,0,-1,0,400)" d="M 424.67 46.91 C 424.67 46.91 423.09 46.91 422.29 45.35 C 422.29 45.35 421.5 43.81 421.5 40.69 C 421.5 40.69 421.5 37.58 422.29 36.02 C 422.29 36.02 423.09 34.47 424.67 34.47 C 424.67 34.47 426.26 34.47 427.05 36.02 C 427.05 36.02 427.85 37.58 427.85 40.69 C 427.85 40.69 427.85 43.81 427.05 45.35 C 427.05 45.35 426.26 46.91 424.67 46.91 M 424.67 48.53 C 424.67 48.53 427.21 48.53 428.55 46.52 C 428.55 46.52 429.89 44.51 429.89 40.69 C 429.89 40.69 429.89 36.87 428.55 34.85 C 428.55 34.85 427.21 32.85 424.67 32.85 C 424.67 32.85 422.13 32.85 420.78 34.85 C 420.78 34.85 419.44 36.87 419.44 40.69 C 419.44 40.69 419.44 44.51 420.78 46.52 C 420.78 46.52 422.13 48.53 424.67 48.53 Z " fill-rule="evenodd"/>
<path transform="matrix(1,0,0,-1,0,400)" d="M 563.4 46.48 L 558.24 38.41 L 563.4 38.41 L 563.4 46.48 M 562.87 48.26 L 565.44 48.26 L 565.44 38.41 L 567.6 38.41 L 567.6 36.71 L 565.44 36.71 L 565.44 33.14 L 563.4 33.14 L 563.4 36.71 L 556.58 36.71 L 556.58 38.68 L 562.87 48.26 Z " fill-rule="evenodd"/>
<path transform="matrix(1,0,0,-1,0,400)" d="M 569.83 48.26 L 577.87 48.26 L 577.87 46.54 L 571.71 46.54 L 571.71 42.83 C 571.71 42.83 572.15 42.98 572.6 43.06 C 572.6 43.06 573.04 43.14 573.49 43.14 C 573.49 43.14 576.02 43.14 577.5 41.75 C 577.5 41.75 578.98 40.36 578.98 37.99 C 578.98 37.99 578.98 35.55 577.46 34.19 C 577.46 34.19 575.94 32.85 573.18 32.85 C 573.18 32.85 572.22 32.85 571.23 33.01 C 571.23 33.01 570.25 33.17 569.2 33.5 L 569.2 35.55 C 569.2 35.55 570.11 35.06 571.08 34.81 C 571.08 34.81 572.05 34.57 573.14 34.57 C 573.14 34.57 574.89 34.57 575.91 35.49 C 575.91 35.49 576.93 36.41 576.93 37.99 C 576.93 37.99 576.93 39.57 575.91 40.49 C 575.91 40.49 574.89 41.42 573.14 41.42 C 573.14 41.42 572.32 41.42 571.5 41.23 C 571.5 41.23 570.69 41.05 569.83 40.67 L 569.83 48.26 Z " fill-rule="evenodd"/>
<path transform="matrix(1,0,0,-1,0,400)" d="M 585.57 46.91 C 585.57 46.91 583.99 46.91 583.19 45.35 C 583.19 45.35 582.4 43.81 582.4 40.69 C 582.4 40.69 582.4 37.58 583.19 36.02 C 583.19 36.02 583.99 34.47 585.57 34.47 C 585.57 34.47 587.16 34.47 587.95 36.02 C 587.95 36.02 588.75 37.58 588.75 40.69 C 588.75 40.69 588.75 43.81 587.95 45.35 C 587.95 45.35 587.16 46.91 585.57 46.91 M 585.57 48.53 C 585.57 48.53 588.11 48.53 589.45 46.52 C 589.45 46.52 590.8 44.51 590.8 40.69 C 590.8 40.69 590.8 36.87 589.45 34.85 C 589.45 34.85 588.11 32.85 585.57 32.85 C 585.57 32.85 583.03 32.85 581.68 34.85 C 581.68 34.85 580.35 36.87 580.35 40.69 C 580.35 40.69 580.35 44.51 581.68 46.52 C 581.68 46.52 583.03 48.53 585.57 48.53 Z " fill-rule="evenodd"/>
<path transform="matrix(1,0,0,-1,0,400)" d="M 305.15 20.95 L 319.76 20.95 L 319.76 18.98 L 313.63 18.98 L 313.63 3.67 L 311.28 3.67 L 311.28 18.98 L 305.15 18.98 L 305.15 20.95 Z " fill-rule="evenodd"/>
<path transform="matrix(1,0,0,-1,0,400)" d="M 333.32 20.95 L 335.28 20.95 L 329.27 1.47 L 327.3 1.47 L 333.32 20.95 Z " fill-rule="evenodd"/>
<path transform="matrix(1,0,0,-1,0,400)" d="M 345.15 20.95 L 347.48 20.95 L 347.48 13.65 L 355.24 20.95 L 358.25 20.95 L 349.67 12.89 L 358.86 3.67 L 355.78 3.67 L 347.48 11.99 L 347.48 3.67 L 345.15 3.67 L 345.15 20.95 Z " fill-rule="evenodd"/>
<path transform="matrix(1,0,0,-1,0,400)" stroke-width="1" stroke-linecap="butt" stroke-miterlimit="10" stroke-linejoin="miter" fill="none" stroke="#000000" d="M 75.82 56.09 L 75.82 388.19 "/>
<path transform="matrix(1,0,0,-1,0,400)" stroke-width="1" stroke-linecap="butt" stroke-miterlimit="10" stroke-linejoin="miter" fill="none" stroke="#000000" d="M 588.19 56.09 L 588.19 388.19 "/>
<path transform="matrix(1,0,0,-1,0,400)" stroke-width="1" stroke-linecap="butt" stroke-miterlimit="10" stroke-linejoin="miter" fill="none" stroke="#000000" d="M 75.82 100.3 L 81.97 100.3 "/>
<path transform="matrix(1,0,0,-1,0,400)" stroke-width="1" stroke-linecap="butt" stroke-miterlimit="10" stroke-linejoin="miter" fill="none" stroke="#000000" d="M 75.82 169.92 L 81.97 169.92 "/>
<path transform="matrix(1,0,0,-1,0,400)" stroke-width="1" stroke-linecap="butt" stroke-miterlimit="10" stroke-linejoin="miter" fill="none" stroke="#000000" d="M 75.82 239.54 L 81.97 239.54 "/>
<path transform="matrix(1,0,0,-1,0,400)" stroke-width="1" stroke-linecap="butt" stroke-miterlimit="10" stroke-linejoin="miter" fill="none" stroke="#000000" d="M 75.82 309.17 L 81.97 309.17 "/>
<path transform="matrix(1,0,0,-1,0,400)" stroke-width="1" stroke-linecap="butt" stroke-miterlimit="10" stroke-linejoin="miter" fill="none" stroke="#000000" d="M 75.82 378.79 L 81.97 378.79 "/>
<path transform="matrix(1,0,0,-1,0,400)" d="M 49.96 101.11 C 49.96 101.11 48.58 101.11 47.77 100.17 C 47.77 100.17 46.97 99.23 46.97 97.59 C 46.97 97.59 46.97 95.96 47.77 95 C 47.77 95 48.58 94.06 49.96 94.06 C 49.96 94.06 51.33 94.06 52.13 95 C 52.13 95 52.94 95.96 52.94 97.59 C 52.94 97.59 52.94 99.23 52.13 100.17 C 52.13 100.17 51.33 101.11 49.96 101.11 M 54.02 107.52 L 54.02 105.66 C 54.02 105.66 53.25 106.02 52.46 106.22 C 52.46 106.22 51.68 106.41 50.91 106.41 C 50.91 106.41 48.88 106.41 47.81 105.04 C 47.81 105.04 46.75 103.67 46.59 100.91 C 46.59 100.91 47.19 101.79 48.09 102.26 C 48.09 102.26 48.99 102.73 50.08 102.73 C 50.08 102.73 52.36 102.73 53.67 101.34 C 53.67 101.34 55 99.97 55 97.59 C 55 97.59 55 95.26 53.62 93.85 C 53.62 93.85 52.24 92.44 49.96 92.44 C 49.96 92.44 47.33 92.44 45.95 94.45 C 45.95 94.45 44.56 96.46 44.56 100.28 C 44.56 100.28 44.56 103.87 46.26 105.99 C 46.26 105.99 47.96 108.13 50.83 108.13 C 50.83 108.13 51.6 108.13 52.38 107.98 C 52.38 107.98 53.17 107.83 54.02 107.52 Z " fill-rule="evenodd"/>
<path transform="matrix(1,0,0,-1,0,400)" d="M 61.59 106.51 C 61.59 106.51 60.01 106.51 59.21 104.95 C 59.21 104.95 58.42 103.4 58.42 100.28 C 58.42 100.28 58.42 97.17 59.21 95.61 C 59.21 95.61 60.01 94.06 61.59 94.06 C 61.59 94.06 63.18 94.06 63.97 95.61 C 63.97 95.61 64.77 97.17 64.77 100.28 C 64.77 100.28 64.77 103.4 63.97 104.95 C 63.97 104.95 63.18 106.51 61.59 106.51 M 61.59 108.13 C 61.59 108.13 64.13 108.13 65.47 106.11 C 65.47 106.11 66.82 104.11 66.82 100.28 C 66.82 100.28 66.82 96.46 65.47 94.45 C 65.47 94.45 64.13 92.44 61.59 92.44 C 61.59 92.44 59.05 92.44 57.7 94.45 C 57.7 94.45 56.37 96.46 56.37 100.28 C 56.37 100.28 56.37 104.11 57.7 106.11 C 57.7 106.11 59.05 108.13 61.59 108.13 Z " fill-rule="evenodd"/>
<path transform="matrix(1,0,0,-1,0,400)" d="M 49.81 169.54 C 49.81 169.54 48.36 169.54 47.52 168.76 C 47.52 168.76 46.68 167.98 46.68 166.61 C 46.68 166.61 46.68 165.25 47.52 164.47 C 47.52 164.47 48.36 163.69 49.81 163.69 C 49.81 163.69 51.27 163.69 52.11 164.47 C 52.11 164.47 52.95 165.26 52.95 166.61 C 52.95 166.61 52.95 167.98 52.11 168.76 C 52.11 168.76 51.28 169.54 49.81 169.54 M 47.77 170.41 C 47.77 170.41 46.45 170.73 45.71 171.64 C 45.71 171.64 44.98 172.54 44.98 173.83 C 44.98 173.83 44.98 175.65 46.27 176.7 C 46.27 176.7 47.57 177.75 49.81 177.75 C 49.81 177.75 52.07 177.75 53.36 176.7 C 53.36 176.7 54.64 175.65 54.64 173.83 C 54.64 173.83 54.64 172.54 53.91 171.64 C 53.91 171.64 53.18 170.73 51.87 170.41 C 51.87 170.41 53.35 170.07 54.17 169.06 C 54.17 169.06 55 168.06 55 166.61 C 55 166.61 55 164.42 53.65 163.24 C 53.65 163.24 52.32 162.07 49.81 162.07 C 49.81 162.07 47.31 162.07 45.97 163.24 C 45.97 163.24 44.63 164.42 44.63 166.61 C 44.63 166.61 44.63 168.06 45.46 169.06 C 45.46 169.06 46.29 170.07 47.77 170.41 M 47.02 173.64 C 47.02 173.64 47.02 172.47 47.75 171.81 C 47.75 171.81 48.49 171.15 49.81 171.15 C 49.81 171.15 51.13 171.15 51.87 171.81 C 51.87 171.81 52.62 172.47 52.62 173.64 C 52.62 173.64 52.62 174.82 51.87 175.47 C 51.87 175.47 51.13 176.13 49.81 176.13 C 49.81 176.13 48.49 176.13 47.75 175.47 C 47.75 175.47 47.02 174.82 47.02 173.64 Z " fill-rule="evenodd"/>
<path transform="matrix(1,0,0,-1,0,400)" d="M 61.59 176.13 C 61.59 176.13 60.01 176.13 59.21 174.57 C 59.21 174.57 58.42 173.02 58.42 169.9 C 58.42 169.9 58.42 166.8 59.21 165.24 C 59.21 165.24 60.01 163.69 61.59 163.69 C 61.59 163.69 63.18 163.69 63.97 165.24 C 63.97 165.24 64.77 166.8 64.77 169.9 C 64.77 169.9 64.77 173.02 63.97 174.57 C 63.97 174.57 63.18 176.13 61.59 176.13 M 61.59 177.75 C 61.59 177.75 64.13 177.75 65.47 175.74 C 65.47 175.74 66.82 173.73 66.82 169.9 C 66.82 169.9 66.82 166.09 65.47 164.07 C 65.47 164.07 64.13 162.07 61.59 162.07 C 61.59 162.07 59.05 162.07 57.7 164.07 C 57.7 164.07 56.37 166.09 56.37 169.9 C 56.37 169.9 56.37 173.73 57.7 175.74 C 57.7 175.74 59.05 177.75 61.59 177.75 Z " fill-rule="evenodd"/>
<path transform="matrix(1,0,0,-1,0,400)" d="M 34.47 233.7 L 37.81 233.7 L 37.81 245.24 L 34.18 244.51 L 34.18 246.37 L 37.79 247.1 L 39.84 247.1 L 39.84 233.7 L 43.18 233.7 L 43.18 231.98 L 34.47 231.98 L 34.47 233.7 Z " fill-rule="evenodd"/>
<path transform="matrix(1,0,0,-1,0,400)" d="M 49.77 245.76 C 49.77 245.76 48.19 245.76 47.39 244.2 C 47.39 244.2 46.6 242.65 46.6 239.53 C 46.6 239.53 46.6 236.42 47.39 234.86 C 47.39 234.86 48.19 233.31 49.77 233.31 C 49.77 233.31 51.36 233.31 52.15 234.86 C 52.15 234.86 52.95 236.42 52.95 239.53 C 52.95 239.53 52.95 242.65 52.15 244.2 C 52.15 244.2 51.36 245.76 49.77 245.76 M 49.77 247.38 C 49.77 247.38 52.32 247.38 53.65 245.36 C 53.65 245.36 55 243.36 55 239.53 C 55 239.53 55 235.71 53.65 233.69 C 53.65 233.69 52.32 231.69 49.77 231.69 C 49.77 231.69 47.23 231.69 45.88 233.69 C 45.88 233.69 44.55 235.71 44.55 239.53 C 44.55 239.53 44.55 243.36 45.88 245.36 C 45.88 245.36 47.23 247.38 49.77 247.38 Z " fill-rule="evenodd"/>
<path transform="matrix(1,0,0,-1,0,400)" d="M 61.59 245.76 C 61.59 245.76 60.01 245.76 59.21 244.2 C 59.21 244.2 58.42 242.65 58.42 239.53 C 58.42 239.53 58.42 236.42 59.21 234.86 C 59.21 234.86 60.01 233.31 61.59 233.31 C 61.59 233.31 63.18 233.31 63.97 234.86 C 63.97 234.86 64.77 236.42 64.77 239.53 C 64.77 239.53 64.77 242.65 63.97 244.2 C 63.97 244.2 63.18 245.76 61.59 245.76 M 61.59 247.38 C 61.59 247.38 64.13 247.38 65.47 245.36 C 65.47 245.36 66.82 243.36 66.82 239.53 C 66.82 239.53 66.82 235.71 65.47 233.69 C 65.47 233.69 64.13 231.69 61.59 231.69 C 61.59 231.69 59.05 231.69 57.7 233.69 C 57.7 233.69 56.37 235.71 56.37 239.53 C 56.37 239.53 56.37 243.36 57.7 245.36 C 57.7 245.36 59.05 247.38 61.59 247.38 Z " fill-rule="evenodd"/>
<path transform="matrix(1,0,0,-1,0,400)" d="M 35.17 303.33 L 38.51 303.33 L 38.51 314.86 L 34.88 314.13 L 34.88 316 L 38.49 316.73 L 40.54 316.73 L 40.54 303.33 L 43.88 303.33 L 43.88 301.61 L 35.17 301.61 L 35.17 303.33 Z " fill-rule="evenodd"/>
<path transform="matrix(1,0,0,-1,0,400)" d="M 47.86 303.33 L 55 303.33 L 55 301.61 L 45.4 301.61 L 45.4 303.33 C 45.4 303.33 46.56 304.53 48.57 306.56 C 48.57 306.56 50.58 308.59 51.1 309.18 C 51.1 309.18 52.08 310.29 52.47 311.04 C 52.47 311.04 52.86 311.81 52.86 312.55 C 52.86 312.55 52.86 313.76 52.01 314.52 C 52.01 314.52 51.17 315.28 49.81 315.28 C 49.81 315.28 48.85 315.28 47.78 314.94 C 47.78 314.94 46.72 314.61 45.5 313.93 L 45.5 316 C 45.5 316 46.74 316.49 47.81 316.75 C 47.81 316.75 48.88 317 49.77 317 C 49.77 317 52.12 317 53.52 315.83 C 53.52 315.83 54.92 314.65 54.92 312.69 C 54.92 312.69 54.92 311.75 54.56 310.91 C 54.56 310.91 54.22 310.08 53.3 308.95 C 53.3 308.95 53.04 308.65 51.69 307.25 C 51.69 307.25 50.33 305.85 47.86 303.33 Z " fill-rule="evenodd"/>
<path transform="matrix(1,0,0,-1,0,400)" d="M 61.59 315.38 C 61.59 315.38 60.01 315.38 59.21 313.82 C 59.21 313.82 58.42 312.27 58.42 309.15 C 58.42 309.15 58.42 306.04 59.21 304.48 C 59.21 304.48 60.01 302.93 61.59 302.93 C 61.59 302.93 63.18 302.93 63.97 304.48 C 63.97 304.48 64.77 306.04 64.77 309.15 C 64.77 309.15 64.77 312.27 63.97 313.82 C 63.97 313.82 63.18 315.38 61.59 315.38 M 61.59 317 C 61.59 317 64.13 317 65.47 314.98 C 65.47 314.98 66.82 312.98 66.82 309.15 C 66.82 309.15 66.82 305.33 65.47 303.32 C 65.47 303.32 64.13 301.31 61.59 301.31 C 61.59 301.31 59.05 301.31 57.7 303.32 C 57.7 303.32 56.37 305.33 56.37 309.15 C 56.37 309.15 56.37 312.98 57.7 314.98 C 57.7 314.98 59.05 317 61.59 317 Z " fill-rule="evenodd"/>
<path transform="matrix(1,0,0,-1,0,400)" d="M 34.26 372.95 L 37.6 372.95 L 37.6 384.49 L 33.97 383.76 L 33.97 385.62 L 37.58 386.35 L 39.63 386.35 L 39.63 372.95 L 42.97 372.95 L 42.97 371.23 L 34.26 371.23 L 34.26 372.95 Z " fill-rule="evenodd"/>
<path transform="matrix(1,0,0,-1,0,400)" d="M 50.81 384.57 L 45.64 376.5 L 50.81 376.5 L 50.81 384.57 M 50.27 386.35 L 52.84 386.35 L 52.84 376.5 L 55 376.5 L 55 374.79 L 52.84 374.79 L 52.84 371.23 L 50.81 371.23 L 50.81 374.79 L 43.98 374.79 L 43.98 376.77 L 50.27 386.35 Z " fill-rule="evenodd"/>
<path transform="matrix(1,0,0,-1,0,400)" d="M 61.59 385 C 61.59 385 60.01 385 59.21 383.44 C 59.21 383.44 58.42 381.89 58.42 378.77 C 58.42 378.77 58.42 375.67 59.21 374.11 C 59.21 374.11 60.01 372.56 61.59 372.56 C 61.59 372.56 63.18 372.56 63.97 374.11 C 63.97 374.11 64.77 375.67 64.77 378.77 C 64.77 378.77 64.77 381.89 63.97 383.44 C 63.97 383.44 63.18 385 61.59 385 M 61.59 386.62 C 61.59 386.62 64.13 386.62 65.47 384.61 C 65.47 384.61 66.82 382.6 66.82 378.77 C 66.82 378.77 66.82 374.96 65.47 372.94 C 65.47 372.94 64.13 370.94 61.59 370.94 C 61.59 370.94 59.05 370.94 57.7 372.94 C 57.7 372.94 56.37 374.96 56.37 378.77 C 56.37 378.77 56.37 382.6 57.7 384.61 C 57.7 384.61 59.05 386.62 61.59 386.62 Z " fill-rule="evenodd"/>
<path transform="matrix(1,0,0,-1,0,400)" d="M 3.83 165.76 L 6.3 165.76 C 6.3 165.76 5.2 164.58 4.65 163.24 C 4.65 163.24 4.11 161.91 4.11 160.4 C 4.11 160.4 4.11 157.44 5.93 155.86 C 5.93 155.86 7.73 154.29 11.16 154.29 C 11.16 154.29 14.57 154.29 16.39 155.86 C 16.39 155.86 18.2 157.44 18.2 160.4 C 18.2 160.4 18.2 161.91 17.65 163.24 C 17.65 163.24 17.11 164.58 16.01 165.76 L 18.45 165.76 C 18.45 165.76 19.28 164.53 19.7 163.16 C 19.7 163.16 20.12 161.79 20.12 160.26 C 20.12 160.26 20.12 156.34 17.72 154.08 C 17.72 154.08 15.31 151.82 11.16 151.82 C 11.16 151.82 6.99 151.82 4.6 154.08 C 4.6 154.08 2.19 156.34 2.19 160.26 C 2.19 160.26 2.19 161.81 2.61 163.18 C 2.61 163.18 3.01 164.56 3.83 165.76 Z " fill-rule="evenodd"/>
<path transform="matrix(1,0,0,-1,0,400)" d="M 17.84 170.05 L 24.71 170.05 L 24.71 167.91 L 6.82 167.91 L 6.82 170.05 L 8.79 170.05 C 8.79 170.05 7.63 170.73 7.07 171.74 C 7.07 171.74 6.51 172.77 6.51 174.2 C 6.51 174.2 6.51 176.56 8.38 178.03 C 8.38 178.03 10.26 179.51 13.31 179.51 C 13.31 179.51 16.37 179.51 18.24 178.03 C 18.24 178.03 20.12 176.56 20.12 174.2 C 20.12 174.2 20.12 172.77 19.56 171.74 C 19.56 171.74 18.99 170.73 17.84 170.05 M 13.31 177.3 C 13.31 177.3 10.96 177.3 9.63 176.33 C 9.63 176.33 8.29 175.37 8.29 173.68 C 8.29 173.68 8.29 171.99 9.63 171.01 C 9.63 171.01 10.96 170.05 13.31 170.05 C 13.31 170.05 15.66 170.05 17 171.01 C 17 171.01 18.33 171.99 18.33 173.68 C 18.33 173.68 18.33 175.37 17 176.33 C 17 176.33 15.66 177.3 13.31 177.3 Z " fill-rule="evenodd"/>
<path transform="matrix(1,0,0,-1,0,400)" d="M 2.5 193.06 L 2.5 195.03 L 21.98 189.01 L 21.98 187.04 L 2.5 193.06 Z " fill-rule="evenodd"/>
<path transform="matrix(1,0,0,-1,0,400)" d="M 1.8 209.91 C 1.8 209.91 4.46 208.36 7.06 207.61 C 7.06 207.61 9.67 206.86 12.34 206.86 C 12.34 206.86 15.01 206.86 17.64 207.61 C 17.64 207.61 20.26 208.38 22.91 209.91 L 22.91 208.06 C 22.91 208.06 20.19 206.33 17.56 205.46 C 17.56 205.46 14.93 204.6 12.34 204.6 C 12.34 204.6 9.76 204.6 7.14 205.46 C 7.14 205.46 4.53 206.32 1.8 208.06 L 1.8 209.91 Z " fill-rule="evenodd"/>
<path transform="matrix(1,0,0,-1,0,400)" d="M 2.5 212.24 L 2.5 214.58 L 18.58 214.58 C 18.58 214.58 21.7 214.58 23.11 213.39 C 23.11 213.39 24.53 212.21 24.53 209.58 L 24.53 208.69 L 22.56 208.69 L 22.56 209.42 C 22.56 209.42 22.56 210.97 21.69 211.6 C 21.69 211.6 20.82 212.24 18.58 212.24 L 2.5 212.24 Z " fill-rule="evenodd"/>
<path transform="matrix(1,0,0,-1,0,400)" d="M 2.5 220.6 L 2.5 222.57 L 21.98 216.55 L 21.98 214.58 L 2.5 220.6 Z " fill-rule="evenodd"/>
<path transform="matrix(1,0,0,-1,0,400)" d="M 2.5 224.89 L 2.5 227.23 L 9.8 227.23 L 2.5 234.98 L 2.5 237.99 L 10.56 229.42 L 19.78 238.61 L 19.78 235.53 L 11.46 227.23 L 19.78 227.23 L 19.78 224.89 L 2.5 224.89 Z " fill-rule="evenodd"/>
<path transform="matrix(1,0,0,-1,0,400)" d="M 2.5 244.63 L 2.5 246.59 L 21.98 240.57 L 21.98 238.61 L 2.5 244.63 Z " fill-rule="evenodd"/>
<path transform="matrix(1,0,0,-1,0,400)" d="M 9.31 258.92 C 9.31 258.92 7.87 259.72 7.19 260.83 C 7.19 260.83 6.51 261.94 6.51 263.44 C 6.51 263.44 6.51 265.47 7.93 266.57 C 7.93 266.57 9.34 267.67 11.96 267.67 L 19.78 267.67 L 19.78 265.53 L 12.03 265.53 C 12.03 265.53 10.16 265.53 9.26 264.87 C 9.26 264.87 8.36 264.21 8.36 262.85 C 8.36 262.85 8.36 261.2 9.46 260.24 C 9.46 260.24 10.56 259.28 12.45 259.28 L 19.78 259.28 L 19.78 257.14 L 12.03 257.14 C 12.03 257.14 10.15 257.14 9.26 256.48 C 9.26 256.48 8.36 255.82 8.36 254.44 C 8.36 254.44 8.36 252.81 9.47 251.85 C 9.47 251.85 10.57 250.89 12.45 250.89 L 19.78 250.89 L 19.78 248.75 L 6.82 248.75 L 6.82 250.89 L 8.83 250.89 C 8.83 250.89 7.64 251.62 7.07 252.63 C 7.07 252.63 6.51 253.65 6.51 255.05 C 6.51 255.05 6.51 256.47 7.22 257.45 C 7.22 257.45 7.94 258.44 9.31 258.92 Z " fill-rule="evenodd"/>
<path transform="matrix(1,0,0,-1,0,400)" d="M 8.31 274.93 C 8.31 274.93 8.31 273.21 9.65 272.22 C 9.65 272.22 10.98 271.22 13.31 271.22 C 13.31 271.22 15.64 271.22 16.98 272.21 C 16.98 272.21 18.31 273.2 18.31 274.93 C 18.31 274.93 18.31 276.63 16.97 277.62 C 16.97 277.62 15.63 278.62 13.31 278.62 C 13.31 278.62 11.01 278.62 9.67 277.62 C 9.67 277.62 8.31 276.63 8.31 274.93 M 6.51 274.93 C 6.51 274.93 6.51 277.7 8.31 279.29 C 8.31 279.29 10.12 280.88 13.31 280.88 C 13.31 280.88 16.49 280.88 18.31 279.29 C 18.31 279.29 20.12 277.7 20.12 274.93 C 20.12 274.93 20.12 272.14 18.31 270.55 C 18.31 270.55 16.49 268.98 13.31 268.98 C 13.31 268.98 10.12 268.98 8.31 270.55 C 8.31 270.55 6.51 272.14 6.51 274.93 Z " fill-rule="evenodd"/>
<path transform="matrix(1,0,0,-1,0,400)" d="M 1.77 283.11 L 1.77 285.24 L 19.78 285.24 L 19.78 283.11 L 1.77 283.11 Z " fill-rule="evenodd"/>
<path transform="matrix(1,0,0,-1,0,400)" d="M 1.8 287.14 L 1.8 288.99 C 1.8 288.99 4.53 290.72 7.14 291.58 C 7.14 291.58 9.76 292.45 12.34 292.45 C 12.34 292.45 14.93 292.45 17.56 291.58 C 17.56 291.58 20.19 290.72 22.91 288.99 L 22.91 287.14 C 22.91 287.14 20.26 288.68 17.64 289.43 C 17.64 289.43 15.01 290.19 12.34 290.19 C 12.34 290.19 9.67 290.19 7.06 289.43 C 7.06 289.43 4.46 288.68 1.8 287.14 Z " fill-rule="evenodd"/>
<path transform="matrix(1,0,0,-1,0,400)" stroke-width="2.2" stroke-linecap="butt" stroke-miterlimit="10" stroke-linejoin="miter" fill="none" stroke="#ff0000" d="M 75.82 60.37 L 77.36 60.63 L 80.12 61.09 L 82.87 61.56 L 85.62 62.03 L 88.38 62.51 L 91.13 62.99 L 93.88 63.47 L 96.63 63.95 L 99.39 64.43 L 102.14 64.92 L 104.89 65.41 L 107.65 65.91 L 110.4 66.41 L 113.15 66.91 L 115.9 67.41 L 118.66 67.92 L 121.41 68.43 L 124.16 68.94 L 126.92 69.45 L 129.67 69.97 L 132.42 70.49 L 135.17 71.02 L 137.93 71.55 L 140.68 72.08 L 143.43 72.61 L 146.19 73.15 L 148.94 73.68 L 151.69 74.23 L 154.44 74.77 L 157.2 75.32 L 159.95 75.87 L 162.7 76.43 L 165.46 76.98 L 168.21 77.54 L 170.96 78.11 L 173.71 78.67 L 176.47 79.24 L 179.22 79.81 L 181.97 80.38 L 184.73 80.96 L 187.48 81.54 L 190.23 82.12 L 192.98 82.7 L 195.74 83.29 L 198.49 83.87 L 201.24 84.46 L 204 85.05 L 206.75 85.65 L 209.5 86.24 L 212.25 86.84 L 215.01 87.44 L 217.76 88.04 L 220.51 88.64 L 223.27 89.24 L 226.02 89.84 L 228.77 90.44 L 231.52 91.05 L 234.28 91.65 L 237.03 92.25 L 239.78 92.86 L 242.54 93.46 L 245.29 94.07 L 248.04 94.67 L 250.79 95.27 L 253.55 95.87 L 256.3 96.47 L 259.05 97.06 L 261.81 97.66 L 264.56 98.25 L 267.31 98.84 L 270.06 99.43 L 272.82 100.01 L 275.57 100.59 L 278.32 101.17 L 281.08 101.74 L 283.83 102.3 L 286.58 102.86 L 289.33 103.42 L 292.09 103.97 L 294.84 104.51 L 297.59 105.05 L 300.35 105.58 L 303.1 106.1 L 305.85 106.62 L 308.6 107.12 L 311.36 107.62 L 314.11 108.11 L 316.86 108.59 L 319.62 109.05 L 322.37 109.51 L 325.12 109.96 L 327.87 110.4 L 330.63 110.82 L 333.38 111.23 L 336.13 111.63 L 338.89 112.02 L 341.64 112.39 L 344.39 112.75 L 347.14 113.1 L 349.9 113.43 L 352.65 113.75 L 355.4 114.05 L 358.16 114.34 L 360.91 114.62 L 363.66 114.87 L 366.41 115.12 L 369.17 115.34 L 371.92 115.55 L 374.67 115.75 L 377.43 115.92 L 380.18 116.09 L 382.93 116.23 L 385.68 116.36 L 388.44 116.47 L 391.19 116.57 L 393.94 116.65 L 396.7 116.71 L 399.45 116.76 L 402.2 116.79 L 404.95 116.81 L 407.71 116.81 L 410.46 116.79 L 413.21 116.76 L 415.97 116.72 L 418.72 116.66 L 421.47 116.58 L 424.22 116.49 L 426.98 116.39 L 429.73 116.27 L 432.48 116.14 L 435.24 116 L 437.99 115.85 L 440.74 115.68 L 443.49 115.5 L 446.25 115.31 L 449 115.11 L 451.75 114.9 L 454.51 114.68 L 457.26 114.45 L 460.01 114.21 L 462.76 113.96 L 465.52 113.7 L 468.27 113.44 L 471.02 113.16 L 473.78 112.88 L 476.53 112.6 L 479.28 112.3 L 482.03 112.01 L 484.79 111.7 L 487.54 111.39 L 490.29 111.08 L 493.05 110.76 L 495.8 110.44 L 498.55 110.11 L 501.3 109.78 L 504.06 109.45 L 506.81 109.11 L 509.56 108.78 L 512.32 108.44 L 515.07 108.1 L 517.82 107.75 L 520.57 107.41 L 523.33 107.06 L 526.08 106.72 L 528.83 106.37 L 531.59 106.02 L 534.34 105.68 L 537.09 105.33 L 539.84 104.99 L 542.6 104.64 L 545.35 104.29 L 548.1 103.95 L 550.86 103.61 L 553.61 103.27 L 556.36 102.93 L 559.11 102.59 L 561.87 102.25 L 564.62 101.91 L 567.37 101.58 L 570.13 101.25 L 572.88 100.92 L 575.63 100.59 L 578.38 100.27 L 581.14 99.94 L 583.89 99.62 L 586.64 99.3 L 588.19 99.13 "/>
<path transform="matrix(1,0,0,-1,0,400)" stroke-width="2.2" stroke-linecap="butt" stroke-miterlimit="10" stroke-linejoin="miter" fill="none" stroke="#ffa500" d="M 75.82 226.7 L 77.36 227.44 L 80.12 228.77 L 82.87 230.11 L 85.62 231.46 L 88.38 232.83 L 91.13 234.21 L 93.88 235.6 L 96.63 237.01 L 99.39 238.42 L 102.14 239.85 L 104.89 241.28 L 107.65 242.73 L 110.4 244.18 L 113.15 245.65 L 115.9 247.12 L 118.66 248.6 L 121.41 250.08 L 124.16 251.57 L 126.92 253.06 L 129.67 254.56 L 132.42 256.05 L 135.17 257.55 L 137.93 259.04 L 140.68 260.53 L 143.43 262.02 L 146.19 263.49 L 148.94 264.96 L 151.69 266.42 L 154.44 267.86 L 157.2 269.29 L 159.95 270.7 L 162.7 272.09 L 165.46 273.46 L 168.21 274.79 L 170.96 276.1 L 173.71 277.38 L 176.47 278.62 L 179.22 279.81 L 181.97 280.97 L 184.73 282.08 L 187.48 283.14 L 190.23 284.14 L 192.98 285.09 L 195.74 285.97 L 198.49 286.79 L 201.24 287.54 L 204 288.22 L 206.75 288.82 L 209.5 289.35 L 212.25 289.79 L 215.01 290.14 L 217.76 290.4 L 220.51 290.57 L 223.27 290.65 L 226.02 290.63 L 228.77 290.52 L 231.52 290.3 L 234.28 289.98 L 237.03 289.56 L 239.78 289.04 L 242.54 288.42 L 245.29 287.69 L 248.04 286.86 L 250.79 285.94 L 253.55 284.91 L 256.3 283.79 L 259.05 282.58 L 261.81 281.28 L 264.56 279.88 L 267.31 278.41 L 270.06 276.85 L 272.82 275.21 L 275.57 273.51 L 278.32 271.73 L 281.08 269.89 L 283.83 267.99 L 286.58 266.03 L 289.33 264.03 L 292.09 261.97 L 294.84 259.88 L 297.59 257.75 L 300.35 255.59 L 303.1 253.4 L 305.85 251.18 L 308.6 248.95 L 311.36 246.69 L 314.11 244.43 L 316.86 242.16 L 319.62 239.89 L 322.37 237.61 L 325.12 235.33 L 327.87 233.06 L 330.63 230.79 L 333.38 228.54 L 336.13 226.29 L 338.89 224.06 L 341.64 221.85 L 344.39 219.65 L 347.14 217.47 L 349.9 215.31 L 352.65 213.18 L 355.4 211.07 L 358.16 208.98 L 360.91 206.92 L 363.66 204.88 L 366.41 202.87 L 369.17 200.89 L 371.92 198.93 L 374.67 197 L 377.43 195.1 L 380.18 193.23 L 382.93 191.39 L 385.68 189.58 L 388.44 187.79 L 391.19 186.04 L 393.94 184.31 L 396.7 182.61 L 399.45 180.94 L 402.2 179.3 L 404.95 177.69 L 407.71 176.1 L 410.46 174.55 L 413.21 173.02 L 415.97 171.51 L 418.72 170.04 L 421.47 168.59 L 424.22 167.16 L 426.98 165.76 L 429.73 164.39 L 432.48 163.04 L 435.24 161.72 L 437.99 160.42 L 440.74 159.14 L 443.49 157.89 L 446.25 156.66 L 449 155.45 L 451.75 154.26 L 454.51 153.1 L 457.26 151.96 L 460.01 150.83 L 462.76 149.73 L 465.52 148.65 L 468.27 147.58 L 471.02 146.54 L 473.78 145.52 L 476.53 144.51 L 479.28 143.52 L 482.03 142.55 L 484.79 141.6 L 487.54 140.66 L 490.29 139.74 L 493.05 138.84 L 495.8 137.95 L 498.55 137.08 L 501.3 136.23 L 504.06 135.39 L 506.81 134.56 L 509.56 133.75 L 512.32 132.95 L 515.07 132.17 L 517.82 131.4 L 520.57 130.64 L 523.33 129.9 L 526.08 129.17 L 528.83 128.45 L 531.59 127.74 L 534.34 127.05 L 537.09 126.37 L 539.84 125.7 L 542.6 125.04 L 545.35 124.39 L 548.1 123.75 L 550.86 123.13 L 553.61 122.51 L 556.36 121.9 L 559.11 121.31 L 561.87 120.72 L 564.62 120.15 L 567.37 119.58 L 570.13 119.02 L 572.88 118.47 L 575.63 117.93 L 578.38 117.4 L 581.14 116.88 L 583.89 116.36 L 586.64 115.86 L 588.19 115.58 "/>
<path transform="matrix(1,0,0,-1,0,400)" stroke-width="2.2" stroke-linecap="butt" stroke-miterlimit="10" stroke-linejoin="miter" fill="none" stroke="#0000ff" d="M 75.82 211.82 L 77.36 212.38 L 80.12 213.39 L 82.87 214.42 L 85.62 215.48 L 88.38 216.55 L 91.13 217.65 L 93.88 218.77 L 96.63 219.91 L 99.39 221.07 L 102.14 222.26 L 104.89 223.46 L 107.65 224.69 L 110.4 225.94 L 113.15 227.22 L 115.9 228.51 L 118.66 229.83 L 121.41 231.17 L 124.16 232.53 L 126.92 233.92 L 129.67 235.33 L 132.42 236.76 L 135.17 238.21 L 137.93 239.68 L 140.68 241.17 L 143.43 242.68 L 146.19 244.21 L 148.94 245.76 L 151.69 247.33 L 154.44 248.92 L 157.2 250.52 L 159.95 252.13 L 162.7 253.76 L 165.46 255.4 L 168.21 257.05 L 170.96 258.71 L 173.71 260.38 L 176.47 262.05 L 179.22 263.73 L 181.97 265.4 L 184.73 267.07 L 187.48 268.74 L 190.23 270.4 L 192.98 272.05 L 195.74 273.68 L 198.49 275.29 L 201.24 276.88 L 204 278.44 L 206.75 279.97 L 209.5 281.45 L 212.25 282.88 L 215.01 284.25 L 217.76 285.56 L 220.51 286.79 L 223.27 287.93 L 226.02 288.97 L 228.77 289.91 L 231.52 290.74 L 234.28 291.44 L 237.03 292.01 L 239.78 292.45 L 242.54 292.74 L 245.29 292.9 L 248.04 292.91 L 250.79 292.78 L 253.55 292.51 L 256.3 292.11 L 259.05 291.57 L 261.81 290.91 L 264.56 290.12 L 267.31 289.22 L 270.06 288.21 L 272.82 287.09 L 275.57 285.86 L 278.32 284.55 L 281.08 283.13 L 283.83 281.63 L 286.58 280.05 L 289.33 278.38 L 292.09 276.64 L 294.84 274.82 L 297.59 272.93 L 300.35 270.98 L 303.1 268.96 L 305.85 266.89 L 308.6 264.76 L 311.36 262.59 L 314.11 260.37 L 316.86 258.11 L 319.62 255.82 L 322.37 253.49 L 325.12 251.14 L 327.87 248.76 L 330.63 246.37 L 333.38 243.96 L 336.13 241.54 L 338.89 239.12 L 341.64 236.69 L 344.39 234.27 L 347.14 231.84 L 349.9 229.43 L 352.65 227.03 L 355.4 224.64 L 358.16 222.26 L 360.91 219.91 L 363.66 217.57 L 366.41 215.26 L 369.17 212.96 L 371.92 210.7 L 374.67 208.46 L 377.43 206.25 L 380.18 204.07 L 382.93 201.92 L 385.68 199.79 L 388.44 197.7 L 391.19 195.65 L 393.94 193.62 L 396.7 191.62 L 399.45 189.66 L 402.2 187.73 L 404.95 185.84 L 407.71 183.97 L 410.46 182.14 L 413.21 180.34 L 415.97 178.57 L 418.72 176.84 L 421.47 175.13 L 424.22 173.46 L 426.98 171.82 L 429.73 170.21 L 432.48 168.62 L 435.24 167.07 L 437.99 165.55 L 440.74 164.05 L 443.49 162.59 L 446.25 161.15 L 449 159.74 L 451.75 158.36 L 454.51 157 L 457.26 155.67 L 460.01 154.36 L 462.76 153.08 L 465.52 151.82 L 468.27 150.59 L 471.02 149.37 L 473.78 148.19 L 476.53 147.02 L 479.28 145.88 L 482.03 144.76 L 484.79 143.66 L 487.54 142.58 L 490.29 141.52 L 493.05 140.48 L 495.8 139.46 L 498.55 138.45 L 501.3 137.47 L 504.06 136.51 L 506.81 135.56 L 509.56 134.63 L 512.32 133.72 L 515.07 132.82 L 517.82 131.94 L 520.57 131.07 L 523.33 130.23 L 526.08 129.39 L 528.83 128.57 L 531.59 127.77 L 534.34 126.98 L 537.09 126.21 L 539.84 125.44 L 542.6 124.7 L 545.35 123.96 L 548.1 123.24 L 550.86 122.53 L 553.61 121.83 L 556.36 121.15 L 559.11 120.47 L 561.87 119.81 L 564.62 119.16 L 567.37 118.52 L 570.13 117.89 L 572.88 117.27 L 575.63 116.67 L 578.38 116.07 L 581.14 115.48 L 583.89 114.9 L 586.64 114.34 L 588.19 114.02 "/>
<path transform="matrix(1,0,0,-1,0,400)" stroke-width="2.2" stroke-linecap="butt" stroke-miterlimit="10" stroke-linejoin="miter" fill="none" stroke="#add8e6" d="M 75.82 216.41 L 77.36 217.71 L 80.12 220.07 L 82.87 222.49 L 85.62 224.97 L 88.38 227.51 L 91.13 230.12 L 93.88 232.79 L 96.63 235.53 L 99.39 238.33 L 102.14 241.21 L 104.89 244.15 L 107.65 247.17 L 110.4 250.25 L 113.15 253.41 L 115.9 256.65 L 118.66 259.95 L 121.41 263.32 L 124.16 266.77 L 126.92 270.28 L 129.67 273.86 L 132.42 277.5 L 135.17 281.19 L 137.93 284.93 L 140.68 288.72 L 143.43 292.55 L 146.19 296.4 L 148.94 300.26 L 151.69 304.13 L 154.44 307.98 L 157.2 311.8 L 159.95 315.57 L 162.7 319.27 L 165.46 322.88 L 168.21 326.36 L 170.96 329.7 L 173.71 332.86 L 176.47 335.82 L 179.22 338.55 L 181.97 341.02 L 184.73 343.19 L 187.48 345.05 L 190.23 346.57 L 192.98 347.72 L 195.74 348.5 L 198.49 348.89 L 201.24 348.87 L 204 348.46 L 206.75 347.65 L 209.5 346.45 L 212.25 344.87 L 215.01 342.93 L 217.76 340.66 L 220.51 338.07 L 223.27 335.21 L 226.02 332.08 L 228.77 328.74 L 231.52 325.2 L 234.28 321.49 L 237.03 317.65 L 239.78 313.7 L 242.54 309.67 L 245.29 305.58 L 248.04 301.45 L 250.79 297.3 L 253.55 293.15 L 256.3 289.02 L 259.05 284.91 L 261.81 280.84 L 264.56 276.82 L 267.31 272.85 L 270.06 268.95 L 272.82 265.12 L 275.57 261.35 L 278.32 257.67 L 281.08 254.06 L 283.83 250.53 L 286.58 247.08 L 289.33 243.71 L 292.09 240.42 L 294.84 237.21 L 297.59 234.08 L 300.35 231.03 L 303.1 228.05 L 305.85 225.15 L 308.6 222.33 L 311.36 219.58 L 314.11 216.9 L 316.86 214.28 L 319.62 211.74 L 322.37 209.26 L 325.12 206.84 L 327.87 204.49 L 330.63 202.2 L 333.38 199.96 L 336.13 197.78 L 338.89 195.65 L 341.64 193.58 L 344.39 191.56 L 347.14 189.59 L 349.9 187.66 L 352.65 185.79 L 355.4 183.95 L 358.16 182.17 L 360.91 180.42 L 363.66 178.71 L 366.41 177.05 L 369.17 175.42 L 371.92 173.83 L 374.67 172.28 L 377.43 170.76 L 380.18 169.27 L 382.93 167.82 L 385.68 166.4 L 388.44 165.01 L 391.19 163.65 L 393.94 162.32 L 396.7 161.02 L 399.45 159.75 L 402.2 158.5 L 404.95 157.28 L 407.71 156.08 L 410.46 154.91 L 413.21 153.76 L 415.97 152.64 L 418.72 151.53 L 421.47 150.45 L 424.22 149.39 L 426.98 148.35 L 429.73 147.33 L 432.48 146.33 L 435.24 145.35 L 437.99 144.39 L 440.74 143.45 L 443.49 142.52 L 446.25 141.61 L 449 140.72 L 451.75 139.84 L 454.51 138.98 L 457.26 138.14 L 460.01 137.31 L 462.76 136.49 L 465.52 135.69 L 468.27 134.91 L 471.02 134.13 L 473.78 133.37 L 476.53 132.63 L 479.28 131.89 L 482.03 131.17 L 484.79 130.46 L 487.54 129.77 L 490.29 129.08 L 493.05 128.41 L 495.8 127.74 L 498.55 127.09 L 501.3 126.45 L 504.06 125.82 L 506.81 125.2 L 509.56 124.59 L 512.32 123.99 L 515.07 123.4 L 517.82 122.81 L 520.57 122.24 L 523.33 121.68 L 526.08 121.12 L 528.83 120.58 L 531.59 120.04 L 534.34 119.51 L 537.09 118.99 L 539.84 118.47 L 542.6 117.97 L 545.35 117.47 L 548.1 116.98 L 550.86 116.49 L 553.61 116.02 L 556.36 115.55 L 559.11 115.09 L 561.87 114.63 L 564.62 114.18 L 567.37 113.74 L 570.13 113.31 L 572.88 112.88 L 575.63 112.45 L 578.38 112.04 L 581.14 111.63 L 583.89 111.22 L 586.64 110.82 L 588.19 110.6 "/>
<path transform="matrix(1,0,0,-1,0,400)" stroke-width="2.2" stroke-linecap="butt" stroke-miterlimit="10" stroke-linejoin="miter" fill="none" stroke="#008000" d="M 75.82 202.2 L 77.36 202.97 L 80.12 204.36 L 82.87 205.76 L 85.62 207.19 L 88.38 208.63 L 91.13 210.09 L 93.88 211.56 L 96.63 213.05 L 99.39 214.56 L 102.14 216.09 L 104.89 217.62 L 107.65 219.18 L 110.4 220.74 L 113.15 222.32 L 115.9 223.92 L 118.66 225.52 L 121.41 227.13 L 124.16 228.75 L 126.92 230.38 L 129.67 232.01 L 132.42 233.65 L 135.17 235.29 L 137.93 236.93 L 140.68 238.57 L 143.43 240.21 L 146.19 241.84 L 148.94 243.46 L 151.69 245.07 L 154.44 246.66 L 157.2 248.24 L 159.95 249.8 L 162.7 251.34 L 165.46 252.85 L 168.21 254.33 L 170.96 255.78 L 173.71 257.19 L 176.47 258.56 L 179.22 259.88 L 181.97 261.15 L 184.73 262.37 L 187.48 263.54 L 190.23 264.64 L 192.98 265.67 L 195.74 266.64 L 198.49 267.53 L 201.24 268.34 L 204 269.07 L 206.75 269.72 L 209.5 270.28 L 212.25 270.74 L 215.01 271.11 L 217.76 271.39 L 220.51 271.56 L 223.27 271.64 L 226.02 271.61 L 228.77 271.48 L 231.52 271.24 L 234.28 270.9 L 237.03 270.46 L 239.78 269.91 L 242.54 269.26 L 245.29 268.51 L 248.04 267.66 L 250.79 266.72 L 253.55 265.68 L 256.3 264.55 L 259.05 263.33 L 261.81 262.04 L 264.56 260.66 L 267.31 259.2 L 270.06 257.67 L 272.82 256.08 L 275.57 254.43 L 278.32 252.71 L 281.08 250.94 L 283.83 249.12 L 286.58 247.26 L 289.33 245.36 L 292.09 243.42 L 294.84 241.45 L 297.59 239.45 L 300.35 237.43 L 303.1 235.39 L 305.85 233.33 L 308.6 231.26 L 311.36 229.18 L 314.11 227.1 L 316.86 225.01 L 319.62 222.92 L 322.37 220.83 L 325.12 218.75 L 327.87 216.68 L 330.63 214.61 L 333.38 212.56 L 336.13 210.52 L 338.89 208.5 L 341.64 206.49 L 344.39 204.49 L 347.14 202.52 L 349.9 200.57 L 352.65 198.64 L 355.4 196.73 L 358.16 194.84 L 360.91 192.97 L 363.66 191.13 L 366.41 189.32 L 369.17 187.52 L 371.92 185.76 L 374.67 184.02 L 377.43 182.3 L 380.18 180.61 L 382.93 178.94 L 385.68 177.3 L 388.44 175.69 L 391.19 174.1 L 393.94 172.54 L 396.7 171 L 399.45 169.49 L 402.2 168 L 404.95 166.54 L 407.71 165.11 L 410.46 163.69 L 413.21 162.3 L 415.97 160.94 L 418.72 159.6 L 421.47 158.28 L 424.22 156.98 L 426.98 155.71 L 429.73 154.46 L 432.48 153.23 L 435.24 152.03 L 437.99 150.84 L 440.74 149.68 L 443.49 148.53 L 446.25 147.41 L 449 146.3 L 451.75 145.22 L 454.51 144.16 L 457.26 143.11 L 460.01 142.08 L 462.76 141.07 L 465.52 140.08 L 468.27 139.11 L 471.02 138.15 L 473.78 137.21 L 476.53 136.29 L 479.28 135.38 L 482.03 134.49 L 484.79 133.61 L 487.54 132.75 L 490.29 131.91 L 493.05 131.08 L 495.8 130.26 L 498.55 129.46 L 501.3 128.67 L 504.06 127.9 L 506.81 127.14 L 509.56 126.39 L 512.32 125.65 L 515.07 124.93 L 517.82 124.22 L 520.57 123.52 L 523.33 122.84 L 526.08 122.16 L 528.83 121.5 L 531.59 120.85 L 534.34 120.21 L 537.09 119.58 L 539.84 118.96 L 542.6 118.35 L 545.35 117.75 L 548.1 117.16 L 550.86 116.58 L 553.61 116.01 L 556.36 115.45 L 559.11 114.9 L 561.87 114.36 L 564.62 113.83 L 567.37 113.3 L 570.13 112.79 L 572.88 112.28 L 575.63 111.78 L 578.38 111.29 L 581.14 110.8 L 583.89 110.33 L 586.64 109.86 L 588.19 109.6 "/>
<path transform="matrix(1,0,0,-1,0,400)" stroke-width="2.2" stroke-linecap="butt" stroke-miterlimit="10" stroke-linejoin="miter" fill="none" stroke="#800080" d="M 75.82 245.01 L 77.36 245.9 L 80.12 247.52 L 82.87 249.15 L 85.62 250.8 L 88.38 252.47 L 91.13 254.16 L 93.88 255.87 L 96.63 257.6 L 99.39 259.34 L 102.14 261.09 L 104.89 262.86 L 107.65 264.63 L 110.4 266.42 L 113.15 268.21 L 115.9 270 L 118.66 271.8 L 121.41 273.59 L 124.16 275.38 L 126.92 277.16 L 129.67 278.92 L 132.42 280.66 L 135.17 282.38 L 137.93 284.08 L 140.68 285.74 L 143.43 287.36 L 146.19 288.93 L 148.94 290.45 L 151.69 291.91 L 154.44 293.3 L 157.2 294.62 L 159.95 295.86 L 162.7 297.02 L 165.46 298.07 L 168.21 299.03 L 170.96 299.87 L 173.71 300.6 L 176.47 301.21 L 179.22 301.68 L 181.97 302.03 L 184.73 302.24 L 187.48 302.31 L 190.23 302.24 L 192.98 302.03 L 195.74 301.67 L 198.49 301.16 L 201.24 300.52 L 204 299.73 L 206.75 298.81 L 209.5 297.75 L 212.25 296.57 L 215.01 295.27 L 217.76 293.85 L 220.51 292.32 L 223.27 290.69 L 226.02 288.97 L 228.77 287.16 L 231.52 285.28 L 234.28 283.33 L 237.03 281.31 L 239.78 279.24 L 242.54 277.12 L 245.29 274.96 L 248.04 272.76 L 250.79 270.54 L 253.55 268.29 L 256.3 266.03 L 259.05 263.75 L 261.81 261.47 L 264.56 259.19 L 267.31 256.9 L 270.06 254.62 L 272.82 252.34 L 275.57 250.07 L 278.32 247.82 L 281.08 245.57 L 283.83 243.34 L 286.58 241.13 L 289.33 238.94 L 292.09 236.76 L 294.84 234.6 L 297.59 232.46 L 300.35 230.35 L 303.1 228.25 L 305.85 226.18 L 308.6 224.12 L 311.36 222.09 L 314.11 220.09 L 316.86 218.1 L 319.62 216.13 L 322.37 214.19 L 325.12 212.27 L 327.87 210.37 L 330.63 208.5 L 333.38 206.65 L 336.13 204.81 L 338.89 203 L 341.64 201.21 L 344.39 199.45 L 347.14 197.7 L 349.9 195.98 L 352.65 194.27 L 355.4 192.59 L 358.16 190.93 L 360.91 189.29 L 363.66 187.67 L 366.41 186.07 L 369.17 184.49 L 371.92 182.93 L 374.67 181.39 L 377.43 179.87 L 380.18 178.37 L 382.93 176.89 L 385.68 175.43 L 388.44 173.99 L 391.19 172.57 L 393.94 171.17 L 396.7 169.79 L 399.45 168.43 L 402.2 167.08 L 404.95 165.76 L 407.71 164.45 L 410.46 163.16 L 413.21 161.89 L 415.97 160.64 L 418.72 159.4 L 421.47 158.18 L 424.22 156.99 L 426.98 155.8 L 429.73 154.64 L 432.48 153.49 L 435.24 152.36 L 437.99 151.25 L 440.74 150.15 L 443.49 149.07 L 446.25 148 L 449 146.96 L 451.75 145.92 L 454.51 144.91 L 457.26 143.9 L 460.01 142.92 L 462.76 141.95 L 465.52 140.99 L 468.27 140.05 L 471.02 139.12 L 473.78 138.21 L 476.53 137.31 L 479.28 136.42 L 482.03 135.55 L 484.79 134.69 L 487.54 133.85 L 490.29 133.01 L 493.05 132.2 L 495.8 131.39 L 498.55 130.6 L 501.3 129.81 L 504.06 129.05 L 506.81 128.29 L 509.56 127.54 L 512.32 126.81 L 515.07 126.09 L 517.82 125.38 L 520.57 124.68 L 523.33 123.99 L 526.08 123.31 L 528.83 122.64 L 531.59 121.98 L 534.34 121.34 L 537.09 120.7 L 539.84 120.07 L 542.6 119.45 L 545.35 118.85 L 548.1 118.25 L 550.86 117.66 L 553.61 117.08 L 556.36 116.51 L 559.11 115.94 L 561.87 115.39 L 564.62 114.85 L 567.37 114.31 L 570.13 113.78 L 572.88 113.26 L 575.63 112.75 L 578.38 112.24 L 581.14 111.75 L 583.89 111.26 L 586.64 110.77 L 588.19 110.51 "/>
<path transform="matrix(1,0,0,-1,0,400)" d="M 90.32 220.25 C 88.66 220.25 87.32 218.91 87.32 217.25 C 87.32 215.6 88.66 214.25 90.32 214.25 C 91.98 214.25 93.32 215.6 93.32 217.25 C 93.32 218.91 91.98 220.25 90.32 220.25 Z " fill="#ffffff" fill-rule="evenodd"/>
<path transform="matrix(1,0,0,-1,0,400)" stroke-width=".8" stroke-linecap="butt" stroke-miterlimit="10" stroke-linejoin="miter" fill="none" stroke="#000000" d="M 90.32 220.25 C 88.66 220.25 87.32 218.91 87.32 217.25 C 87.32 215.6 88.66 214.25 90.32 214.25 C 91.98 214.25 93.32 215.6 93.32 217.25 C 93.32 218.91 91.98 220.25 90.32 220.25 Z "/>
<path transform="matrix(1,0,0,-1,0,400)" d="M 122.54 234.6 C 120.89 234.6 119.54 233.26 119.54 231.6 C 119.54 229.94 120.89 228.6 122.54 228.6 C 124.2 228.6 125.54 229.94 125.54 231.6 C 125.54 233.26 124.2 234.6 122.54 234.6 Z " fill="#ffffff" fill-rule="evenodd"/>
<path transform="matrix(1,0,0,-1,0,400)" stroke-width=".8" stroke-linecap="butt" stroke-miterlimit="10" stroke-linejoin="miter" fill="none" stroke="#000000" d="M 122.54 234.6 C 120.89 234.6 119.54 233.26 119.54 231.6 C 119.54 229.94 120.89 228.6 122.54 228.6 C 124.2 228.6 125.54 229.94 125.54 231.6 C 125.54 233.26 124.2 234.6 122.54 234.6 Z "/>
<path transform="matrix(1,0,0,-1,0,400)" d="M 154.77 251.77 C 153.11 251.77 151.77 250.42 151.77 248.77 C 151.77 247.11 153.11 245.77 154.77 245.77 C 156.43 245.77 157.77 247.11 157.77 248.77 C 157.77 250.42 156.43 251.77 154.77 251.77 Z " fill="#ffffff" fill-rule="evenodd"/>
<path transform="matrix(1,0,0,-1,0,400)" stroke-width=".8" stroke-linecap="butt" stroke-miterlimit="10" stroke-linejoin="miter" fill="none" stroke="#000000" d="M 154.77 251.77 C 153.11 251.77 151.77 250.42 151.77 248.77 C 151.77 247.11 153.11 245.77 154.77 245.77 C 156.43 245.77 157.77 247.11 157.77 248.77 C 157.77 250.42 156.43 251.77 154.77 251.77 Z "/>
<path transform="matrix(1,0,0,-1,0,400)" d="M 186.99 271.47 C 185.34 271.47 183.99 270.13 183.99 268.47 C 183.99 266.81 185.34 265.47 186.99 265.47 C 188.65 265.47 189.99 266.81 189.99 268.47 C 189.99 270.13 188.65 271.47 186.99 271.47 Z " fill="#ffffff" fill-rule="evenodd"/>
<path transform="matrix(1,0,0,-1,0,400)" stroke-width=".8" stroke-linecap="butt" stroke-miterlimit="10" stroke-linejoin="miter" fill="none" stroke="#000000" d="M 186.99 271.47 C 185.34 271.47 183.99 270.13 183.99 268.47 C 183.99 266.81 185.34 265.47 186.99 265.47 C 188.65 265.47 189.99 266.81 189.99 268.47 C 189.99 270.13 188.65 271.47 186.99 271.47 Z "/>
<path transform="matrix(1,0,0,-1,0,400)" d="M 219.22 289.36 C 217.56 289.36 216.22 288.02 216.22 286.36 C 216.22 284.71 217.56 283.36 219.22 283.36 C 220.87 283.36 222.22 284.71 222.22 286.36 C 222.22 288.02 220.87 289.36 219.22 289.36 Z " fill="#ffffff" fill-rule="evenodd"/>
<path transform="matrix(1,0,0,-1,0,400)" stroke-width=".8" stroke-linecap="butt" stroke-miterlimit="10" stroke-linejoin="miter" fill="none" stroke="#000000" d="M 219.22 289.36 C 217.56 289.36 216.22 288.02 216.22 286.36 C 216.22 284.71 217.56 283.36 219.22 283.36 C 220.87 283.36 222.22 284.71 222.22 286.36 C 222.22 288.02 220.87 289.36 219.22 289.36 Z "/>
<path transform="matrix(1,0,0,-1,0,400)" d="M 251.44 295.94 C 249.79 295.94 248.44 294.6 248.44 292.94 C 248.44 291.29 249.79 289.94 251.44 289.94 C 253.1 289.94 254.44 291.29 254.44 292.94 C 254.44 294.6 253.1 295.94 251.44 295.94 Z " fill="#ffffff" fill-rule="evenodd"/>
<path transform="matrix(1,0,0,-1,0,400)" stroke-width=".8" stroke-linecap="butt" stroke-miterlimit="10" stroke-linejoin="miter" fill="none" stroke="#000000" d="M 251.44 295.94 C 249.79 295.94 248.44 294.6 248.44 292.94 C 248.44 291.29 249.79 289.94 251.44 289.94 C 253.1 289.94 254.44 291.29 254.44 292.94 C 254.44 294.6 253.1 295.94 251.44 295.94 Z "/>
<path transform="matrix(1,0,0,-1,0,400)" d="M 283.67 285.26 C 282.01 285.26 280.67 283.91 280.67 282.26 C 280.67 280.6 282.01 279.26 283.67 279.26 C 285.32 279.26 286.67 280.6 286.67 282.26 C 286.67 283.91 285.32 285.26 283.67 285.26 Z " fill="#ffffff" fill-rule="evenodd"/>
<path transform="matrix(1,0,0,-1,0,400)" stroke-width=".8" stroke-linecap="butt" stroke-miterlimit="10" stroke-linejoin="miter" fill="none" stroke="#000000" d="M 283.67 285.26 C 282.01 285.26 280.67 283.91 280.67 282.26 C 280.67 280.6 282.01 279.26 283.67 279.26 C 285.32 279.26 286.67 280.6 286.67 282.26 C 286.67 283.91 285.32 285.26 283.67 285.26 Z "/>
<path transform="matrix(1,0,0,-1,0,400)" d="M 315.89 261.76 C 314.23 261.76 312.89 260.42 312.89 258.76 C 312.89 257.1 314.23 255.76 315.89 255.76 C 317.55 255.76 318.89 257.1 318.89 258.76 C 318.89 260.42 317.55 261.76 315.89 261.76 Z " fill="#ffffff" fill-rule="evenodd"/>
<path transform="matrix(1,0,0,-1,0,400)" stroke-width=".8" stroke-linecap="butt" stroke-miterlimit="10" stroke-linejoin="miter" fill="none" stroke="#000000" d="M 315.89 261.76 C 314.23 261.76 312.89 260.42 312.89 258.76 C 312.89 257.1 314.23 255.76 315.89 255.76 C 317.55 255.76 318.89 257.1 318.89 258.76 C 318.89 260.42 317.55 261.76 315.89 261.76 Z "/>
<path transform="matrix(1,0,0,-1,0,400)" d="M 348.12 233.45 C 346.46 233.45 345.12 232.1 345.12 230.45 C 345.12 228.79 346.46 227.45 348.12 227.45 C 349.77 227.45 351.12 228.79 351.12 230.45 C 351.12 232.1 349.77 233.45 348.12 233.45 Z " fill="#ffffff" fill-rule="evenodd"/>
<path transform="matrix(1,0,0,-1,0,400)" stroke-width=".8" stroke-linecap="butt" stroke-miterlimit="10" stroke-linejoin="miter" fill="none" stroke="#000000" d="M 348.12 233.45 C 346.46 233.45 345.12 232.1 345.12 230.45 C 345.12 228.79 346.46 227.45 348.12 227.45 C 349.77 227.45 351.12 228.79 351.12 230.45 C 351.12 232.1 349.77 233.45 348.12 233.45 Z "/>
<path transform="matrix(1,0,0,-1,0,400)" d="M 380.34 206.48 C 378.68 206.48 377.34 205.14 377.34 203.48 C 377.34 201.83 378.68 200.48 380.34 200.48 C 382 200.48 383.34 201.83 383.34 203.48 C 383.34 205.14 382 206.48 380.34 206.48 Z " fill="#ffffff" fill-rule="evenodd"/>
<path transform="matrix(1,0,0,-1,0,400)" stroke-width=".8" stroke-linecap="butt" stroke-miterlimit="10" stroke-linejoin="miter" fill="none" stroke="#000000" d="M 380.34 206.48 C 378.68 206.48 377.34 205.14 377.34 203.48 C 377.34 201.83 378.68 200.48 380.34 200.48 C 382 200.48 383.34 201.83 383.34 203.48 C 383.34 205.14 382 206.48 380.34 206.48 Z "/>
<path transform="matrix(1,0,0,-1,0,400)" d="M 412.56 183.49 C 410.91 183.49 409.56 182.15 409.56 180.49 C 409.56 178.83 410.91 177.49 412.56 177.49 C 414.22 177.49 415.56 178.83 415.56 180.49 C 415.56 182.15 414.22 183.49 412.56 183.49 Z " fill="#ffffff" fill-rule="evenodd"/>
<path transform="matrix(1,0,0,-1,0,400)" stroke-width=".8" stroke-linecap="butt" stroke-miterlimit="10" stroke-linejoin="miter" fill="none" stroke="#000000" d="M 412.56 183.49 C 410.91 183.49 409.56 182.15 409.56 180.49 C 409.56 178.83 410.91 177.49 412.56 177.49 C 414.22 177.49 415.56 178.83 415.56 180.49 C 415.56 182.15 414.22 183.49 412.56 183.49 Z "/>
<path transform="matrix(1,0,0,-1,0,400)" d="M 444.79 164.76 C 443.13 164.76 441.79 163.42 441.79 161.76 C 441.79 160.1 443.13 158.76 444.79 158.76 C 446.45 158.76 447.79 160.1 447.79 161.76 C 447.79 163.42 446.45 164.76 444.79 164.76 Z " fill="#ffffff" fill-rule="evenodd"/>
<path transform="matrix(1,0,0,-1,0,400)" stroke-width=".8" stroke-linecap="butt" stroke-miterlimit="10" stroke-linejoin="miter" fill="none" stroke="#000000" d="M 444.79 164.76 C 443.13 164.76 441.79 163.42 441.79 161.76 C 441.79 160.1 443.13 158.76 444.79 158.76 C 446.45 158.76 447.79 160.1 447.79 161.76 C 447.79 163.42 446.45 164.76 444.79 164.76 Z "/>
<path transform="matrix(1,0,0,-1,0,400)" d="M 477.01 149.73 C 475.36 149.73 474.01 148.39 474.01 146.73 C 474.01 145.07 475.36 143.73 477.01 143.73 C 478.67 143.73 480.01 145.07 480.01 146.73 C 480.01 148.39 478.67 149.73 477.01 149.73 Z " fill="#ffffff" fill-rule="evenodd"/>
<path transform="matrix(1,0,0,-1,0,400)" stroke-width=".8" stroke-linecap="butt" stroke-miterlimit="10" stroke-linejoin="miter" fill="none" stroke="#000000" d="M 477.01 149.73 C 475.36 149.73 474.01 148.39 474.01 146.73 C 474.01 145.07 475.36 143.73 477.01 143.73 C 478.67 143.73 480.01 145.07 480.01 146.73 C 480.01 148.39 478.67 149.73 477.01 149.73 Z "/>
<path transform="matrix(1,0,0,-1,0,400)" d="M 509.24 137.68 C 507.58 137.68 506.24 136.34 506.24 134.68 C 506.24 133.02 507.58 131.68 509.24 131.68 C 510.9 131.68 512.24 133.02 512.24 134.68 C 512.24 136.34 510.9 137.68 509.24 137.68 Z " fill="#ffffff" fill-rule="evenodd"/>
<path transform="matrix(1,0,0,-1,0,400)" stroke-width=".8" stroke-linecap="butt" stroke-miterlimit="10" stroke-linejoin="miter" fill="none" stroke="#000000" d="M 509.24 137.68 C 507.58 137.68 506.24 136.34 506.24 134.68 C 506.24 133.02 507.58 131.68 509.24 131.68 C 510.9 131.68 512.24 133.02 512.24 134.68 C 512.24 136.34 510.9 137.68 509.24 137.68 Z "/>
<path transform="matrix(1,0,0,-1,0,400)" d="M 541.46 127.96 C 539.81 127.96 538.46 126.62 538.46 124.96 C 538.46 123.31 539.81 121.96 541.46 121.96 C 543.12 121.96 544.46 123.31 544.46 124.96 C 544.46 126.62 543.12 127.96 541.46 127.96 Z " fill="#ffffff" fill-rule="evenodd"/>
<path transform="matrix(1,0,0,-1,0,400)" stroke-width=".8" stroke-linecap="butt" stroke-miterlimit="10" stroke-linejoin="miter" fill="none" stroke="#000000" d="M 541.46 127.96 C 539.81 127.96 538.46 126.62 538.46 124.96 C 538.46 123.31 539.81 121.96 541.46 121.96 C 543.12 121.96 544.46 123.31 544.46 124.96 C 544.46 126.62 543.12 127.96 541.46 127.96 Z "/>
<path transform="matrix(1,0,0,-1,0,400)" d="M 573.69 120.08 C 572.03 120.08 570.69 118.73 570.69 117.08 C 570.69 115.42 572.03 114.08 573.69 114.08 C 575.34 114.08 576.69 115.42 576.69 117.08 C 576.69 118.73 575.34 120.08 573.69 120.08 Z " fill="#ffffff" fill-rule="evenodd"/>
<path transform="matrix(1,0,0,-1,0,400)" stroke-width=".8" stroke-linecap="butt" stroke-miterlimit="10" stroke-linejoin="miter" fill="none" stroke="#000000" d="M 573.69 120.08 C 572.03 120.08 570.69 118.73 570.69 117.08 C 570.69 115.42 572.03 114.08 573.69 114.08 C 575.34 114.08 576.69 115.42 576.69 117.08 C 576.69 118.73 575.34 120.08 573.69 120.08 Z "/>
<clipPath id="cp3">
<path transform="matrix(1,0,0,-1,0,400)" d="M 0 0 L 600 0 L 600 600 L 0 600 Z "/>
</clipPath>
<g clip-path="url(#cp3)">
<path transform="matrix(1,0,0,-1,0,400)" d="M 420.13 225.92 L 571.11 225.92 L 571.11 377.12 L 420.13 377.12 " fill-opacity="0" fill-rule="evenodd"/>
</g>
<path transform="matrix(1,0,0,-1,0,400)" stroke-width="1" stroke-linecap="butt" stroke-miterlimit="10" stroke-linejoin="miter" fill="none" stroke="#000000" stroke-opacity="0" d="M 420.13 225.92 L 571.11 225.92 L 571.11 377.12 L 420.13 377.12 L 420.13 225.92 "/>
<path transform="matrix(1,0,0,-1,0,400)" stroke-width="1.25" stroke-linecap="butt" stroke-miterlimit="10" stroke-linejoin="miter" fill="none" stroke="#ff0000" d="M 425.83 358.22 L 459.98 358.22 "/>
<path transform="matrix(1,0,0,-1,0,400)" d="M 465.68 360.92 L 467.09 360.92 L 469.62 354.12 L 472.15 360.92 L 473.56 360.92 L 470.52 352.82 L 468.72 352.82 L 465.68 360.92 Z " fill-rule="evenodd"/>
<path transform="matrix(1,0,0,-1,0,400)" d="M 478.64 356.89 C 478.64 356.89 477.03 356.89 476.41 356.52 C 476.41 356.52 475.78 356.15 475.78 355.26 C 475.78 355.26 475.78 354.55 476.25 354.14 C 476.25 354.14 476.72 353.72 477.52 353.72 C 477.52 353.72 478.63 353.72 479.29 354.5 C 479.29 354.5 479.96 355.29 479.96 356.59 L 479.96 356.89 L 478.64 356.89 M 481.3 357.44 L 481.3 352.82 L 479.96 352.82 L 479.96 354.05 C 479.96 354.05 479.51 353.31 478.83 352.96 C 478.83 352.96 478.15 352.61 477.17 352.61 C 477.17 352.61 475.92 352.61 475.18 353.3 C 475.18 353.3 474.45 354.01 474.45 355.18 C 474.45 355.18 474.45 356.54 475.36 357.24 C 475.36 357.24 476.28 357.93 478.1 357.93 L 479.96 357.93 L 479.96 358.06 C 479.96 358.06 479.96 358.98 479.36 359.48 C 479.36 359.48 478.76 359.99 477.66 359.99 C 477.66 359.99 476.97 359.99 476.31 359.82 C 476.31 359.82 475.65 359.65 475.05 359.32 L 475.05 360.55 C 475.05 360.55 475.78 360.83 476.46 360.97 C 476.46 360.97 477.15 361.12 477.8 361.12 C 477.8 361.12 479.56 361.12 480.43 360.2 C 480.43 360.2 481.3 359.29 481.3 357.44 Z " fill-rule="evenodd"/>
<path transform="matrix(1,0,0,-1,0,400)" d="M 489.43 357.71 L 489.43 352.82 L 488.1 352.82 L 488.1 357.67 C 488.1 357.67 488.1 358.82 487.65 359.39 C 487.65 359.39 487.2 359.96 486.3 359.96 C 486.3 359.96 485.22 359.96 484.6 359.27 C 484.6 359.27 483.98 358.58 483.98 357.4 L 483.98 352.82 L 482.64 352.82 L 482.64 360.92 L 483.98 360.92 L 483.98 359.66 C 483.98 359.66 484.46 360.39 485.1 360.75 C 485.1 360.75 485.75 361.12 486.6 361.12 C 486.6 361.12 487.99 361.12 488.71 360.25 C 488.71 360.25 489.43 359.39 489.43 357.71 Z " fill-rule="evenodd"/>
<path transform="matrix(1,0,0,-1,0,400)" d="M 500.86 359.69 L 500.86 364.07 L 502.19 364.07 L 502.19 352.82 L 500.86 352.82 L 500.86 354.03 C 500.86 354.03 500.44 353.31 499.8 352.96 C 499.8 352.96 499.16 352.61 498.27 352.61 C 498.27 352.61 496.8 352.61 495.87 353.78 C 495.87 353.78 494.95 354.95 494.95 356.86 C 494.95 356.86 494.95 358.77 495.87 359.94 C 495.87 359.94 496.8 361.12 498.27 361.12 C 498.27 361.12 499.16 361.12 499.8 360.76 C 499.8 360.76 500.44 360.41 500.86 359.69 M 496.33 356.86 C 496.33 356.86 496.33 355.39 496.93 354.55 C 496.93 354.55 497.54 353.72 498.59 353.72 C 498.59 353.72 499.65 353.72 500.26 354.55 C 500.26 354.55 500.86 355.39 500.86 356.86 C 500.86 356.86 500.86 358.33 500.26 359.16 C 500.26 359.16 499.65 360 498.59 360 C 498.59 360 497.54 360 496.93 359.16 C 496.93 359.16 496.33 358.33 496.33 356.86 Z " fill-rule="evenodd"/>
<path transform="matrix(1,0,0,-1,0,400)" d="M 510.52 357.2 L 510.52 356.55 L 504.4 356.55 C 504.4 356.55 504.49 355.18 505.22 354.45 C 505.22 354.45 505.97 353.74 507.29 353.74 C 507.29 353.74 508.06 353.74 508.78 353.93 C 508.78 353.93 509.5 354.11 510.21 354.49 L 510.21 353.23 C 510.21 353.23 509.49 352.93 508.74 352.77 C 508.74 352.77 507.99 352.61 507.21 352.61 C 507.21 352.61 505.28 352.61 504.14 353.74 C 504.14 353.74 503.01 354.87 503.01 356.79 C 503.01 356.79 503.01 358.78 504.08 359.94 C 504.08 359.94 505.16 361.12 506.98 361.12 C 506.98 361.12 508.62 361.12 509.57 360.06 C 509.57 360.06 510.52 359.01 510.52 357.2 M 509.19 357.59 C 509.19 357.59 509.17 358.69 508.57 359.34 C 508.57 359.34 507.98 359.99 507 359.99 C 507 359.99 505.88 359.99 505.21 359.36 C 505.21 359.36 504.54 358.73 504.44 357.59 L 509.19 357.59 Z " fill-rule="evenodd"/>
<path transform="matrix(1,0,0,-1,0,400)" d="M 516.61 359.68 C 516.61 359.68 516.39 359.81 516.12 359.86 C 516.12 359.86 515.86 359.93 515.54 359.93 C 515.54 359.93 514.41 359.93 513.8 359.19 C 513.8 359.19 513.2 358.46 513.2 357.09 L 513.2 352.82 L 511.87 352.82 L 511.87 360.92 L 513.2 360.92 L 513.2 359.66 C 513.2 359.66 513.62 360.4 514.3 360.75 C 514.3 360.75 514.97 361.12 515.93 361.12 C 515.93 361.12 516.07 361.12 516.23 361.09 C 516.23 361.09 516.4 361.08 516.6 361.04 L 516.61 359.68 Z " fill-rule="evenodd"/>
<path transform="matrix(1,0,0,-1,0,400)" d="M 521.81 363.62 L 523.29 363.62 L 525.56 354.49 L 527.82 363.62 L 529.47 363.62 L 531.74 354.49 L 534 363.62 L 535.48 363.62 L 532.77 352.82 L 530.93 352.82 L 528.65 362.19 L 526.35 352.82 L 524.52 352.82 L 521.81 363.62 Z " fill-rule="evenodd"/>
<path transform="matrix(1,0,0,-1,0,400)" d="M 539.61 356.89 C 539.61 356.89 538 356.89 537.38 356.52 C 537.38 356.52 536.76 356.15 536.76 355.26 C 536.76 355.26 536.76 354.55 537.22 354.14 C 537.22 354.14 537.69 353.72 538.49 353.72 C 538.49 353.72 539.6 353.72 540.27 354.5 C 540.27 354.5 540.94 355.29 540.94 356.59 L 540.94 356.89 L 539.61 356.89 M 542.27 357.44 L 542.27 352.82 L 540.94 352.82 L 540.94 354.05 C 540.94 354.05 540.48 353.31 539.8 352.96 C 539.8 352.96 539.12 352.61 538.14 352.61 C 538.14 352.61 536.89 352.61 536.16 353.3 C 536.16 353.3 535.43 354.01 535.43 355.18 C 535.43 355.18 535.43 356.54 536.34 357.24 C 536.34 357.24 537.26 357.93 539.07 357.93 L 540.94 357.93 L 540.94 358.06 C 540.94 358.06 540.94 358.98 540.33 359.48 C 540.33 359.48 539.73 359.99 538.64 359.99 C 538.64 359.99 537.94 359.99 537.28 359.82 C 537.28 359.82 536.63 359.65 536.02 359.32 L 536.02 360.55 C 536.02 360.55 536.75 360.83 537.44 360.97 C 537.44 360.97 538.12 361.12 538.77 361.12 C 538.77 361.12 540.53 361.12 541.4 360.2 C 541.4 360.2 542.27 359.29 542.27 357.44 Z " fill-rule="evenodd"/>
<path transform="matrix(1,0,0,-1,0,400)" d="M 547.35 356.89 C 547.35 356.89 545.73 356.89 545.11 356.52 C 545.11 356.52 544.49 356.15 544.49 355.26 C 544.49 355.26 544.49 354.55 544.95 354.14 C 544.95 354.14 545.42 353.72 546.23 353.72 C 546.23 353.72 547.33 353.72 548 354.5 C 548 354.5 548.67 355.29 548.67 356.59 L 548.67 356.89 L 547.35 356.89 M 550 357.44 L 550 352.82 L 548.67 352.82 L 548.67 354.05 C 548.67 354.05 548.22 353.31 547.54 352.96 C 547.54 352.96 546.86 352.61 545.87 352.61 C 545.87 352.61 544.63 352.61 543.89 353.3 C 543.89 353.3 543.16 354.01 543.16 355.18 C 543.16 355.18 543.16 356.54 544.07 357.24 C 544.07 357.24 544.99 357.93 546.8 357.93 L 548.67 357.93 L 548.67 358.06 C 548.67 358.06 548.67 358.98 548.06 359.48 C 548.06 359.48 547.46 359.99 546.37 359.99 C 546.37 359.99 545.68 359.99 545.02 359.82 C 545.02 359.82 544.36 359.65 543.75 359.32 L 543.75 360.55 C 543.75 360.55 544.48 360.83 545.17 360.97 C 545.17 360.97 545.86 361.12 546.51 361.12 C 546.51 361.12 548.27 361.12 549.13 360.2 C 549.13 360.2 550 359.29 550 357.44 Z " fill-rule="evenodd"/>
<path transform="matrix(1,0,0,-1,0,400)" d="M 551.4 364.07 L 552.73 364.07 L 552.73 352.82 L 551.4 352.82 L 551.4 364.07 Z " fill-rule="evenodd"/>
<path transform="matrix(1,0,0,-1,0,400)" d="M 559.29 360.68 L 559.29 359.42 C 559.29 359.42 558.73 359.71 558.12 359.86 C 558.12 359.86 557.51 360 556.86 360 C 556.86 360 555.87 360 555.37 359.7 C 555.37 359.7 554.88 359.39 554.88 358.79 C 554.88 358.79 554.88 358.32 555.23 358.06 C 555.23 358.06 555.59 357.8 556.66 357.56 L 557.11 357.46 C 557.11 357.46 558.53 357.15 559.12 356.59 C 559.12 356.59 559.72 356.05 559.72 355.05 C 559.72 355.05 559.72 353.93 558.83 353.27 C 558.83 353.27 557.94 352.61 556.37 352.61 C 556.37 352.61 555.72 352.61 555.01 352.74 C 555.01 352.74 554.31 352.86 553.53 353.12 L 553.53 354.49 C 553.53 354.49 554.27 354.11 554.99 353.91 C 554.99 353.91 555.7 353.72 556.4 353.72 C 556.4 353.72 557.34 353.72 557.85 354.04 C 557.85 354.04 558.36 354.37 558.36 354.95 C 558.36 354.95 558.36 355.5 557.99 355.78 C 557.99 355.78 557.63 356.07 556.39 356.34 L 555.93 356.45 C 555.93 356.45 554.69 356.71 554.14 357.25 C 554.14 357.25 553.59 357.79 553.59 358.73 C 553.59 358.73 553.59 359.87 554.4 360.49 C 554.4 360.49 555.21 361.12 556.7 361.12 C 556.7 361.12 557.44 361.12 558.09 361.01 C 558.09 361.01 558.74 360.9 559.29 360.68 Z " fill-rule="evenodd"/>
<path transform="matrix(1,0,0,-1,0,400)" stroke-width="1.25" stroke-linecap="butt" stroke-miterlimit="10" stroke-linejoin="miter" fill="none" stroke="#ffa500" d="M 425.83 339.32 L 459.98 339.32 "/>
<path transform="matrix(1,0,0,-1,0,400)" d="M 472.63 344.36 L 472.63 342.94 C 472.63 342.94 471.8 343.34 471.06 343.53 C 471.06 343.53 470.32 343.73 469.63 343.73 C 469.63 343.73 468.44 343.73 467.79 343.26 C 467.79 343.26 467.15 342.8 467.15 341.95 C 467.15 341.95 467.15 341.23 467.57 340.86 C 467.57 340.86 468.01 340.5 469.21 340.28 L 470.09 340.1 C 470.09 340.1 471.73 339.79 472.5 339 C 472.5 339 473.28 338.22 473.28 336.9 C 473.28 336.9 473.28 335.33 472.22 334.52 C 472.22 334.52 471.18 333.71 469.14 333.71 C 469.14 333.71 468.38 333.71 467.51 333.88 C 467.51 333.88 466.65 334.06 465.72 334.4 L 465.72 335.9 C 465.72 335.9 466.61 335.4 467.46 335.15 C 467.46 335.15 468.32 334.9 469.14 334.9 C 469.14 334.9 470.39 334.9 471.07 335.39 C 471.07 335.39 471.75 335.88 471.75 336.79 C 471.75 336.79 471.75 337.59 471.26 338.03 C 471.26 338.03 470.78 338.48 469.66 338.71 L 468.77 338.88 C 468.77 338.88 467.14 339.21 466.41 339.9 C 466.41 339.9 465.68 340.6 465.68 341.83 C 465.68 341.83 465.68 343.26 466.68 344.09 C 466.68 344.09 467.7 344.91 469.47 344.91 C 469.47 344.91 470.23 344.91 471.02 344.78 C 471.02 344.78 471.8 344.64 472.63 344.36 Z " fill-rule="evenodd"/>
<path transform="matrix(1,0,0,-1,0,400)" d="M 479.86 338.98 C 479.86 338.98 480.33 338.82 480.77 338.3 C 480.77 338.3 481.22 337.78 481.66 336.87 L 483.15 333.92 L 481.58 333.92 L 480.2 336.69 C 480.2 336.69 479.66 337.77 479.15 338.13 C 479.15 338.13 478.66 338.48 477.79 338.48 L 476.2 338.48 L 476.2 333.92 L 474.73 333.92 L 474.73 344.72 L 478.03 344.72 C 478.03 344.72 479.88 344.72 480.8 343.94 C 480.8 343.94 481.71 343.17 481.71 341.61 C 481.71 341.61 481.71 340.59 481.23 339.92 C 481.23 339.92 480.76 339.24 479.86 338.98 M 476.2 343.52 L 476.2 339.68 L 478.03 339.68 C 478.03 339.68 479.09 339.68 479.62 340.17 C 479.62 340.17 480.17 340.66 480.17 341.61 C 480.17 341.61 480.17 342.56 479.62 343.03 C 479.62 343.03 479.09 343.52 478.03 343.52 L 476.2 343.52 Z " fill-rule="evenodd"/>
<path transform="matrix(1,0,0,-1,0,400)" d="M 484.6 344.72 L 486.06 344.72 L 486.06 340.15 L 490.91 344.72 L 492.79 344.72 L 487.43 339.68 L 493.17 333.92 L 491.25 333.92 L 486.06 339.12 L 486.06 333.92 L 484.6 333.92 L 484.6 344.72 Z " fill-rule="evenodd"/>
<path transform="matrix(1,0,0,-1,0,400)" stroke-width="1.25" stroke-linecap="butt" stroke-miterlimit="10" stroke-linejoin="miter" fill="none" stroke="#0000ff" d="M 425.83 320.42 L 459.98 320.42 "/>
<path transform="matrix(1,0,0,-1,0,400)" d="M 473.66 316.56 L 473.66 319.46 L 471.28 319.46 L 471.28 320.66 L 475.11 320.66 L 475.11 316.02 C 475.11 316.02 474.26 315.42 473.24 315.11 C 473.24 315.11 472.22 314.81 471.07 314.81 C 471.07 314.81 468.54 314.81 467.1 316.28 C 467.1 316.28 465.68 317.77 465.68 320.41 C 465.68 320.41 465.68 323.06 467.1 324.53 C 467.1 324.53 468.54 326.01 471.07 326.01 C 471.07 326.01 472.12 326.01 473.07 325.75 C 473.07 325.75 474.03 325.49 474.83 324.99 L 474.83 323.43 C 474.83 323.43 474.02 324.12 473.11 324.47 C 473.11 324.47 472.2 324.81 471.19 324.81 C 471.19 324.81 469.21 324.81 468.21 323.71 C 468.21 323.71 467.22 322.6 467.22 320.41 C 467.22 320.41 467.22 318.22 468.21 317.12 C 468.21 317.12 469.21 316.01 471.19 316.01 C 471.19 316.01 471.96 316.01 472.57 316.14 C 472.57 316.14 473.18 316.28 473.66 316.56 Z " fill-rule="evenodd"/>
<path transform="matrix(1,0,0,-1,0,400)" d="M 476.56 325.82 L 483.39 325.82 L 483.39 324.59 L 478.03 324.59 L 478.03 321.39 L 483.17 321.39 L 483.17 320.16 L 478.03 320.16 L 478.03 316.25 L 483.52 316.25 L 483.52 315.02 L 476.56 315.02 L 476.56 325.82 Z " fill-rule="evenodd"/>
<path transform="matrix(1,0,0,-1,0,400)" d="M 490.1 320.08 C 490.1 320.08 490.57 319.92 491.01 319.4 C 491.01 319.4 491.46 318.88 491.91 317.97 L 493.39 315.02 L 491.82 315.02 L 490.44 317.79 C 490.44 317.79 489.9 318.87 489.4 319.23 C 489.4 319.23 488.9 319.58 488.03 319.58 L 486.44 319.58 L 486.44 315.02 L 484.98 315.02 L 484.98 325.82 L 488.28 325.82 C 488.28 325.82 490.13 325.82 491.04 325.04 C 491.04 325.04 491.95 324.27 491.95 322.71 C 491.95 322.71 491.95 321.69 491.47 321.02 C 491.47 321.02 491 320.34 490.1 320.08 M 486.44 324.62 L 486.44 320.78 L 488.28 320.78 C 488.28 320.78 489.33 320.78 489.87 321.27 C 489.87 321.27 490.41 321.76 490.41 322.71 C 490.41 322.71 490.41 323.66 489.87 324.13 C 489.87 324.13 489.33 324.62 488.28 324.62 L 486.44 324.62 Z " fill-rule="evenodd"/>
<path transform="matrix(1,0,0,-1,0,400)" d="M 502.21 316.56 L 502.21 319.46 L 499.82 319.46 L 499.82 320.66 L 503.66 320.66 L 503.66 316.02 C 503.66 316.02 502.81 315.42 501.79 315.11 C 501.79 315.11 500.77 314.81 499.61 314.81 C 499.61 314.81 497.08 314.81 495.65 316.28 C 495.65 316.28 494.22 317.77 494.22 320.41 C 494.22 320.41 494.22 323.06 495.65 324.53 C 495.65 324.53 497.08 326.01 499.61 326.01 C 499.61 326.01 500.67 326.01 501.62 325.75 C 501.62 325.75 502.57 325.49 503.37 324.99 L 503.37 323.43 C 503.37 323.43 502.56 324.12 501.65 324.47 C 501.65 324.47 500.74 324.81 499.73 324.81 C 499.73 324.81 497.75 324.81 496.75 323.71 C 496.75 323.71 495.76 322.6 495.76 320.41 C 495.76 320.41 495.76 318.22 496.75 317.12 C 496.75 317.12 497.75 316.01 499.73 316.01 C 499.73 316.01 500.51 316.01 501.12 316.14 C 501.12 316.14 501.72 316.28 502.21 316.56 Z " fill-rule="evenodd"/>
<path transform="matrix(1,0,0,-1,0,400)" d="M 506.5 316.25 L 511.6 316.25 L 511.6 315.02 L 504.74 315.02 L 504.74 316.25 C 504.74 316.25 505.57 317.11 507 318.56 C 507 318.56 508.44 320.01 508.81 320.43 C 508.81 320.43 509.51 321.22 509.79 321.76 C 509.79 321.76 510.07 322.31 510.07 322.84 C 510.07 322.84 510.07 323.7 509.46 324.24 C 509.46 324.24 508.86 324.78 507.89 324.78 C 507.89 324.78 507.21 324.78 506.44 324.55 C 506.44 324.55 505.68 324.31 504.81 323.82 L 504.81 325.3 C 504.81 325.3 505.69 325.65 506.46 325.83 C 506.46 325.83 507.23 326.01 507.87 326.01 C 507.87 326.01 509.54 326.01 510.54 325.18 C 510.54 325.18 511.54 324.34 511.54 322.93 C 511.54 322.93 511.54 322.27 511.29 321.67 C 511.29 321.67 511.04 321.07 510.38 320.26 C 510.38 320.26 510.2 320.05 509.23 319.05 C 509.23 319.05 508.26 318.05 506.5 316.25 Z " fill-rule="evenodd"/>
<path transform="matrix(1,0,0,-1,0,400)" d="M 516.31 324.86 C 516.31 324.86 515.18 324.86 514.61 323.74 C 514.61 323.74 514.04 322.64 514.04 320.41 C 514.04 320.41 514.04 318.19 514.61 317.07 C 514.61 317.07 515.18 315.97 516.31 315.97 C 516.31 315.97 517.44 315.97 518.01 317.07 C 518.01 317.07 518.58 318.19 518.58 320.41 C 518.58 320.41 518.58 322.64 518.01 323.74 C 518.01 323.74 517.44 324.86 516.31 324.86 M 516.31 326.01 C 516.31 326.01 518.12 326.01 519.08 324.57 C 519.08 324.57 520.04 323.14 520.04 320.41 C 520.04 320.41 520.04 317.68 519.08 316.24 C 519.08 316.24 518.12 314.81 516.31 314.81 C 516.31 314.81 514.49 314.81 513.53 316.24 C 513.53 316.24 512.57 317.68 512.57 320.41 C 512.57 320.41 512.57 323.14 513.53 324.57 C 513.53 324.57 514.49 326.01 516.31 326.01 Z " fill-rule="evenodd"/>
<path transform="matrix(1,0,0,-1,0,400)" d="M 524.75 324.86 C 524.75 324.86 523.62 324.86 523.05 323.74 C 523.05 323.74 522.48 322.64 522.48 320.41 C 522.48 320.41 522.48 318.19 523.05 317.07 C 523.05 317.07 523.62 315.97 524.75 315.97 C 524.75 315.97 525.88 315.97 526.45 317.07 C 526.45 317.07 527.02 318.19 527.02 320.41 C 527.02 320.41 527.02 322.64 526.45 323.74 C 526.45 323.74 525.88 324.86 524.75 324.86 M 524.75 326.01 C 524.75 326.01 526.56 326.01 527.52 324.57 C 527.52 324.57 528.48 323.14 528.48 320.41 C 528.48 320.41 528.48 317.68 527.52 316.24 C 527.52 316.24 526.56 314.81 524.75 314.81 C 524.75 314.81 522.93 314.81 521.97 316.24 C 521.97 316.24 521.02 317.68 521.02 320.41 C 521.02 320.41 521.02 323.14 521.97 324.57 C 521.97 324.57 522.93 326.01 524.75 326.01 Z " fill-rule="evenodd"/>
<path transform="matrix(1,0,0,-1,0,400)" d="M 533.19 320.15 C 533.19 320.15 532.15 320.15 531.55 319.59 C 531.55 319.59 530.96 319.03 530.96 318.06 C 530.96 318.06 530.96 317.08 531.55 316.52 C 531.55 316.52 532.15 315.97 533.19 315.97 C 533.19 315.97 534.23 315.97 534.83 316.52 C 534.83 316.52 535.43 317.09 535.43 318.06 C 535.43 318.06 535.43 319.03 534.83 319.59 C 534.83 319.59 534.24 320.15 533.19 320.15 M 531.73 320.77 C 531.73 320.77 530.79 321 530.26 321.64 C 530.26 321.64 529.74 322.29 529.74 323.21 C 529.74 323.21 529.74 324.51 530.66 325.26 C 530.66 325.26 531.58 326.01 533.19 326.01 C 533.19 326.01 534.8 326.01 535.72 325.26 C 535.72 325.26 536.64 324.51 536.64 323.21 C 536.64 323.21 536.64 322.29 536.11 321.64 C 536.11 321.64 535.59 321 534.66 320.77 C 534.66 320.77 535.72 320.52 536.3 319.81 C 536.3 319.81 536.89 319.09 536.89 318.06 C 536.89 318.06 536.89 316.49 535.93 315.65 C 535.93 315.65 534.98 314.81 533.19 314.81 C 533.19 314.81 531.4 314.81 530.44 315.65 C 530.44 315.65 529.49 316.49 529.49 318.06 C 529.49 318.06 529.49 319.09 530.08 319.81 C 530.08 319.81 530.67 320.52 531.73 320.77 M 531.19 323.08 C 531.19 323.08 531.19 322.24 531.71 321.77 C 531.71 321.77 532.24 321.3 533.19 321.3 C 533.19 321.3 534.13 321.3 534.66 321.77 C 534.66 321.77 535.19 322.24 535.19 323.08 C 535.19 323.08 535.19 323.92 534.66 324.39 C 534.66 324.39 534.13 324.86 533.19 324.86 C 533.19 324.86 532.24 324.86 531.71 324.39 C 531.71 324.39 531.19 323.92 531.19 323.08 Z " fill-rule="evenodd"/>
<path transform="matrix(1,0,0,-1,0,400)" stroke-width="1.25" stroke-linecap="butt" stroke-miterlimit="10" stroke-linejoin="miter" fill="none" stroke="#add8e6" d="M 425.83 301.52 L 459.98 301.52 "/>
<path transform="matrix(1,0,0,-1,0,400)" d="M 472.63 306.56 L 472.63 305.14 C 472.63 305.14 471.8 305.54 471.06 305.73 C 471.06 305.73 470.32 305.93 469.63 305.93 C 469.63 305.93 468.44 305.93 467.79 305.46 C 467.79 305.46 467.15 305 467.15 304.15 C 467.15 304.15 467.15 303.43 467.57 303.06 C 467.57 303.06 468.01 302.7 469.21 302.48 L 470.09 302.3 C 470.09 302.3 471.73 301.99 472.5 301.2 C 472.5 301.2 473.28 300.42 473.28 299.1 C 473.28 299.1 473.28 297.53 472.22 296.72 C 472.22 296.72 471.18 295.91 469.14 295.91 C 469.14 295.91 468.38 295.91 467.51 296.08 C 467.51 296.08 466.65 296.26 465.72 296.6 L 465.72 298.1 C 465.72 298.1 466.61 297.6 467.46 297.35 C 467.46 297.35 468.32 297.1 469.14 297.1 C 469.14 297.1 470.39 297.1 471.07 297.59 C 471.07 297.59 471.75 298.08 471.75 298.99 C 471.75 298.99 471.75 299.79 471.26 300.23 C 471.26 300.23 470.78 300.68 469.66 300.91 L 468.77 301.08 C 468.77 301.08 467.14 301.41 466.41 302.1 C 466.41 302.1 465.68 302.8 465.68 304.03 C 465.68 304.03 465.68 305.46 466.68 306.29 C 466.68 306.29 467.7 307.11 469.47 307.11 C 469.47 307.11 470.23 307.11 471.02 306.98 C 471.02 306.98 471.8 306.84 472.63 306.56 Z " fill-rule="evenodd"/>
<path transform="matrix(1,0,0,-1,0,400)" d="M 478.62 305.48 L 476.64 300.1 L 480.61 300.1 L 478.62 305.48 M 477.79 306.92 L 479.45 306.92 L 483.57 296.12 L 482.05 296.12 L 481.06 298.89 L 476.2 298.89 L 475.21 296.12 L 473.67 296.12 L 477.79 306.92 Z " fill-rule="evenodd"/>
<path transform="matrix(1,0,0,-1,0,400)" d="M 485.02 306.92 L 491.23 306.92 L 491.23 305.69 L 486.48 305.69 L 486.48 302.51 L 490.76 302.51 L 490.76 301.28 L 486.48 301.28 L 486.48 296.12 L 485.02 296.12 L 485.02 306.92 Z " fill-rule="evenodd"/>
<path transform="matrix(1,0,0,-1,0,400)" d="M 490.92 306.92 L 500.06 306.92 L 500.06 305.69 L 496.23 305.69 L 496.23 296.12 L 494.76 296.12 L 494.76 305.69 L 490.92 305.69 L 490.92 306.92 Z " fill-rule="evenodd"/>
<path transform="matrix(1,0,0,-1,0,400)" d="M 499.42 300.77 L 503.32 300.77 L 503.32 299.58 L 499.42 299.58 L 499.42 300.77 Z " fill-rule="evenodd"/>
<path transform="matrix(1,0,0,-1,0,400)" d="M 506.69 296.12 L 502.57 306.92 L 504.1 306.92 L 507.52 297.83 L 510.95 306.92 L 512.47 306.92 L 508.35 296.12 L 506.69 296.12 Z " fill-rule="evenodd"/>
<path transform="matrix(1,0,0,-1,0,400)" d="M 519.04 301.18 C 519.04 301.18 519.51 301.02 519.95 300.5 C 519.95 300.5 520.4 299.98 520.85 299.07 L 522.33 296.12 L 520.76 296.12 L 519.38 298.89 C 519.38 298.89 518.85 299.97 518.34 300.33 C 518.34 300.33 517.84 300.68 516.97 300.68 L 515.38 300.68 L 515.38 296.12 L 513.92 296.12 L 513.92 306.92 L 517.22 306.92 C 517.22 306.92 519.07 306.92 519.98 306.14 C 519.98 306.14 520.89 305.37 520.89 303.81 C 520.89 303.81 520.89 302.79 520.42 302.12 C 520.42 302.12 519.95 301.44 519.04 301.18 M 515.38 305.72 L 515.38 301.88 L 517.22 301.88 C 517.22 301.88 518.27 301.88 518.81 302.37 C 518.81 302.37 519.35 302.86 519.35 303.81 C 519.35 303.81 519.35 304.76 518.81 305.23 C 518.81 305.23 518.27 305.72 517.22 305.72 L 515.38 305.72 Z " fill-rule="evenodd"/>
<path transform="matrix(1,0,0,-1,0,400)" d="M 534.97 306.56 L 534.97 305.14 C 534.97 305.14 534.14 305.54 533.4 305.73 C 533.4 305.73 532.66 305.93 531.98 305.93 C 531.98 305.93 530.78 305.93 530.13 305.46 C 530.13 305.46 529.49 305 529.49 304.15 C 529.49 304.15 529.49 303.43 529.91 303.06 C 529.91 303.06 530.35 302.7 531.55 302.48 L 532.43 302.3 C 532.43 302.3 534.07 301.99 534.84 301.2 C 534.84 301.2 535.62 300.42 535.62 299.1 C 535.62 299.1 535.62 297.53 534.56 296.72 C 534.56 296.72 533.52 295.91 531.48 295.91 C 531.48 295.91 530.72 295.91 529.85 296.08 C 529.85 296.08 528.99 296.26 528.06 296.6 L 528.06 298.1 C 528.06 298.1 528.95 297.6 529.81 297.35 C 529.81 297.35 530.66 297.1 531.48 297.1 C 531.48 297.1 532.73 297.1 533.41 297.59 C 533.41 297.59 534.09 298.08 534.09 298.99 C 534.09 298.99 534.09 299.79 533.6 300.23 C 533.6 300.23 533.12 300.68 532 300.91 L 531.11 301.08 C 531.11 301.08 529.48 301.41 528.75 302.1 C 528.75 302.1 528.02 302.8 528.02 304.03 C 528.02 304.03 528.02 305.46 529.02 306.29 C 529.02 306.29 530.04 307.11 531.81 307.11 C 531.81 307.11 532.57 307.11 533.36 306.98 C 533.36 306.98 534.15 306.84 534.97 306.56 Z " fill-rule="evenodd"/>
<path transform="matrix(1,0,0,-1,0,400)" d="M 536.11 306.92 L 537.59 306.92 L 539.86 297.79 L 542.12 306.92 L 543.77 306.92 L 546.04 297.79 L 548.3 306.92 L 549.78 306.92 L 547.07 296.12 L 545.23 296.12 L 542.96 305.49 L 540.66 296.12 L 538.82 296.12 L 536.11 306.92 Z " fill-rule="evenodd"/>
<path transform="matrix(1,0,0,-1,0,400)" stroke-width="1.25" stroke-linecap="butt" stroke-miterlimit="10" stroke-linejoin="miter" fill="none" stroke="#008000" d="M 425.83 282.62 L 459.98 282.62 "/>
<path transform="matrix(1,0,0,-1,0,400)" d="M 467.14 286.82 L 467.14 282.76 L 468.98 282.76 C 468.98 282.76 470 282.76 470.55 283.29 C 470.55 283.29 471.11 283.82 471.11 284.79 C 471.11 284.79 471.11 285.76 470.55 286.29 C 470.55 286.29 470 286.82 468.98 286.82 L 467.14 286.82 M 465.68 288.02 L 468.98 288.02 C 468.98 288.02 470.79 288.02 471.72 287.19 C 471.72 287.19 472.65 286.38 472.65 284.79 C 472.65 284.79 472.65 283.19 471.72 282.38 C 471.72 282.38 470.79 281.56 468.98 281.56 L 467.14 281.56 L 467.14 277.22 L 465.68 277.22 L 465.68 288.02 Z " fill-rule="evenodd"/>
<path transform="matrix(1,0,0,-1,0,400)" d="M 482.19 287.19 L 482.19 285.65 C 482.19 285.65 481.45 286.33 480.62 286.67 C 480.62 286.67 479.78 287.01 478.84 287.01 C 478.84 287.01 476.99 287.01 476.01 285.88 C 476.01 285.88 475.02 284.75 475.02 282.61 C 475.02 282.61 475.02 280.47 476.01 279.34 C 476.01 279.34 476.99 278.21 478.84 278.21 C 478.84 278.21 479.78 278.21 480.62 278.55 C 480.62 278.55 481.45 278.89 482.19 279.58 L 482.19 278.05 C 482.19 278.05 481.43 277.53 480.56 277.27 C 480.56 277.27 479.71 277.01 478.76 277.01 C 478.76 277.01 476.3 277.01 474.89 278.51 C 474.89 278.51 473.48 280.01 473.48 282.61 C 473.48 282.61 473.48 285.21 474.89 286.71 C 474.89 286.71 476.3 288.21 478.76 288.21 C 478.76 288.21 479.73 288.21 480.58 287.95 C 480.58 287.95 481.44 287.7 482.19 287.19 Z " fill-rule="evenodd"/>
<path transform="matrix(1,0,0,-1,0,400)" d="M 482.92 281.87 L 486.81 281.87 L 486.81 280.68 L 482.92 280.68 L 482.92 281.87 Z " fill-rule="evenodd"/>
<path transform="matrix(1,0,0,-1,0,400)" d="M 494.74 287.66 L 494.74 286.24 C 494.74 286.24 493.91 286.64 493.17 286.83 C 493.17 286.83 492.44 287.03 491.75 287.03 C 491.75 287.03 490.55 287.03 489.9 286.56 C 489.9 286.56 489.26 286.1 489.26 285.25 C 489.26 285.25 489.26 284.53 489.69 284.16 C 489.69 284.16 490.12 283.8 491.32 283.58 L 492.2 283.4 C 492.2 283.4 493.84 283.09 494.61 282.3 C 494.61 282.3 495.39 281.52 495.39 280.2 C 495.39 280.2 495.39 278.63 494.34 277.82 C 494.34 277.82 493.29 277.01 491.26 277.01 C 491.26 277.01 490.49 277.01 489.62 277.18 C 489.62 277.18 488.76 277.36 487.83 277.7 L 487.83 279.2 C 487.83 279.2 488.72 278.7 489.58 278.45 C 489.58 278.45 490.43 278.2 491.26 278.2 C 491.26 278.2 492.51 278.2 493.19 278.69 C 493.19 278.69 493.87 279.18 493.87 280.09 C 493.87 280.09 493.87 280.89 493.38 281.33 C 493.38 281.33 492.89 281.78 491.78 282.01 L 490.89 282.18 C 490.89 282.18 489.25 282.51 488.52 283.2 C 488.52 283.2 487.79 283.9 487.79 285.13 C 487.79 285.13 487.79 286.56 488.8 287.39 C 488.8 287.39 489.81 288.21 491.58 288.21 C 491.58 288.21 492.34 288.21 493.13 288.08 C 493.13 288.08 493.92 287.94 494.74 287.66 Z " fill-rule="evenodd"/>
<path transform="matrix(1,0,0,-1,0,400)" d="M 500.73 286.58 L 498.75 281.2 L 502.72 281.2 L 500.73 286.58 M 499.91 288.02 L 501.56 288.02 L 505.68 277.22 L 504.16 277.22 L 503.18 279.99 L 498.31 279.99 L 497.33 277.22 L 495.78 277.22 L 499.91 288.02 Z " fill-rule="evenodd"/>
<path transform="matrix(1,0,0,-1,0,400)" d="M 507.13 288.02 L 513.34 288.02 L 513.34 286.79 L 508.6 286.79 L 508.6 283.61 L 512.88 283.61 L 512.88 282.38 L 508.6 282.38 L 508.6 277.22 L 507.13 277.22 L 507.13 288.02 Z " fill-rule="evenodd"/>
<path transform="matrix(1,0,0,-1,0,400)" d="M 513.04 288.02 L 522.17 288.02 L 522.17 286.79 L 518.34 286.79 L 518.34 277.22 L 516.87 277.22 L 516.87 286.79 L 513.04 286.79 L 513.04 288.02 Z " fill-rule="evenodd"/>
<path transform="matrix(1,0,0,-1,0,400)" stroke-width="1.25" stroke-linecap="butt" stroke-miterlimit="10" stroke-linejoin="miter" fill="none" stroke="#800080" d="M 425.83 263.72 L 459.98 263.72 "/>
<path transform="matrix(1,0,0,-1,0,400)" d="M 472.63 268.76 L 472.63 267.34 C 472.63 267.34 471.8 267.74 471.06 267.93 C 471.06 267.93 470.32 268.13 469.63 268.13 C 469.63 268.13 468.44 268.13 467.79 267.66 C 467.79 267.66 467.15 267.2 467.15 266.35 C 467.15 266.35 467.15 265.63 467.57 265.26 C 467.57 265.26 468.01 264.9 469.21 264.68 L 470.09 264.5 C 470.09 264.5 471.73 264.19 472.5 263.4 C 472.5 263.4 473.28 262.62 473.28 261.3 C 473.28 261.3 473.28 259.73 472.22 258.92 C 472.22 258.92 471.18 258.11 469.14 258.11 C 469.14 258.11 468.38 258.11 467.51 258.28 C 467.51 258.28 466.65 258.46 465.72 258.8 L 465.72 260.3 C 465.72 260.3 466.61 259.8 467.46 259.55 C 467.46 259.55 468.32 259.3 469.14 259.3 C 469.14 259.3 470.39 259.3 471.07 259.79 C 471.07 259.79 471.75 260.28 471.75 261.19 C 471.75 261.19 471.75 261.99 471.26 262.43 C 471.26 262.43 470.78 262.88 469.66 263.11 L 468.77 263.28 C 468.77 263.28 467.14 263.61 466.41 264.3 C 466.41 264.3 465.68 265 465.68 266.23 C 465.68 266.23 465.68 267.66 466.68 268.49 C 466.68 268.49 467.7 269.31 469.47 269.31 C 469.47 269.31 470.23 269.31 471.02 269.18 C 471.02 269.18 471.8 269.04 472.63 268.76 Z " fill-rule="evenodd"/>
<path transform="matrix(1,0,0,-1,0,400)" d="M 478.62 267.68 L 476.64 262.3 L 480.61 262.3 L 478.62 267.68 M 477.79 269.12 L 479.45 269.12 L 483.57 258.32 L 482.05 258.32 L 481.06 261.09 L 476.2 261.09 L 475.21 258.32 L 473.67 258.32 L 477.79 269.12 Z " fill-rule="evenodd"/>
<path transform="matrix(1,0,0,-1,0,400)" d="M 485.02 269.12 L 491.23 269.12 L 491.23 267.89 L 486.48 267.89 L 486.48 264.71 L 490.76 264.71 L 490.76 263.48 L 486.48 263.48 L 486.48 258.32 L 485.02 258.32 L 485.02 269.12 Z " fill-rule="evenodd"/>
<path transform="matrix(1,0,0,-1,0,400)" d="M 490.92 269.12 L 500.06 269.12 L 500.06 267.89 L 496.23 267.89 L 496.23 258.32 L 494.76 258.32 L 494.76 267.89 L 490.92 267.89 L 490.92 269.12 Z " fill-rule="evenodd"/>
<path transform="matrix(1,0,0,-1,0,400)" d="M 499.42 262.97 L 503.32 262.97 L 503.32 261.78 L 499.42 261.78 L 499.42 262.97 Z " fill-rule="evenodd"/>
<path transform="matrix(1,0,0,-1,0,400)" d="M 506.69 258.32 L 502.57 269.12 L 504.1 269.12 L 507.52 260.03 L 510.95 269.12 L 512.47 269.12 L 508.35 258.32 L 506.69 258.32 Z " fill-rule="evenodd"/>
<path transform="matrix(1,0,0,-1,0,400)" d="M 519.04 263.38 C 519.04 263.38 519.51 263.22 519.95 262.7 C 519.95 262.7 520.4 262.18 520.85 261.27 L 522.33 258.32 L 520.76 258.32 L 519.38 261.09 C 519.38 261.09 518.85 262.17 518.34 262.53 C 518.34 262.53 517.84 262.88 516.97 262.88 L 515.38 262.88 L 515.38 258.32 L 513.92 258.32 L 513.92 269.12 L 517.22 269.12 C 517.22 269.12 519.07 269.12 519.98 268.34 C 519.98 268.34 520.89 267.57 520.89 266.01 C 520.89 266.01 520.89 264.99 520.42 264.32 C 520.42 264.32 519.95 263.64 519.04 263.38 M 515.38 267.92 L 515.38 264.08 L 517.22 264.08 C 517.22 264.08 518.27 264.08 518.81 264.57 C 518.81 264.57 519.35 265.06 519.35 266.01 C 519.35 266.01 519.35 266.96 518.81 267.43 C 518.81 267.43 518.27 267.92 517.22 267.92 L 515.38 267.92 Z " fill-rule="evenodd"/>
<path transform="matrix(1,0,0,-1,0,400)" d="M 528.5 269.12 L 530.67 269.12 L 533.43 261.77 L 536.2 269.12 L 538.38 269.12 L 538.38 258.32 L 536.95 258.32 L 536.95 267.8 L 534.17 260.39 L 532.7 260.39 L 529.91 267.8 L 529.91 258.32 L 528.5 258.32 L 528.5 269.12 Z " fill-rule="evenodd"/>
<path transform="matrix(1,0,0,-1,0,400)" d="M 539.77 266.42 L 541.1 266.42 L 541.1 258.32 L 539.77 258.32 L 539.77 266.42 M 539.77 269.57 L 541.1 269.57 L 541.1 267.89 L 539.77 267.89 L 539.77 269.57 Z " fill-rule="evenodd"/>
<path transform="matrix(1,0,0,-1,0,400)" d="M 549.43 262.7 L 549.43 262.05 L 543.31 262.05 C 543.31 262.05 543.4 260.68 544.14 259.95 C 544.14 259.95 544.88 259.24 546.2 259.24 C 546.2 259.24 546.97 259.24 547.69 259.43 C 547.69 259.43 548.41 259.61 549.12 259.99 L 549.12 258.73 C 549.12 258.73 548.4 258.43 547.65 258.27 C 547.65 258.27 546.9 258.11 546.12 258.11 C 546.12 258.11 544.19 258.11 543.05 259.24 C 543.05 259.24 541.92 260.37 541.92 262.29 C 541.92 262.29 541.92 264.28 542.99 265.44 C 542.99 265.44 544.07 266.62 545.89 266.62 C 545.89 266.62 547.53 266.62 548.48 265.56 C 548.48 265.56 549.43 264.51 549.43 262.7 M 548.1 263.09 C 548.1 263.09 548.08 264.19 547.48 264.84 C 547.48 264.84 546.89 265.49 545.91 265.49 C 545.91 265.49 544.79 265.49 544.12 264.86 C 544.12 264.86 543.46 264.23 543.35 263.09 L 548.1 263.09 Z " fill-rule="evenodd"/>
<path transform="matrix(1,0,0,-1,0,400)" d="M 442.91 251.82 C 439.04 251.82 435.91 248.68 435.91 244.82 C 435.91 240.95 439.04 237.82 442.91 237.82 C 446.77 237.82 449.91 240.95 449.91 244.82 C 449.91 248.68 446.77 251.82 442.91 251.82 Z " fill="#ffffff" fill-rule="evenodd"/>
<path transform="matrix(1,0,0,-1,0,400)" stroke-width="1.6" stroke-linecap="butt" stroke-miterlimit="10" stroke-linejoin="miter" fill="none" stroke="#000000" d="M 442.91 251.82 C 439.04 251.82 435.91 248.68 435.91 244.82 C 435.91 240.95 439.04 237.82 442.91 237.82 C 446.77 237.82 449.91 240.95 449.91 244.82 C 449.91 248.68 446.77 251.82 442.91 251.82 Z "/>
<path transform="matrix(1,0,0,-1,0,400)" d="M 465.68 250.22 L 472.51 250.22 L 472.51 248.99 L 467.14 248.99 L 467.14 245.79 L 472.28 245.79 L 472.28 244.56 L 467.14 244.56 L 467.14 240.65 L 472.64 240.65 L 472.64 239.42 L 465.68 239.42 L 465.68 250.22 Z " fill-rule="evenodd"/>
<path transform="matrix(1,0,0,-1,0,400)" d="M 480.77 247.52 L 477.84 243.58 L 480.92 239.42 L 479.35 239.42 L 476.99 242.6 L 474.63 239.42 L 473.06 239.42 L 476.21 243.66 L 473.33 247.52 L 474.9 247.52 L 477.05 244.63 L 479.2 247.52 L 480.77 247.52 Z " fill-rule="evenodd"/>
<path transform="matrix(1,0,0,-1,0,400)" d="M 483.6 240.63 L 483.6 236.34 L 482.26 236.34 L 482.26 247.52 L 483.6 247.52 L 483.6 246.29 C 483.6 246.29 484.02 247.01 484.66 247.36 C 484.66 247.36 485.3 247.72 486.19 247.72 C 486.19 247.72 487.67 247.72 488.59 246.54 C 488.59 246.54 489.51 245.37 489.51 243.46 C 489.51 243.46 489.51 241.55 488.59 240.38 C 488.59 240.38 487.67 239.21 486.19 239.21 C 486.19 239.21 485.3 239.21 484.66 239.56 C 484.66 239.56 484.02 239.91 483.6 240.63 M 488.13 243.46 C 488.13 243.46 488.13 244.93 487.52 245.76 C 487.52 245.76 486.92 246.6 485.87 246.6 C 485.87 246.6 484.81 246.6 484.2 245.76 C 484.2 245.76 483.6 244.93 483.6 243.46 C 483.6 243.46 483.6 241.99 484.2 241.15 C 484.2 241.15 484.81 240.32 485.87 240.32 C 485.87 240.32 486.92 240.32 487.52 241.15 C 487.52 241.15 488.13 241.99 488.13 243.46 Z " fill-rule="evenodd"/>
<path transform="matrix(1,0,0,-1,0,400)" d="M 497.84 243.8 L 497.84 243.15 L 491.72 243.15 C 491.72 243.15 491.81 241.78 492.54 241.05 C 492.54 241.05 493.29 240.34 494.61 240.34 C 494.61 240.34 495.38 240.34 496.1 240.53 C 496.1 240.53 496.82 240.71 497.53 241.09 L 497.53 239.83 C 497.53 239.83 496.81 239.53 496.06 239.37 C 496.06 239.37 495.31 239.21 494.53 239.21 C 494.53 239.21 492.59 239.21 491.46 240.34 C 491.46 240.34 490.33 241.47 490.33 243.39 C 490.33 243.39 490.33 245.38 491.4 246.54 C 491.4 246.54 492.48 247.72 494.3 247.72 C 494.3 247.72 495.94 247.72 496.88 246.66 C 496.88 246.66 497.84 245.61 497.84 243.8 M 496.51 244.19 C 496.51 244.19 496.49 245.29 495.89 245.94 C 495.89 245.94 495.3 246.59 494.32 246.59 C 494.32 246.59 493.2 246.59 492.53 245.96 C 492.53 245.96 491.86 245.33 491.76 244.19 L 496.51 244.19 Z " fill-rule="evenodd"/>
<path transform="matrix(1,0,0,-1,0,400)" d="M 503.93 246.28 C 503.93 246.28 503.71 246.41 503.44 246.46 C 503.44 246.46 503.18 246.53 502.86 246.53 C 502.86 246.53 501.73 246.53 501.12 245.79 C 501.12 245.79 500.52 245.06 500.52 243.69 L 500.52 239.42 L 499.18 239.42 L 499.18 247.52 L 500.52 247.52 L 500.52 246.26 C 500.52 246.26 500.94 247 501.62 247.35 C 501.62 247.35 502.29 247.72 503.25 247.72 C 503.25 247.72 503.39 247.72 503.55 247.69 C 503.55 247.69 503.72 247.68 503.92 247.64 L 503.93 246.28 Z " fill-rule="evenodd"/>
<path transform="matrix(1,0,0,-1,0,400)" d="M 505.33 247.52 L 506.66 247.52 L 506.66 239.42 L 505.33 239.42 L 505.33 247.52 M 505.33 250.67 L 506.66 250.67 L 506.66 248.99 L 505.33 248.99 L 505.33 250.67 Z " fill-rule="evenodd"/>
<path transform="matrix(1,0,0,-1,0,400)" d="M 514.36 245.97 C 514.36 245.97 514.86 246.86 515.55 247.29 C 515.55 247.29 516.25 247.72 517.19 247.72 C 517.19 247.72 518.46 247.72 519.14 246.83 C 519.14 246.83 519.83 245.94 519.83 244.31 L 519.83 239.42 L 518.49 239.42 L 518.49 244.27 C 518.49 244.27 518.49 245.43 518.08 245.99 C 518.08 245.99 517.67 246.56 516.82 246.56 C 516.82 246.56 515.79 246.56 515.19 245.87 C 515.19 245.87 514.59 245.18 514.59 244 L 514.59 239.42 L 513.25 239.42 L 513.25 244.27 C 513.25 244.27 513.25 245.44 512.83 245.99 C 512.83 245.99 512.42 246.56 511.56 246.56 C 511.56 246.56 510.54 246.56 509.94 245.86 C 509.94 245.86 509.34 245.18 509.34 244 L 509.34 239.42 L 508 239.42 L 508 247.52 L 509.34 247.52 L 509.34 246.26 C 509.34 246.26 509.8 247.01 510.43 247.36 C 510.43 247.36 511.07 247.72 511.94 247.72 C 511.94 247.72 512.83 247.72 513.44 247.27 C 513.44 247.27 514.06 246.82 514.36 245.97 Z " fill-rule="evenodd"/>
<path transform="matrix(1,0,0,-1,0,400)" d="M 528.16 243.8 L 528.16 243.15 L 522.04 243.15 C 522.04 243.15 522.12 241.78 522.86 241.05 C 522.86 241.05 523.61 240.34 524.93 240.34 C 524.93 240.34 525.7 240.34 526.41 240.53 C 526.41 240.53 527.14 240.71 527.84 241.09 L 527.84 239.83 C 527.84 239.83 527.13 239.53 526.38 239.37 C 526.38 239.37 525.62 239.21 524.85 239.21 C 524.85 239.21 522.91 239.21 521.78 240.34 C 521.78 240.34 520.65 241.47 520.65 243.39 C 520.65 243.39 520.65 245.38 521.72 246.54 C 521.72 246.54 522.8 247.72 524.62 247.72 C 524.62 247.72 526.25 247.72 527.2 246.66 C 527.2 246.66 528.16 245.61 528.16 243.8 M 526.82 244.19 C 526.82 244.19 526.81 245.29 526.21 245.94 C 526.21 245.94 525.62 246.59 524.63 246.59 C 524.63 246.59 523.52 246.59 522.85 245.96 C 522.85 245.96 522.18 245.33 522.08 244.19 L 526.82 244.19 Z " fill-rule="evenodd"/>
<path transform="matrix(1,0,0,-1,0,400)" d="M 536.29 244.31 L 536.29 239.42 L 534.96 239.42 L 534.96 244.27 C 534.96 244.27 534.96 245.42 534.51 245.99 C 534.51 245.99 534.06 246.56 533.16 246.56 C 533.16 246.56 532.08 246.56 531.46 245.87 C 531.46 245.87 530.84 245.18 530.84 244 L 530.84 239.42 L 529.5 239.42 L 529.5 247.52 L 530.84 247.52 L 530.84 246.26 C 530.84 246.26 531.32 246.99 531.96 247.35 C 531.96 247.35 532.61 247.72 533.46 247.72 C 533.46 247.72 534.85 247.72 535.57 246.85 C 535.57 246.85 536.29 245.99 536.29 244.31 Z " fill-rule="evenodd"/>
<path transform="matrix(1,0,0,-1,0,400)" d="M 539 249.82 L 539 247.52 L 541.74 247.52 L 541.74 246.49 L 539 246.49 L 539 242.09 C 539 242.09 539 241.1 539.27 240.81 C 539.27 240.81 539.54 240.53 540.37 240.53 L 541.74 240.53 L 541.74 239.42 L 540.37 239.42 C 540.37 239.42 538.83 239.42 538.25 239.99 C 538.25 239.99 537.66 240.57 537.66 242.09 L 537.66 246.49 L 536.68 246.49 L 536.68 247.52 L 537.66 247.52 L 537.66 249.82 L 539 249.82 Z " fill-rule="evenodd"/>
<path transform="matrix(1,0,0,-1,0,400)" d="M 546.82 243.49 C 546.82 243.49 545.21 243.49 544.58 243.12 C 544.58 243.12 543.96 242.75 543.96 241.86 C 543.96 241.86 543.96 241.15 544.42 240.74 C 544.42 240.74 544.89 240.32 545.7 240.32 C 545.7 240.32 546.8 240.32 547.47 241.1 C 547.47 241.1 548.14 241.89 548.14 243.19 L 548.14 243.49 L 546.82 243.49 M 549.47 244.04 L 549.47 239.42 L 548.14 239.42 L 548.14 240.65 C 548.14 240.65 547.69 239.91 547.01 239.56 C 547.01 239.56 546.33 239.21 545.34 239.21 C 545.34 239.21 544.1 239.21 543.36 239.9 C 543.36 239.9 542.63 240.61 542.63 241.78 C 542.63 241.78 542.63 243.14 543.54 243.84 C 543.54 243.84 544.46 244.53 546.28 244.53 L 548.14 244.53 L 548.14 244.66 C 548.14 244.66 548.14 245.58 547.54 246.08 C 547.54 246.08 546.93 246.59 545.84 246.59 C 545.84 246.59 545.15 246.59 544.49 246.42 C 544.49 246.42 543.83 246.25 543.22 245.92 L 543.22 247.15 C 543.22 247.15 543.95 247.43 544.64 247.57 C 544.64 247.57 545.33 247.72 545.98 247.72 C 545.98 247.72 547.74 247.72 548.61 246.8 C 548.61 246.8 549.47 245.89 549.47 244.04 Z " fill-rule="evenodd"/>
<path transform="matrix(1,0,0,-1,0,400)" d="M 550.87 250.67 L 552.2 250.67 L 552.2 239.42 L 550.87 239.42 L 550.87 250.67 Z " fill-rule="evenodd"/>
</g>
</g>
</svg>
